<svg xmlns="http://www.w3.org/2000/svg" xmlns:xlink="http://www.w3.org/1999/xlink" width="609" zoomAndPan="magnify" viewBox="0 0 456.75 260.250006" height="347" preserveAspectRatio="xMidYMid meet" version="1.0"><defs><clipPath id="c7d7ed86e0"><path d="M 1 0 L 455.96875 0 L 455.96875 258.753906 L 1 258.753906 Z M 1 0 " clip-rule="nonzero"/></clipPath></defs><g clip-path="url(#c7d7ed86e0)"><path fill="#000000" d="M 32.214844 240.414062 C 31.210938 227.40625 30.617188 214.484375 30.972656 201.386719 C 30.378906 201.105469 29.75 200.832031 29.136719 200.503906 C 27.609375 199.699219 26.0625 198.921875 24.574219 198.046875 C 21.730469 196.359375 20.714844 193.738281 21.253906 190.609375 C 22.488281 183.335938 23.714844 176.050781 25.195312 168.824219 C 26.089844 164.453125 27.363281 160.144531 28.632812 155.855469 C 30.496094 149.566406 32.820312 143.496094 38.351562 138.777344 C 33.871094 138.09375 29.722656 137.464844 27.160156 133.410156 C 23.832031 133.839844 21.101562 132.945312 19.691406 129.414062 C 17.964844 129.652344 16.199219 130.007812 14.820312 128.554688 C 13.449219 127.113281 13.824219 125.371094 14.105469 123.480469 C 12.261719 123.078125 10.558594 122.503906 9.5 120.878906 C 8.421875 119.238281 8.660156 117.421875 8.914062 115.503906 C 7.160156 114.371094 5.695312 113.011719 5.769531 110.683594 C 5.832031 108.539062 6.820312 106.777344 8.109375 104.953125 C 6.5 103.585938 5.402344 101.96875 5.613281 99.722656 C 5.640625 99.386719 5.148438 98.964844 4.828125 98.65625 C 3.601562 97.425781 3.492188 96.007812 4.226562 94.539062 C 4.78125 93.425781 5.515625 92.414062 6.171875 91.363281 C 6.0625 91.238281 5.988281 91.0625 5.886719 91.042969 C 1.957031 90.460938 0.550781 88.269531 1.621094 84.402344 C 2.351562 81.773438 3.8125 79.5625 5.578125 77.582031 C 3.996094 73.96875 4.34375 72.296875 7.34375 69.714844 C 8.402344 68.792969 9.617188 68.054688 10.789062 67.207031 C 10.808594 67.105469 10.898438 66.933594 10.851562 66.8125 C 9.152344 62.605469 11.082031 58.527344 15.769531 56.425781 C 16.621094 56.042969 17.480469 55.695312 18.339844 55.332031 C 18.183594 54.199219 17.820312 53.167969 17.992188 52.246094 C 18.175781 51.308594 18.898438 50.476562 19.410156 49.554688 C 17.636719 46.066406 18.15625 43.886719 21.613281 41.742188 C 23.195312 40.757812 24.984375 40.089844 26.886719 39.175781 C 26.621094 36.011719 28.605469 34.101562 31.441406 32.917969 C 31.53125 32.6875 31.660156 32.53125 31.640625 32.40625 C 31.121094 29.328125 32.683594 27.449219 35.296875 26.289062 C 36.714844 25.660156 38.230469 25.230469 39.894531 24.648438 C 39.832031 24.320312 39.738281 23.890625 39.683594 23.453125 C 39.347656 20.742188 40.71875 18.933594 42.914062 17.675781 C 45.527344 16.167969 48.386719 15.839844 51.3125 16.25 C 53.445312 11.816406 56.734375 11.742188 61.351562 13.183594 C 61.789062 10.070312 62.703125 7.1875 66.058594 6.046875 C 69.058594 5.023438 71.945312 5.800781 74.851562 6.796875 C 77.429688 3.226562 80.4375 4.53125 83.328125 6.027344 C 83.519531 5.964844 83.621094 5.957031 83.65625 5.910156 C 86.589844 2.550781 89.671875 2.160156 93.347656 4.742188 C 94.351562 5.453125 95.257812 6.320312 96.4375 7.316406 C 96.628906 6.695312 96.757812 6.300781 96.855469 5.910156 C 97.25 4.449219 98.265625 3.601562 99.699219 3.453125 C 100.769531 3.34375 101.527344 2.988281 102.316406 2.214844 C 104.296875 0.25 106.710938 0.371094 109.132812 1.28125 C 111.703125 2.25 113.6875 4.03125 115.441406 6.101562 C 115.796875 6.523438 116.089844 6.996094 116.457031 7.398438 C 117.234375 8.273438 117.738281 8.253906 118.550781 7.371094 C 121.046875 4.652344 122.738281 4.347656 125.929688 6.15625 C 126.816406 6.660156 127.644531 7.277344 128.40625 7.945312 C 129.171875 8.613281 129.820312 9.40625 130.625 10.246094 C 131.027344 9.917969 131.441406 9.597656 131.84375 9.25 C 134.117188 7.269531 136.640625 7.023438 139.300781 8.273438 C 142.5 9.769531 144.6875 12.289062 146.175781 15.4375 C 146.644531 16.425781 147.007812 17.464844 147.445312 18.550781 C 149.871094 19.082031 151.972656 20.222656 153.808594 21.910156 C 154.210938 22.273438 154.914062 22.558594 155.445312 22.503906 C 160.125 22.039062 163.078125 24.519531 165.0625 28.308594 C 165.996094 30.078125 166.378906 32.140625 167.039062 34.167969 C 172.632812 37.441406 173.492188 43.039062 173.429688 48.898438 C 173.410156 50.886719 172.542969 52.859375 172.15625 54.855469 C 172 55.652344 171.828125 56.609375 172.121094 57.3125 C 174.023438 61.839844 174.507812 66.574219 174.351562 71.402344 C 174.113281 78.761719 172.796875 85.878906 170.027344 92.761719 C 168.445312 96.675781 167.285156 100.78125 166.167969 104.871094 C 163.355469 115.183594 157.492188 123.269531 148.617188 129.148438 C 139.484375 135.191406 129.402344 138.085938 118.421875 137.261719 C 113.652344 136.90625 108.914062 136.058594 104.171875 135.445312 C 103.785156 135.402344 103.402344 135.375 102.972656 135.335938 C 102.371094 136.167969 101.382812 136.832031 101.886719 138 C 102.496094 139.417969 102.324219 141.152344 104.453125 141.835938 C 109.035156 143.285156 112.71875 146.316406 116.3125 149.390625 C 117.847656 150.707031 119.300781 152.121094 120.917969 153.597656 C 122.546875 151.628906 125.125 151.535156 127.710938 151.300781 C 135.078125 150.640625 142.429688 149.886719 149.789062 149.171875 C 150.648438 149.089844 151.523438 148.945312 152.375 149.027344 C 153.917969 149.171875 154.777344 148.617188 155.464844 147.164062 C 157.640625 142.636719 160 138.195312 162.265625 133.710938 C 163.425781 131.402344 167.59375 130.601562 169.269531 132.5 C 169.734375 133.027344 169.890625 134.152344 169.6875 134.863281 C 169.304688 136.203125 168.582031 137.453125 167.960938 138.714844 C 166.371094 141.9375 164.761719 145.148438 162.933594 148.835938 C 164.378906 148.773438 165.355469 148.816406 166.296875 148.660156 C 169.953125 148.042969 172.277344 149.335938 172.777344 152.996094 C 173.328125 157.023438 173.472656 161.128906 173.539062 165.199219 C 173.675781 174.464844 173.621094 183.734375 173.730469 193 C 173.757812 195.664062 174.09375 198.328125 174.257812 200.996094 C 174.535156 205.585938 173.082031 207.519531 168.519531 208.316406 C 163.5625 209.171875 158.574219 209.847656 153.609375 210.632812 C 147.089844 211.664062 140.574219 212.703125 134.054688 213.789062 C 132.390625 214.0625 130.820312 214.257812 129.273438 213.261719 C 128.851562 212.988281 128.074219 213.058594 127.519531 213.207031 C 125.359375 213.78125 123.351562 213.882812 121.585938 212.140625 C 121.339844 211.890625 120.578125 212.148438 119.886719 212.183594 C 124.226562 221.183594 126.613281 230.320312 127.675781 240.148438 C 146.644531 240.375 165.546875 239.875 184.707031 240.011719 C 190.167969 218.171875 197.296875 196.988281 204.335938 175.578125 C 203.476562 175.484375 202.789062 175.421875 202.113281 175.339844 C 200.359375 175.121094 199.078125 173.980469 198.742188 172.238281 C 198.496094 170.929688 198.3125 169.597656 198.183594 168.277344 C 197.925781 165.628906 199.117188 163.875 201.738281 163.273438 C 203.183594 162.945312 204.703125 162.863281 206.183594 162.816406 C 213.332031 162.617188 220.488281 162.445312 227.648438 162.304688 C 230.945312 162.242188 234.257812 162.222656 237.554688 162.289062 C 240.160156 162.332031 241.671875 163.457031 242.4375 165.9375 C 242.921875 167.507812 243.425781 169.152344 243.40625 170.757812 C 243.398438 172.164062 242.785156 173.625 242.199219 174.945312 C 241.980469 175.429688 241.074219 175.695312 240.4375 175.867188 C 239.871094 176.023438 239.21875 175.894531 238.488281 175.894531 C 239.914062 179.65625 241.359375 183.207031 242.621094 186.832031 C 247.53125 200.996094 252.347656 215.195312 257.273438 229.359375 C 258.738281 233.578125 260.457031 237.710938 262.09375 241.984375 C 267.429688 241.820312 272.585938 241.664062 277.808594 241.507812 C 280.238281 226.703125 284.710938 212.703125 290.972656 199.097656 C 290.496094 198.769531 290.003906 198.410156 289.492188 198.09375 C 286.171875 195.992188 285.402344 193.703125 287.023438 190.078125 C 288.367188 187.066406 289.820312 184.101562 291.347656 181.179688 C 295.296875 173.652344 299.8125 166.46875 305.023438 159.742188 C 307.226562 156.894531 309.738281 154.285156 312.242188 151.4375 C 311.996094 151.136719 311.632812 150.660156 311.246094 150.214844 C 305.980469 144.070312 303.128906 136.84375 301.628906 129.003906 C 300.460938 122.886719 300.167969 116.691406 300.132812 110.484375 C 300.113281 107.355469 300.132812 104.222656 300.132812 100.773438 C 299.035156 100.929688 298.210938 101.113281 297.378906 101.15625 C 294.691406 101.3125 292.269531 100.574219 290.925781 98.128906 C 290.257812 96.902344 290.265625 95.308594 289.910156 93.589844 C 290.019531 93.664062 289.847656 93.5 289.644531 93.425781 C 286.007812 92.085938 284.453125 89.292969 284.214844 85.625 C 284.015625 82.503906 284.726562 79.515625 285.871094 76.652344 C 290.515625 64.953125 298.550781 56.371094 309.921875 50.949219 C 315.195312 48.441406 320.691406 46.570312 326.890625 45.875 C 326.570312 44.890625 326.421875 43.976562 325.992188 43.230469 C 325.214844 41.871094 324.265625 40.609375 323.414062 39.296875 C 321.75 36.714844 321.898438 34.148438 323.789062 32.449219 C 325.875 30.578125 329.183594 30.496094 331.332031 32.476562 C 332.28125 33.355469 332.957031 34.566406 333.625 35.699219 C 334.054688 36.421875 334.238281 37.289062 334.648438 38.390625 C 335.308594 37.808594 335.855469 37.316406 336.40625 36.832031 C 344.285156 29.867188 353.308594 25.90625 364.003906 27.039062 C 368.445312 27.503906 372.816406 28.617188 377.214844 29.457031 C 384.28125 30.796875 391.375 31.527344 398.550781 30.488281 C 399.089844 30.40625 399.648438 30.378906 400.195312 30.414062 C 404.894531 30.6875 406.8125 32.632812 407.050781 37.296875 C 407.144531 37.414062 407.214844 37.597656 407.34375 37.644531 C 415.167969 40.355469 420.992188 45.59375 425.664062 52.226562 C 427.0625 54.21875 428.289062 56.335938 429.558594 58.40625 C 432.308594 62.914062 436.078125 66.203125 441.039062 68.136719 C 442.785156 68.820312 444.515625 69.652344 446.078125 70.683594 C 448.957031 72.570312 450.566406 75.320312 450.492188 78.804688 C 450.457031 80.238281 449.917969 81.664062 449.617188 83.039062 C 450.996094 85.347656 452.570312 87.675781 453.828125 90.167969 C 455.492188 93.445312 455.996094 97.03125 455.976562 100.691406 C 455.949219 104.742188 454.644531 107.949219 450.300781 109.105469 C 450.089844 109.160156 449.917969 109.371094 449.671875 109.542969 C 449.671875 110.054688 449.617188 110.59375 449.679688 111.125 C 450.621094 118.855469 448.105469 125.207031 442.019531 130.070312 C 438.527344 132.855469 434.503906 134.578125 429.804688 135.730469 C 428.71875 138.675781 426.660156 141.289062 423.863281 143.050781 C 423.890625 143.394531 423.871094 143.496094 423.910156 143.542969 C 434.238281 155.890625 440.695312 170.171875 444.90625 185.5625 C 445.710938 188.507812 446.425781 191.492188 447.011719 194.496094 C 447.832031 198.742188 445.839844 201.597656 441.679688 202.785156 C 439.824219 203.3125 438.0625 204.199219 436.359375 204.882812 C 436.855469 208.960938 437.273438 212.777344 437.785156 216.582031 C 438.765625 223.800781 438.480469 230.996094 437.394531 238.175781 C 437.144531 239.800781 436.980469 241.234375 438.199219 242.757812 C 439.613281 244.546875 438.160156 247.121094 435.757812 247.441406 C 434.75 247.578125 433.71875 247.449219 432.695312 247.40625 C 430.105469 247.296875 427.511719 247.066406 424.925781 247.066406 C 374.957031 247.019531 324.988281 247.011719 275.019531 246.976562 C 272.585938 246.976562 270.148438 246.800781 267.714844 246.730469 C 266.710938 246.703125 265.703125 246.71875 264.359375 246.71875 C 265.171875 248.773438 265.894531 250.570312 266.601562 252.371094 C 268.027344 256.027344 266.433594 258.449219 262.484375 258.4375 C 239.273438 258.394531 216.054688 258.328125 192.84375 258.230469 C 189.78125 258.21875 186.710938 258.027344 183.648438 257.855469 C 181.042969 257.699219 181.253906 257.269531 181.007812 254.742188 C 180.695312 251.601562 182.324219 249.027344 182.761719 245.769531 C 181.746094 245.769531 180.914062 245.769531 180.082031 245.769531 C 139.949219 245.714844 99.820312 245.679688 59.6875 245.578125 C 50.089844 245.550781 40.488281 245.304688 30.890625 245.140625 C 30.195312 245.132812 29.464844 245.058594 28.808594 244.839844 C 27.921875 244.546875 27.363281 243.863281 27.378906 242.886719 C 27.40625 241.808594 28.011719 241.097656 29.042969 240.878906 C 29.984375 240.640625 31 240.570312 32.214844 240.414062 Z M 160.292969 89.859375 C 160.722656 86.480469 161.527344 83.367188 165.191406 82.117188 C 164.460938 80.09375 162 81.222656 160.777344 79.636719 C 163.425781 77.171875 165.976562 78.203125 168.785156 79.828125 C 169.058594 77.191406 169.351562 74.882812 169.515625 72.5625 C 169.734375 69.515625 167.878906 66.878906 164.953125 65.9375 C 164.433594 65.773438 163.882812 65.679688 163.363281 65.507812 C 162.285156 65.152344 161.589844 64.441406 161.726562 63.246094 C 161.855469 62.066406 162.667969 61.355469 163.773438 61.328125 C 164.84375 61.300781 165.933594 61.566406 166.984375 61.828125 C 167.613281 61.984375 168.191406 62.386719 169.367188 62.960938 C 168.703125 60.980469 168.335938 59.464844 167.707031 58.089844 C 162.367188 46.480469 153.152344 39.148438 141.332031 34.980469 C 134.53125 32.578125 127.382812 31.957031 120.167969 31.976562 C 118.625 31.984375 117.875 32.6875 117.242188 33.855469 C 112.984375 41.832031 107.132812 48.613281 101.082031 55.242188 C 96.875 59.839844 92.242188 63.957031 86.957031 67.316406 C 83.335938 69.613281 79.535156 71.429688 75.183594 71.84375 C 74.824219 71.878906 74.476562 72.097656 74.121094 72.234375 C 75.410156 75.601562 76.664062 78.859375 74.898438 82.382812 C 74.433594 82.019531 74.113281 81.609375 74.019531 81.152344 C 73.828125 80.230469 73.800781 79.28125 73.636719 78.359375 C 72.695312 73.183594 69.339844 70.027344 64.140625 69.3125 C 61.707031 68.976562 59.632812 69.613281 57.867188 71.3125 C 55.609375 73.503906 54.148438 76.160156 53.296875 79.160156 C 52.128906 83.257812 52.191406 87.402344 52.96875 91.539062 C 54.277344 98.457031 57.449219 103.730469 65.035156 105.210938 C 65.996094 105.402344 66.890625 106.296875 67.660156 107.027344 C 68.390625 107.71875 68.949219 108.605469 69.558594 109.425781 C 75.832031 117.941406 83.949219 124.121094 93.703125 128.0625 C 102.917969 131.785156 112.570312 133.621094 122.519531 133.382812 C 135.535156 133.074219 146.46875 128.027344 155.097656 118.234375 C 157.757812 115.210938 159.90625 111.78125 161.40625 108.058594 C 162.714844 104.789062 163.671875 101.375 164.679688 97.988281 C 165.136719 96.4375 165.328125 94.804688 165.703125 92.871094 C 164.761719 93.253906 164.121094 93.464844 163.527344 93.765625 C 162.066406 94.503906 160.96875 94.449219 159.84375 93.519531 C 158.644531 92.53125 158.417969 91.335938 159.066406 89.585938 C 159.140625 89.566406 159.230469 89.519531 159.292969 89.539062 C 159.613281 89.640625 159.953125 89.75 160.292969 89.859375 Z M 387.871094 198.367188 C 388.402344 198.621094 388.730469 198.832031 389.089844 198.949219 C 399 202.308594 409.128906 204.328125 419.660156 203.660156 C 425.207031 203.304688 430.535156 202.007812 435.582031 199.699219 C 439.460938 197.929688 439.925781 196.878906 439.277344 192.78125 C 438.035156 184.921875 435.875 177.292969 433.242188 169.808594 C 430.839844 162.980469 427.648438 156.492188 424.128906 150.175781 C 423.078125 148.277344 421.972656 146.378906 420.199219 144.929688 C 416.75 146.324219 413.269531 147.238281 409.601562 147.265625 C 406.722656 147.285156 403.898438 147.164062 402.105469 144.246094 C 397.042969 149.308594 391.410156 153.269531 385.597656 156.429688 C 385.503906 157.835938 385.523438 158.929688 385.332031 159.980469 C 384.957031 162.058594 384.601562 164.167969 383.980469 166.183594 C 381.675781 173.605469 379.269531 180.988281 376.882812 188.382812 C 376.71875 188.902344 376.480469 189.421875 376.164062 189.851562 C 375.3125 191.019531 374.140625 191.148438 373.164062 190.097656 C 372.53125 189.421875 372.03125 188.582031 371.636719 187.742188 C 370.347656 184.96875 369.125 182.15625 367.878906 179.363281 C 366.144531 175.457031 365.183594 175.113281 361.417969 177.046875 C 361.34375 177.082031 361.28125 177.128906 361.207031 177.15625 C 359.46875 177.8125 358.8125 178.945312 358.820312 180.917969 C 358.882812 191.128906 358.773438 201.332031 358.710938 211.546875 C 358.703125 212.402344 358.691406 213.289062 358.484375 214.101562 C 358.246094 215.011719 357.484375 215.6875 356.542969 215.40625 C 355.914062 215.214844 355.320312 214.546875 354.933594 213.953125 C 354.671875 213.542969 354.753906 212.886719 354.753906 212.339844 C 354.796875 204.253906 354.824219 196.15625 354.933594 188.070312 C 354.980469 184.640625 355.199219 181.199219 355.347656 177.792969 C 354.449219 177.339844 353.609375 176.917969 352.777344 176.480469 C 350.226562 175.15625 349.175781 175.441406 347.960938 178.105469 C 346.816406 180.597656 345.867188 183.171875 344.863281 185.726562 C 344.570312 186.464844 344.394531 187.3125 343.417969 187.359375 C 342.394531 187.40625 341.863281 186.691406 341.570312 185.828125 C 341.351562 185.160156 341.1875 184.464844 341.09375 183.773438 C 340.363281 177.996094 339.933594 172.210938 340.253906 166.386719 C 340.300781 165.636719 340.328125 164.890625 340.363281 163.996094 C 330.546875 162.972656 322.070312 159.304688 314.347656 153.199219 C 312.410156 155.570312 310.441406 157.707031 308.777344 160.0625 C 302.453125 168.988281 296.839844 178.34375 292.34375 188.328125 C 291.792969 189.539062 291.28125 190.773438 290.75 192.003906 C 290.3125 193.027344 290.53125 193.839844 291.554688 194.378906 C 291.976562 194.597656 292.371094 194.863281 292.800781 195.0625 C 299.164062 198.011719 305.617188 200.667969 312.636719 201.660156 C 315.902344 202.125 319.15625 202.527344 322.546875 202.28125 C 322.820312 201.453125 323.058594 200.722656 323.296875 199.980469 C 324.59375 195.949219 325.882812 191.90625 327.207031 187.878906 C 327.472656 187.066406 327.785156 186.210938 328.296875 185.550781 C 328.609375 185.152344 329.421875 184.832031 329.886719 184.949219 C 330.34375 185.078125 330.894531 185.78125 330.929688 186.273438 C 331.003906 187.269531 330.867188 188.316406 330.628906 189.292969 C 329.714844 193.109375 328.746094 196.914062 327.777344 200.710938 C 326.195312 206.9375 324.613281 213.160156 322.996094 219.503906 C 330.839844 222.726562 338.296875 226.496094 344.917969 231.789062 C 358.539062 223.539062 373.710938 221.210938 389.070312 219.886719 C 389.574219 214.59375 390.058594 209.472656 390.523438 204.464844 C 387.984375 203.238281 385.695312 202.207031 383.476562 201.058594 C 381.777344 200.171875 381.070312 198.960938 381.554688 197.1875 C 382.835938 192.496094 384.253906 187.851562 385.695312 183.207031 C 385.945312 182.421875 386.539062 181.691406 387.125 181.089844 C 387.84375 180.351562 388.816406 180.269531 389.738281 180.761719 C 390.578125 181.207031 390.933594 181.976562 390.851562 182.925781 C 390.816406 183.316406 390.734375 183.699219 390.652344 184.082031 C 389.964844 187.222656 389.253906 190.363281 388.605469 193.511719 C 388.320312 195.125 388.128906 196.75 387.871094 198.367188 Z M 345.464844 162.5 C 345.484375 162.671875 345.492188 162.835938 345.511719 163.007812 C 347.339844 163.210938 349.167969 163.539062 350.996094 163.574219 C 358.8125 163.738281 366.335938 162.015625 373.546875 159.265625 C 383.292969 155.550781 391.90625 149.96875 398.859375 142.082031 C 399.976562 140.820312 401.175781 140.410156 402.808594 140.574219 C 405.222656 140.820312 407.664062 141.023438 410.078125 140.96875 C 413.769531 140.886719 417.207031 139.71875 420.28125 137.691406 C 421.421875 136.933594 422.539062 135.894531 423.214844 134.714844 C 425.023438 131.558594 425.644531 128.089844 424.8125 124.484375 C 422.832031 115.914062 413.898438 112.445312 406.578125 117.382812 C 406.175781 117.660156 405.671875 117.804688 404.921875 118.140625 C 405.011719 117.09375 405.078125 116.378906 405.140625 115.605469 C 400.242188 115.003906 396.382812 112.703125 393.292969 109.144531 C 391.191406 106.714844 389.246094 104.152344 387.304688 101.585938 C 386.410156 100.398438 385.707031 99.066406 384.875 97.835938 C 383.933594 96.449219 382.664062 95.671875 380.898438 95.789062 C 378.3125 95.964844 375.824219 95.335938 373.683594 93.964844 C 371.382812 92.496094 369.050781 90.917969 367.203125 88.945312 C 364.808594 86.382812 362.585938 83.550781 360.804688 80.53125 C 357.761719 75.402344 355.128906 70.042969 352.300781 64.785156 C 351.5 63.28125 350.628906 61.8125 349.835938 60.40625 C 341.050781 62.585938 337.300781 65.335938 335.929688 70.480469 C 337.703125 72.535156 337.519531 74.761719 336.414062 77.0625 C 336.277344 77.34375 336.058594 77.601562 335.992188 77.902344 C 335.882812 78.414062 335.691406 79.007812 335.847656 79.445312 C 336.617188 81.617188 337.695312 83.625 339.539062 85.09375 C 342.019531 87.066406 345.609375 85.980469 346.652344 83.003906 C 347.046875 81.882812 346.992188 80.839844 346.242188 79.890625 C 345.566406 79.035156 344.769531 79.308594 343.890625 79.601562 C 343.554688 79.71875 342.8125 79.5 342.703125 79.242188 C 342.53125 78.824219 342.519531 78.03125 342.796875 77.785156 C 343.324219 77.289062 344.085938 76.84375 344.789062 76.769531 C 347.082031 76.523438 349.003906 78.695312 348.765625 81.261719 C 348.535156 83.726562 347.457031 85.761719 345.28125 87.109375 C 341.898438 89.210938 338.03125 88.828125 335.152344 85.898438 C 333.910156 84.636719 332.957031 83.085938 331.898438 81.699219 C 330.792969 81.855469 329.714844 82.101562 328.625 82.144531 C 326.585938 82.21875 324.949219 81.386719 323.835938 79.664062 C 322.785156 78.039062 322.710938 76.269531 323.167969 74.441406 C 324.019531 71.066406 325.902344 68.300781 328.324219 65.863281 C 328.910156 65.28125 329.539062 64.730469 330.144531 64.167969 C 330.023438 64.019531 329.914062 63.875 329.796875 63.726562 C 327.582031 65.152344 325.316406 66.492188 323.167969 68.007812 C 314.042969 74.433594 308.148438 83.050781 305.625 93.945312 C 305.039062 96.464844 304.363281 98.957031 303.75 101.46875 C 303.660156 101.839844 303.613281 102.253906 303.640625 102.636719 C 303.824219 105.0625 304.015625 107.480469 304.234375 109.910156 C 304.253906 110.136719 304.464844 110.355469 304.691406 110.785156 C 305.25 109.855469 305.632812 109.179688 306.054688 108.53125 C 307.863281 105.730469 310.039062 103.265625 312.957031 101.558594 C 315.105469 100.300781 317.410156 99.578125 319.933594 99.804688 C 322.246094 100.015625 323.625 101.429688 323.441406 103.382812 C 323.25 105.347656 321.542969 106.550781 319.265625 105.984375 C 316.695312 105.347656 314.601562 106.230469 312.65625 107.628906 C 309.921875 109.589844 307.847656 112.136719 306.464844 115.210938 C 306.175781 115.851562 306.046875 116.628906 305.605469 117.136719 C 304.886719 117.976562 304.921875 118.871094 305.078125 119.792969 C 305.671875 123.269531 306.148438 126.785156 306.960938 130.21875 C 310.085938 143.3125 317.839844 152.613281 330.179688 158.117188 C 332.601562 159.195312 335.105469 159.75 337.710938 159.824219 C 343.902344 159.988281 349.652344 158.984375 353.71875 153.597656 C 354.296875 152.84375 355.136719 152.148438 356.289062 152.339844 C 356.71875 154.703125 356.582031 155.371094 355.246094 156.976562 C 353.28125 159.347656 350.75 160.863281 347.8125 161.742188 C 347.007812 161.976562 346.242188 162.242188 345.464844 162.5 Z M 27.699219 193.96875 C 28.09375 194.167969 28.359375 194.351562 28.640625 194.449219 C 38.796875 198.136719 49.292969 199.964844 60.097656 199.664062 C 66.945312 199.472656 73.261719 197.363281 78.765625 193.238281 C 80.867188 191.660156 82.707031 189.722656 84.679688 187.933594 C 81.964844 184.292969 79.296875 180.988281 76.945312 177.476562 C 75.164062 174.820312 73.765625 171.898438 72.265625 169.058594 C 71.945312 168.449219 71.445312 167.601562 72.695312 166.898438 C 73.226562 167.480469 73.875 168.046875 74.332031 168.730469 C 77.824219 173.925781 82.347656 178.160156 86.828125 182.46875 C 89.050781 184.601562 90.523438 187.359375 89.058594 190.691406 C 88.976562 190.875 89.023438 191.101562 88.996094 191.503906 C 96.765625 192.25 104.335938 191.867188 111.839844 189.789062 C 111.757812 189.15625 111.730469 188.855469 111.675781 188.546875 C 110.980469 184.128906 110.285156 179.703125 109.609375 175.285156 C 109.464844 174.300781 109.273438 173.257812 110.496094 172.445312 C 112.460938 173.84375 112.425781 176.261719 113.332031 177.839844 C 114.398438 175.878906 115.507812 173.84375 116.613281 171.789062 C 113.402344 169.324219 113.640625 168.082031 117.984375 165.179688 C 114.234375 163.8125 113.195312 163.035156 113.011719 161.164062 C 112.738281 158.246094 114.882812 156.984375 117.1875 155.746094 C 112.882812 151.800781 108.824219 147.921875 103.558594 145.085938 C 104.070312 149.757812 104.589844 154.027344 104.984375 158.316406 C 105.332031 162.070312 105.605469 165.828125 105.761719 169.589844 C 105.808594 170.804688 105.550781 172.109375 105.113281 173.25 C 104.554688 174.683594 103.066406 175.011719 101.785156 174.144531 C 101.21875 173.75 100.640625 173.242188 100.3125 172.648438 C 99.363281 170.941406 98.539062 169.167969 97.671875 167.417969 C 97.203125 166.488281 96.746094 165.546875 96.199219 164.441406 C 93.710938 166.488281 92.121094 168.832031 90.457031 171.105469 C 89.085938 172.984375 87.523438 173.1875 85.925781 171.589844 C 84.261719 169.9375 82.742188 168.128906 81.058594 166.488281 C 78.984375 164.460938 76.875 162.472656 74.660156 160.589844 C 73.738281 159.804688 72.53125 159.359375 71.5 158.785156 C 70.164062 159.695312 69.714844 160.863281 69.414062 162.085938 C 68.964844 163.914062 68.65625 165.773438 68.214844 167.609375 C 67.96875 168.660156 67.832031 169.992188 66.40625 170.019531 C 65.035156 170.046875 64.714844 168.777344 64.378906 167.738281 C 64.058594 166.769531 63.890625 165.757812 63.636719 164.769531 C 61.175781 155.234375 60.199219 145.46875 58.929688 135.738281 C 58.863281 135.246094 58.664062 134.761719 58.433594 133.929688 C 53.800781 136.058594 49.339844 137.972656 44.996094 140.148438 C 41.195312 142.054688 38.605469 145.203125 37.070312 149.15625 C 36.21875 151.34375 35.453125 153.582031 34.839844 155.84375 C 31.496094 168.292969 29.429688 181 27.699219 193.96875 Z M 243.773438 204.78125 C 228.808594 203.351562 214.117188 204.445312 199.335938 203.996094 C 199.089844 204.808594 198.898438 205.441406 198.648438 206.253906 C 201.199219 206.5 203.53125 206.707031 205.863281 206.972656 C 206.949219 207.089844 208.066406 207.199219 209.097656 207.546875 C 209.574219 207.703125 210.121094 208.40625 210.140625 208.890625 C 210.167969 209.363281 209.664062 210.019531 209.207031 210.3125 C 208.714844 210.632812 208.019531 210.6875 207.40625 210.75 C 203.980469 211.117188 200.550781 211.445312 196.96875 211.800781 C 195.980469 215.46875 195.003906 219.128906 193.976562 222.972656 C 196.335938 223.109375 198.367188 223.210938 200.394531 223.347656 C 202.113281 223.464844 203.84375 223.574219 205.5625 223.757812 C 206.667969 223.875 207.527344 224.40625 207.617188 225.644531 C 207.699219 226.6875 206.894531 227.472656 205.449219 227.691406 C 204.050781 227.890625 202.644531 228.027344 201.226562 228.082031 C 198.410156 228.210938 195.585938 228.265625 192.679688 228.347656 C 190.457031 236.808594 188.265625 245.167969 186.097656 253.410156 C 211.007812 253.410156 235.738281 253.410156 260.941406 253.410156 C 256.042969 241.699219 251.523438 230.355469 248.152344 218.601562 C 246.828125 214.019531 245.273438 209.5 243.773438 204.78125 Z M 38.160156 240.113281 C 66.003906 240.113281 93.566406 240.113281 121.246094 240.113281 C 121.121094 231.175781 118.320312 223.054688 116.601562 214.53125 C 115.828125 214.886719 115.222656 215.195312 114.59375 215.441406 C 111.667969 216.582031 108.789062 217.871094 105.796875 218.792969 C 100.433594 220.445312 94.875 221 89.289062 221.3125 C 77.660156 221.960938 67.039062 218.875 57.21875 212.785156 C 54.714844 211.234375 52.511719 209.347656 50.949219 206.828125 C 50.335938 205.851562 49.605469 205.503906 48.523438 205.3125 C 44.503906 204.601562 40.5 203.777344 36.484375 203.011719 C 35.972656 202.910156 35.460938 202.847656 34.703125 202.71875 C 35.222656 215.371094 36.066406 227.792969 38.160156 240.113281 Z M 394.199219 219.785156 C 397.671875 219.785156 401.109375 219.804688 404.554688 219.777344 C 406.46875 219.769531 407.9375 220.5625 408.597656 222.058594 C 409.171875 223.363281 408.890625 224.960938 407.902344 226.003906 C 406.742188 227.226562 405.167969 227.480469 403.339844 226.75 C 402.617188 226.457031 401.90625 226.074219 401.148438 225.910156 C 396.292969 224.835938 391.355469 224.167969 386.402344 224.652344 C 381.089844 225.171875 375.777344 225.828125 370.53125 226.796875 C 360.769531 228.585938 351.652344 232.152344 343.351562 237.667969 C 342.695312 238.105469 342.074219 238.597656 341.433594 239.0625 C 342.339844 239.035156 343.015625 238.699219 343.683594 238.339844 C 346.882812 236.617188 350.265625 235.347656 353.820312 234.589844 C 354.570312 234.425781 355.429688 234.253906 356.125 234.460938 C 356.679688 234.628906 357.304688 235.292969 357.449219 235.859375 C 357.558594 236.289062 357.074219 237.082031 356.636719 237.375 C 356.003906 237.777344 355.171875 237.867188 354.414062 238.078125 C 351.699219 238.835938 348.976562 239.574219 346.261719 240.367188 C 345.8125 240.496094 345.429688 240.859375 344.652344 241.355469 C 348.507812 241.480469 351.773438 241.636719 355.019531 240.03125 C 357.210938 238.933594 359.789062 238.488281 362.257812 238.113281 C 364.398438 237.785156 364.992188 238.660156 364.671875 240.859375 C 364.652344 240.996094 364.726562 241.144531 364.761719 241.335938 C 386.292969 241.335938 407.828125 241.335938 429.320312 241.335938 C 432.308594 233.128906 434.476562 210.476562 432.675781 206.234375 C 419.859375 210.121094 407.097656 209.144531 394.21875 205.441406 C 394.199219 210.25 394.199219 214.792969 394.199219 219.785156 Z M 121.648438 172.921875 C 120.652344 173.96875 119.839844 174.808594 119.054688 175.660156 C 118.039062 176.753906 117.554688 178.085938 117.664062 179.546875 C 117.875 182.449219 118.386719 185.296875 119.777344 187.917969 C 120.644531 189.566406 120.371094 190.535156 118.6875 191.320312 C 114.957031 193.054688 111.0625 194.175781 106.957031 194.707031 C 100.660156 195.507812 94.398438 195.234375 88.171875 194.132812 C 87.113281 193.941406 86.453125 194.203125 85.648438 194.84375 C 83.757812 196.367188 81.773438 197.792969 79.761719 199.160156 C 74.878906 202.5 69.476562 204.554688 63.628906 205.367188 C 61.316406 205.6875 58.984375 205.785156 56.652344 205.988281 C 57.757812 207.226562 59 208.121094 60.328125 208.878906 C 68.316406 213.398438 76.855469 216.0625 86.0625 216.582031 C 96.847656 217.195312 107.058594 215.378906 116.367188 209.683594 C 119.777344 207.59375 122.976562 205.164062 126.300781 202.9375 C 127.125 202.382812 128.066406 202 128.972656 201.578125 C 132.746094 199.835938 136.578125 198.210938 140.296875 196.347656 C 142.308594 195.34375 143.816406 193.695312 145.078125 191.128906 C 139.996094 193.914062 135.453125 196.632812 129.886719 196.195312 C 130.527344 195.621094 131.285156 195.390625 132.023438 195.109375 C 134.804688 194.050781 137.703125 193.199219 140.324219 191.839844 C 143.609375 190.144531 145.929688 187.421875 147.007812 183.902344 C 144.175781 185.515625 141.476562 187.414062 138.515625 188.671875 C 131.285156 191.75 130.78125 191.742188 129.164062 190.992188 C 130.085938 190.445312 130.863281 189.941406 131.679688 189.523438 C 133.5625 188.554688 135.472656 187.632812 137.363281 186.675781 C 140.378906 185.152344 142.75 182.886719 144.667969 180.148438 C 144.933594 179.765625 145.0625 179.292969 145.371094 178.597656 C 134.601562 184.210938 128.972656 184.832031 125.761719 183.144531 C 126.523438 181.699219 128.019531 181.855469 129.238281 181.601562 C 134.832031 180.414062 139.695312 177.8125 144.019531 174.144531 C 144.292969 173.90625 144.503906 173.585938 145.070312 172.929688 C 143.9375 173.113281 143.269531 173.1875 142.621094 173.339844 C 136.652344 174.738281 130.691406 176.152344 124.730469 177.539062 C 123.726562 177.765625 122.65625 178.277344 121.539062 177.265625 C 122.835938 175.988281 122.308594 174.691406 121.648438 172.921875 Z M 340.410156 234.644531 C 339.886719 234.199219 339.449219 233.769531 338.945312 233.414062 C 332.949219 229.179688 326.613281 225.453125 319.640625 223.191406 C 311.457031 220.535156 303.066406 218.875 294.582031 222.304688 C 293.941406 221.019531 293.941406 220.261719 295.285156 219.511719 C 296.96875 218.574219 298.816406 217.769531 300.699219 217.367188 C 305.523438 216.335938 310.386719 216.730469 315.222656 217.523438 C 316.136719 217.679688 317.0625 217.832031 318.1875 218.015625 C 319.191406 214.257812 320.507812 210.707031 321.183594 206.972656 C 317.785156 206.554688 314.648438 206.308594 311.566406 205.75 C 308.558594 205.210938 305.5625 204.507812 302.644531 203.597656 C 299.691406 202.675781 296.839844 201.425781 293.953125 200.308594 C 293.722656 200.722656 293.585938 200.914062 293.503906 201.121094 C 289.226562 212.183594 285.578125 223.445312 283.292969 235.101562 C 282.898438 237.128906 282.753906 239.207031 282.480469 241.371094 C 300.011719 241.371094 317.21875 241.371094 334.109375 241.371094 C 336.269531 239.082031 338.242188 236.964844 340.410156 234.644531 Z M 131.441406 207.128906 C 133.5625 206.808594 134.265625 206.5 134.183594 209.785156 C 135.125 209.710938 136.046875 209.675781 136.972656 209.566406 C 140.242188 209.164062 143.527344 208.789062 146.796875 208.304688 C 152.628906 207.4375 158.453125 206.542969 164.257812 205.578125 C 165.640625 205.347656 166.984375 204.835938 168.316406 204.390625 C 169.230469 204.089844 169.671875 203.46875 169.578125 202.417969 C 169.421875 200.777344 169.351562 199.125 169.332031 197.480469 C 169.222656 186.648438 169.132812 175.8125 169.039062 164.980469 C 169.011719 161.769531 169.066406 158.546875 168.9375 155.332031 C 168.839844 152.6875 168.535156 152.441406 165.996094 151.929688 C 165.464844 151.820312 164.898438 151.820312 164.359375 151.800781 C 152.429688 151.371094 140.65625 152.871094 128.925781 154.777344 C 128.003906 154.933594 127.070312 155.167969 126.203125 155.507812 C 125.753906 155.679688 125.125 156.15625 125.097656 156.53125 C 124.984375 157.78125 124.628906 159.101562 125.386719 160.5 C 125.945312 160.035156 126.347656 159.695312 126.757812 159.359375 C 127.382812 158.847656 128.03125 158.738281 128.660156 159.332031 C 129.265625 159.90625 129.300781 160.644531 128.835938 161.257812 C 128.324219 161.921875 127.683594 162.527344 127.007812 163.035156 C 126.402344 163.492188 125.671875 163.792969 125.113281 164.105469 C 125.113281 165.355469 125.113281 166.421875 125.113281 167.5625 C 125.488281 167.492188 125.707031 167.453125 125.929688 167.410156 C 127.710938 166.996094 128.625 167.316406 129.082031 168.511719 C 129.539062 169.71875 128.871094 170.984375 127.363281 171.679688 C 126.667969 172 125.945312 172.253906 125.132812 172.574219 C 125.222656 173.421875 125.304688 174.152344 125.40625 175.027344 C 126.257812 174.800781 126.851562 174.617188 127.453125 174.492188 C 133.605469 173.195312 139.742188 171.835938 145.910156 170.65625 C 147.144531 170.421875 148.582031 170.65625 149.777344 171.078125 C 150.71875 171.40625 151.523438 171.542969 152.484375 171.40625 C 154.972656 171.058594 157.476562 170.765625 159.980469 170.53125 C 161.058594 170.421875 162.191406 170.320312 163.132812 171.34375 C 161.78125 173.257812 159.722656 172.492188 157.96875 172.71875 C 156.132812 172.964844 154.285156 173.113281 152.429688 173.304688 C 152.851562 175.566406 153.214844 177.539062 153.597656 179.601562 C 155.289062 179.375 156.917969 179.136719 158.535156 178.925781 C 160.601562 178.652344 161.433594 178.871094 161.636719 179.730469 C 161.84375 180.632812 161.140625 181 158.929688 181.191406 C 157.074219 181.34375 155.21875 181.535156 153.289062 181.71875 C 152.949219 183.71875 152.648438 185.523438 152.320312 187.523438 C 154.613281 187.222656 156.625 186.941406 158.636719 186.703125 C 159.257812 186.628906 159.898438 186.582031 160.511719 186.683594 C 160.820312 186.738281 161.296875 187.140625 161.304688 187.394531 C 161.316406 187.789062 161.085938 188.417969 160.785156 188.535156 C 160.082031 188.828125 159.285156 188.929688 158.519531 189.011719 C 156.5625 189.210938 154.597656 189.292969 152.648438 189.539062 C 152.101562 189.613281 151.386719 189.925781 151.113281 190.363281 C 150.070312 191.996094 149.183594 193.730469 148.085938 195.703125 C 149.082031 195.609375 149.84375 195.59375 150.574219 195.453125 C 153.28125 194.953125 155.96875 194.386719 158.671875 193.886719 C 159.597656 193.710938 160.539062 193.539062 161.460938 193.546875 C 161.789062 193.546875 162.3125 194.058594 162.375 194.40625 C 162.449219 194.742188 162.15625 195.34375 161.835938 195.539062 C 161.316406 195.847656 160.667969 195.976562 160.054688 196.074219 C 155.859375 196.742188 151.660156 197.34375 147.476562 198.027344 C 146.40625 198.203125 145.234375 198.375 144.355469 198.933594 C 140.628906 201.332031 136.613281 203.09375 132.527344 204.746094 C 132.042969 204.945312 131.578125 205.210938 131.082031 205.457031 C 131.136719 205.878906 131.148438 206.1875 131.222656 206.488281 C 131.238281 206.707031 131.359375 206.917969 131.441406 207.128906 Z M 242.035156 199.871094 C 238.984375 191.621094 236.84375 183.535156 233.617188 175.6875 C 224.765625 175.6875 216.082031 175.6875 207.378906 175.6875 C 206.046875 180.414062 204.757812 185.003906 203.367188 189.960938 C 204.628906 189.960938 205.632812 189.878906 206.613281 189.980469 C 208.796875 190.199219 210.972656 190.460938 213.140625 190.78125 C 214.226562 190.945312 215.523438 191.175781 215.480469 192.609375 C 215.433594 193.847656 214.246094 194.078125 213.222656 194.277344 C 212.453125 194.421875 211.6875 194.625 210.910156 194.6875 C 207.945312 194.925781 204.984375 195.109375 201.792969 195.328125 C 201.355469 196.84375 200.890625 198.46875 200.324219 200.410156 C 201.472656 200.410156 202.316406 200.410156 203.15625 200.410156 C 213.367188 200.410156 223.589844 200.449219 233.800781 200.390625 C 236.386719 200.375 238.957031 200.074219 242.035156 199.871094 Z M 87.898438 166.859375 C 89.097656 162.917969 88.417969 159.046875 89.816406 155.386719 C 91.199219 151.757812 91.738281 147.757812 93.621094 144.289062 C 95.441406 140.933594 97.605469 137.765625 99.488281 134.726562 C 95.292969 132.964844 90.730469 131.441406 86.554688 129.195312 C 82.332031 126.921875 78.492188 123.9375 74.367188 121.199219 C 73.328125 125.023438 72.550781 128.992188 69.230469 131.769531 C 73.519531 140.574219 77.769531 149.246094 81.945312 157.953125 C 83.445312 161.074219 85.339844 163.921875 87.898438 166.859375 Z M 69.351562 124.246094 C 67.769531 125.398438 66.582031 126.421875 65.246094 127.195312 C 63.015625 128.484375 62.394531 130.328125 62.777344 132.761719 C 63.171875 135.246094 63.398438 137.746094 63.683594 140.246094 C 64.46875 147.109375 65.234375 153.972656 66.03125 160.828125 C 66.085938 161.320312 66.351562 161.785156 66.515625 162.269531 C 67.074219 161.183594 67.339844 160.125 67.539062 159.058594 C 68.242188 155.441406 70.347656 154.148438 73.875 155.214844 C 74.699219 155.460938 75.464844 155.871094 76.261719 156.21875 C 76.710938 156.410156 77.15625 156.601562 77.988281 156.957031 C 77.511719 155.910156 77.238281 155.277344 76.9375 154.648438 C 74.332031 149.191406 71.746094 143.734375 69.09375 138.292969 C 68.453125 136.980469 68.089844 135.683594 68.242188 134.222656 C 68.4375 132.425781 68.546875 130.628906 68.738281 128.839844 C 68.894531 127.453125 69.101562 126.082031 69.351562 124.246094 Z M 363.75 172.800781 C 367.394531 173.1875 368.292969 173.667969 369.671875 176.0625 C 370.257812 177.074219 370.722656 178.160156 371.179688 179.238281 C 371.976562 181.109375 372.707031 183.015625 373.503906 184.886719 C 373.683594 185.324219 374.023438 185.707031 374.488281 186.429688 C 377.066406 177.039062 379.601562 168.074219 381.125 158.5 C 379.144531 159.203125 377.625 159.84375 376.054688 160.289062 C 374.207031 160.808594 372.652344 161.605469 371.445312 163.171875 C 369.011719 166.332031 366.472656 169.398438 363.75 172.800781 Z M 201.976562 172.015625 C 214.621094 171.863281 226.871094 171.707031 239.347656 171.550781 C 239.128906 170.007812 238.972656 168.777344 238.761719 167.546875 C 238.5625 166.378906 237.894531 165.828125 236.632812 165.867188 C 233.34375 165.964844 230.03125 165.8125 226.75 166.074219 C 219.484375 166.667969 212.226562 167.410156 204.910156 167.234375 C 204.144531 167.214844 203.375 167.382812 202.316406 167.480469 C 202.207031 168.949219 202.105469 170.320312 201.976562 172.015625 Z M 98.640625 142.886719 C 98.3125 143.578125 97.890625 144.253906 97.671875 144.984375 C 96.5 148.726562 95.402344 152.484375 94.222656 156.21875 C 93.777344 157.644531 93.867188 158.984375 94.453125 160.316406 C 97.644531 159.761719 98.722656 160.152344 100.175781 162.597656 C 100.777344 163.601562 101.207031 164.707031 101.703125 165.773438 C 101.984375 166.394531 102.214844 167.035156 102.46875 167.664062 C 102.234375 159.257812 101.335938 151 98.640625 142.886719 Z M 354.09375 172.773438 C 352.640625 169.835938 351.296875 167.144531 349.878906 164.269531 C 348.644531 164.269531 347.320312 164.257812 345.984375 164.269531 C 343.691406 164.277344 343.5 164.453125 343.335938 166.804688 C 343.261719 167.902344 343.207031 169.003906 343.269531 170.089844 C 343.515625 174.152344 343.820312 178.214844 344.121094 182.277344 C 344.148438 182.667969 344.320312 183.0625 344.570312 184.011719 C 345.027344 182.8125 345.300781 182.195312 345.511719 181.546875 C 346.160156 179.539062 346.761719 177.511719 347.421875 175.503906 C 348.097656 173.460938 349.324219 172.582031 351.441406 172.601562 C 352.210938 172.609375 352.980469 172.703125 354.09375 172.773438 Z M 369.125 162.242188 C 366.839844 162.625 365.082031 162.945312 363.328125 163.210938 C 361.472656 163.503906 359.605469 163.757812 357.75 164.011719 C 356.03125 164.25 354.222656 163.710938 352.457031 164.605469 C 354.421875 168.394531 356.316406 172.035156 358.363281 175.976562 C 362.011719 171.316406 365.410156 166.980469 369.125 162.242188 Z M 331.414062 79.875 C 331.058594 78.277344 331.039062 76.769531 330.398438 75.601562 C 329.101562 73.238281 328.945312 72.910156 330.671875 70.976562 C 331.558594 69.980469 331.960938 68.859375 332.15625 67.234375 C 330.152344 68.867188 328.707031 70.507812 327.730469 72.488281 C 327.082031 73.804688 326.496094 75.21875 326.238281 76.660156 C 325.808594 79.117188 327.328125 80.566406 329.796875 80.285156 C 330.242188 80.21875 330.683594 80.054688 331.414062 79.875 Z M 156.9375 148.699219 C 158.371094 148.71875 159.632812 149.429688 160.363281 148.050781 C 161.207031 146.488281 161.855469 144.828125 162.648438 143.078125 C 161.734375 142.703125 161.058594 142.417969 160.238281 142.082031 C 159.121094 144.335938 158.089844 146.398438 156.9375 148.699219 Z M 330.324219 43.039062 C 330.324219 41.925781 330.464844 40.894531 330.289062 39.90625 C 330.070312 38.628906 329.796875 37.289062 329.210938 36.148438 C 328.496094 34.769531 327.609375 34.796875 326.285156 35.964844 C 327.609375 38.28125 328.9375 40.621094 330.324219 43.039062 Z M 167.210938 134.433594 C 166.042969 133.941406 165.21875 133.648438 164.617188 134.617188 C 164.058594 135.5 163.574219 136.433594 162.980469 137.480469 C 163.902344 137.726562 164.542969 137.910156 165.300781 138.113281 C 165.941406 136.886719 166.535156 135.746094 167.210938 134.433594 Z M 121.128906 167.308594 C 119.703125 167.589844 118.292969 167.527344 117.488281 169.023438 C 118.789062 169.789062 120.011719 169.9375 121.410156 169.371094 C 121.320312 168.695312 121.238281 168.101562 121.128906 167.308594 Z M 120.773438 161.660156 C 120.460938 160.519531 120.304688 159.933594 120.105469 159.195312 C 119.109375 159.707031 118.394531 160.078125 117.683594 160.445312 C 117.691406 160.617188 117.699219 160.792969 117.71875 160.957031 C 118.550781 161.148438 119.382812 161.339844 120.773438 161.660156 Z M 163.464844 140.722656 C 163.527344 140.558594 163.589844 140.402344 163.664062 140.238281 C 163.132812 140.054688 162.59375 139.863281 162.054688 139.699219 C 162.046875 139.699219 161.972656 139.925781 161.882812 140.164062 C 162.414062 140.347656 162.933594 140.539062 163.464844 140.722656 Z M 228.46875 136.078125 C 228.414062 142.0625 223.699219 146.015625 218.058594 144.808594 C 213.980469 143.945312 210.898438 139.226562 211.574219 134.953125 C 212.003906 132.214844 213.386719 129.953125 215.261719 128.015625 C 217.171875 126.046875 221.441406 125.910156 224.027344 127.753906 C 226.84375 129.761719 228.5625 132.460938 228.46875 136.078125 Z M 215.261719 131.429688 C 215.003906 132.753906 214.628906 134.050781 214.527344 135.363281 C 214.191406 139.816406 217.929688 142.875 221.96875 141.507812 C 225.167969 140.421875 226.53125 136.296875 224.757812 133.035156 C 223.285156 130.335938 221.136719 129.46875 218.25 130.425781 C 217.351562 130.726562 216.464844 131.027344 215.261719 131.429688 Z M 210.078125 159.769531 C 205.945312 159.777344 203.136719 156.519531 203.871094 152.476562 C 204.007812 151.730469 204.316406 150.960938 204.730469 150.324219 C 206.089844 148.195312 210.175781 146.929688 212.5 147.839844 C 215.140625 148.871094 216.96875 151.984375 216.496094 154.621094 C 215.945312 157.605469 213.265625 159.761719 210.078125 159.769531 Z M 209.847656 156.492188 C 211.457031 156.613281 213.128906 155.289062 213.183594 153.863281 C 213.238281 152.332031 211.53125 150.816406 209.664062 150.753906 C 208.421875 150.707031 207.296875 151.875 207.152344 153.34375 C 206.988281 155.070312 208.082031 156.355469 209.847656 156.492188 Z M 202.34375 116.234375 C 202.371094 113.933594 203.660156 112.464844 205.9375 112.019531 C 206.511719 111.910156 207.105469 111.679688 207.570312 111.351562 C 208.367188 110.785156 209.117188 110.695312 209.984375 111.113281 C 211.996094 112.082031 213.085938 115.019531 212.308594 117.429688 C 211.503906 119.914062 209.007812 121.519531 206.464844 121.171875 C 204.089844 120.863281 202.304688 118.726562 202.34375 116.234375 Z M 207.671875 114.28125 C 206.238281 114.308594 205.296875 115.101562 205.269531 116.296875 C 205.242188 117.484375 206.109375 118.371094 207.289062 118.371094 C 208.511719 118.371094 209.574219 117.375 209.582031 116.207031 C 209.582031 115.183594 208.660156 114.261719 207.671875 114.28125 Z M 231.402344 151.847656 C 231.285156 154.53125 228.992188 156.804688 226.578125 156.628906 C 224.492188 156.484375 223.019531 154.53125 223.140625 152.058594 C 223.269531 149.355469 225.460938 147.410156 228.167969 147.601562 C 230.015625 147.738281 231.496094 149.683594 231.402344 151.847656 Z M 225.917969 149.738281 C 225.835938 151.097656 225.644531 152.09375 225.792969 153.035156 C 225.855469 153.433594 226.851562 154.09375 227.0625 153.984375 C 227.691406 153.644531 228.386719 153.050781 228.578125 152.414062 C 228.726562 151.9375 228.257812 151.136719 227.855469 150.660156 C 227.546875 150.285156 226.90625 150.1875 225.917969 149.738281 Z M 65.273438 93.472656 C 63.308594 92.625 61.324219 93.308594 60.335938 94.988281 C 59.394531 96.59375 59.742188 98.902344 61.113281 100.191406 C 62.183594 101.183594 62.914062 101.148438 64.441406 99.886719 C 63.957031 99.222656 63.324219 98.59375 63.003906 97.84375 C 62.757812 97.269531 62.6875 96.410156 62.941406 95.882812 C 63.34375 95.058594 64.285156 95.125 65.035156 95.460938 C 65.664062 95.746094 66.296875 96.136719 66.773438 96.640625 C 67.355469 97.261719 67.832031 98 68.253906 98.746094 C 68.664062 99.460938 69.09375 100.328125 69.972656 99.988281 C 70.574219 99.761719 70.96875 98.9375 71.417969 98.355469 C 71.554688 98.183594 71.589844 97.917969 71.617188 97.679688 C 71.9375 93.855469 72.46875 90.023438 72.496094 86.199219 C 72.523438 82.902344 71.9375 79.609375 70.210938 76.679688 C 67.539062 72.152344 62.285156 71.578125 58.710938 75.457031 C 56.597656 77.746094 55.636719 80.53125 55.648438 83.644531 C 55.648438 84.035156 55.855469 84.4375 55.964844 84.828125 C 56.652344 83.980469 56.851562 83.09375 57.101562 82.21875 C 57.667969 80.238281 58.351562 78.320312 59.980469 76.917969 C 62.574219 74.664062 65.703125 75.117188 67.273438 78.167969 C 68.050781 79.671875 68.5 81.386719 68.828125 83.066406 C 69.625 87.121094 69.203125 91.199219 68.671875 95.535156 C 67.394531 94.742188 66.398438 93.957031 65.273438 93.472656 Z M 124.410156 99.851562 C 123.707031 103.382812 123.707031 106.898438 125.222656 110.230469 C 128.570312 117.59375 137.457031 119.539062 143.542969 114.273438 C 144.074219 113.816406 144.550781 113.277344 144.933594 112.695312 C 145.453125 111.898438 145.425781 111.042969 144.757812 110.3125 C 144.074219 109.5625 143.179688 109.582031 142.382812 110 C 141.695312 110.355469 141.128906 110.941406 140.5 111.40625 C 136.933594 114.042969 133.105469 113.761719 130.214844 110.402344 C 129.171875 109.199219 128.414062 107.636719 127.929688 106.113281 C 127.363281 104.34375 127.28125 102.417969 126.925781 100.574219 C 126.757812 99.695312 126.449219 98.847656 126.203125 97.988281 C 124.765625 98.136719 124.574219 99.03125 124.410156 99.851562 Z M 133.605469 67.058594 C 130.734375 64.15625 128.550781 64.277344 126.046875 67.480469 C 124.59375 69.339844 123.183594 71.230469 122.710938 73.621094 C 122.683594 73.75 122.5625 73.859375 122.480469 73.976562 C 122.125 73.730469 121.777344 73.492188 121.355469 73.203125 C 120.523438 74.542969 121.121094 75.613281 121.769531 76.558594 C 123.753906 79.488281 127.800781 79.972656 130.433594 77.59375 C 132.316406 75.894531 133.339844 73.695312 133.5625 71.183594 C 133.679688 69.789062 133.542969 68.375 133.515625 66.960938 Z M 147.757812 90.933594 C 150.757812 91.609375 153.617188 91.171875 155.773438 88.828125 C 157.839844 86.582031 157.53125 83.90625 156.34375 81.351562 C 155.382812 79.296875 154.332031 77.289062 153.152344 75.355469 C 152.640625 74.515625 151.796875 73.832031 150.984375 73.257812 C 150.683594 73.039062 149.925781 73.203125 149.550781 73.449219 C 149.332031 73.59375 149.367188 74.289062 149.457031 74.691406 C 149.539062 75.046875 149.90625 75.328125 150.0625 75.683594 C 150.9375 77.683594 152 79.628906 152.601562 81.707031 C 153.710938 85.558594 152.3125 86.957031 148.296875 86.371094 C 147.089844 86.199219 145.867188 86.207031 144.484375 86.125 C 144.386719 88.953125 145.390625 90.40625 147.757812 90.933594 Z M 121.605469 54.164062 C 126.75 51.234375 131.886719 49.828125 137.082031 54.117188 C 138.113281 54.976562 139.265625 54.773438 140.050781 53.925781 C 140.792969 53.121094 140.976562 51.773438 140.070312 50.933594 C 138.945312 49.890625 137.648438 48.878906 136.238281 48.339844 C 130.9375 46.296875 123.558594 48.25 119.820312 52.511719 C 119.207031 53.214844 118.515625 53.90625 119.109375 55.496094 C 120.03125 55.003906 120.835938 54.601562 121.605469 54.164062 Z M 133.535156 66.96875 C 133.824219 67.03125 134.136719 67.058594 134.410156 67.179688 C 135.316406 67.550781 136.128906 67.433594 136.75 66.675781 C 137.445312 65.835938 137.390625 64.851562 136.769531 64.066406 C 136.101562 63.21875 135.324219 62.378906 134.421875 61.8125 C 130.570312 59.382812 124.355469 60.015625 120.980469 63.109375 C 120.515625 63.535156 120.195312 64.121094 119.8125 64.632812 C 119.929688 64.769531 120.039062 64.90625 120.160156 65.042969 C 120.773438 64.796875 121.367188 64.46875 121.996094 64.320312 C 123.816406 63.890625 125.652344 63.179688 127.472656 63.21875 C 130.132812 63.273438 132.582031 64.175781 133.617188 67.070312 C 133.605469 67.058594 133.535156 66.976562 133.535156 66.96875 Z M 369.097656 126.75 C 369.160156 126.046875 369.371094 125.335938 369.269531 124.648438 C 368.75 120.972656 364.761719 117.640625 360.769531 117.402344 C 358.609375 117.273438 356.929688 118.078125 355.722656 119.820312 C 353.867188 122.523438 353.191406 125.542969 353.683594 128.765625 C 354.121094 131.59375 356.070312 133.539062 358.335938 133.648438 C 360.648438 133.757812 362.53125 132.050781 363.308594 129.148438 C 363.347656 128.992188 363.375 128.839844 363.410156 128.691406 C 364.132812 125.9375 364.261719 123.207031 362.722656 120.46875 C 366.78125 120.925781 367.039062 124.347656 368.253906 126.941406 C 368.539062 126.875 368.8125 126.8125 369.097656 126.75 Z M 410.78125 138.878906 C 411.988281 139.199219 413.5625 138.476562 414.191406 137.316406 C 414.839844 136.132812 414.585938 134.496094 413.351562 133.777344 C 412.445312 133.257812 411.304688 132.972656 410.25 132.9375 C 409.015625 132.890625 407.765625 133.273438 406.523438 133.367188 C 404.628906 133.511719 404.007812 132.800781 404.582031 130.992188 C 405.734375 127.40625 407.644531 124.273438 410.636719 121.921875 C 413.441406 119.722656 416.441406 120.1875 418.660156 123.035156 C 419.0625 123.546875 419.511719 124.011719 419.90625 124.457031 C 421.074219 123.808594 420.949219 123.042969 420.746094 122.25 C 420.1875 120.105469 418.84375 118.652344 416.789062 117.914062 C 414.171875 116.972656 411.621094 117.300781 409.347656 118.828125 C 405.050781 121.71875 402.371094 125.816406 401.203125 130.808594 C 400.371094 134.359375 402.636719 136.769531 406.320312 136.550781 C 407.179688 136.496094 408.03125 136.324219 409.253906 136.160156 C 409.035156 137.671875 409.519531 138.539062 410.78125 138.878906 Z M 314.949219 121.484375 C 314.601562 123.835938 314.492188 126.171875 315.625 128.375 C 316.511719 130.105469 317.964844 130.945312 319.59375 130.726562 C 321.292969 130.5 322.867188 129.175781 323.175781 127.441406 C 323.351562 126.476562 323.132812 125.433594 323.105469 124.429688 C 323.085938 123.753906 322.941406 123.035156 323.105469 122.40625 C 324.007812 118.972656 320.480469 114.820312 316.933594 115.566406 C 313.128906 116.371094 310.296875 118.679688 308.84375 122.40625 C 308.605469 123.007812 308.347656 123.792969 309.511719 124.328125 C 310.980469 122.433594 312.1875 119.957031 315.359375 119.777344 C 315.1875 120.460938 315.023438 120.960938 314.949219 121.484375 Z M 327.804688 133.089844 C 324.824219 134.808594 322.355469 137.089844 320.9375 140.285156 C 319.53125 143.460938 319.703125 146.570312 321.90625 149.363281 C 324.660156 152.871094 328.480469 153.691406 332.667969 153.253906 C 334.019531 153.117188 334.777344 152.066406 334.75 150.824219 C 334.734375 149.691406 333.992188 148.800781 332.777344 148.523438 C 332.246094 148.40625 331.679688 148.460938 331.140625 148.398438 C 330.289062 148.304688 329.410156 148.277344 328.582031 148.078125 C 325.351562 147.285156 323.925781 144.875 324.851562 141.679688 C 325.125 140.722656 325.5625 139.734375 326.183594 138.960938 C 327.402344 137.4375 328.789062 136.046875 330.117188 134.625 C 330.5625 134.140625 331.074219 133.703125 331.796875 133.007812 C 330.0625 132.03125 328.855469 132.480469 327.804688 133.089844 Z M 364.425781 100.425781 C 362.460938 100.835938 360.667969 101.621094 359.488281 103.339844 C 358.546875 104.707031 358.609375 106.222656 359.542969 107.253906 C 360.394531 108.195312 361.808594 108.394531 363.234375 107.71875 C 363.867188 107.417969 364.441406 106.988281 365.046875 106.632812 C 366.34375 105.867188 367.753906 105.683594 369.113281 106.257812 C 372.269531 107.589844 375.183594 109.261719 376.539062 112.695312 C 376.648438 112.984375 376.738281 113.351562 376.96875 113.515625 C 377.3125 113.769531 377.816406 114.070312 378.164062 113.980469 C 378.511719 113.898438 378.976562 113.359375 378.976562 113.023438 C 378.976562 112.265625 378.851562 111.453125 378.566406 110.757812 C 377.03125 107.035156 374.488281 104.097656 371.179688 101.832031 C 369.664062 100.792969 367.953125 100.234375 366.070312 100.308594 C 365.511719 100.335938 364.953125 100.316406 364.425781 100.425781 Z M 357.925781 138.914062 C 359.40625 138.921875 360.019531 138.441406 360.558594 136.597656 C 358.59375 136.460938 356.691406 136.332031 354.503906 136.175781 C 355.191406 138.222656 356.167969 138.90625 357.925781 138.914062 Z M 315.863281 133.285156 C 315.488281 133.183594 315.023438 133.375 314.601562 133.429688 C 314.738281 133.894531 314.738281 134.605469 315.042969 134.78125 C 315.890625 135.273438 316.851562 135.65625 317.8125 135.855469 C 318.625 136.03125 319.347656 135.65625 319.511719 134.460938 C 318.324219 134.066406 317.105469 133.621094 315.863281 133.285156 Z M 132.300781 161.421875 C 135.179688 161.039062 138.050781 160.589844 140.9375 160.261719 C 147.886719 159.46875 154.832031 158.730469 161.78125 157.953125 C 163.554688 157.753906 164.378906 157.121094 164.058594 156.238281 C 163.582031 154.894531 162.484375 155.269531 161.46875 155.425781 C 155.335938 156.320312 149.191406 157.167969 143.058594 158.082031 C 139.566406 158.601562 136.074219 159.175781 132.601562 159.796875 C 131.824219 159.933594 131.101562 160.34375 130.34375 160.628906 C 130.875 161.867188 131.632812 161.511719 132.300781 161.421875 Z M 134.675781 167.765625 C 143.761719 166.933594 152.851562 166.085938 161.925781 165.234375 C 162.394531 165.191406 162.898438 165.179688 163.308594 164.988281 C 163.609375 164.851562 164.039062 164.398438 163.992188 164.1875 C 163.902344 163.804688 163.546875 163.273438 163.214844 163.210938 C 162.539062 163.074219 161.808594 163.164062 161.113281 163.226562 C 154.933594 163.839844 148.746094 164.460938 142.566406 165.089844 C 139.988281 165.355469 137.402344 165.621094 134.832031 165.964844 C 133.898438 166.09375 132.785156 166.121094 132.300781 167.765625 C 133.304688 167.773438 134 167.828125 134.675781 167.765625 Z M 141.386719 205.867188 C 148.152344 204.984375 154.90625 203.980469 161.664062 203.003906 C 162.121094 202.9375 162.621094 202.839844 162.996094 202.601562 C 163.269531 202.429688 163.601562 201.90625 163.519531 201.679688 C 163.382812 201.324219 162.96875 200.921875 162.605469 200.820312 C 162.191406 200.710938 161.691406 200.902344 161.234375 200.996094 C 159.925781 201.25 158.636719 201.589844 157.320312 201.789062 C 150.957031 202.738281 144.585938 203.652344 138.222656 204.589844 C 137.566406 204.691406 136.761719 204.527344 136.359375 205.894531 C 138.175781 205.894531 139.804688 206.070312 141.386719 205.867188 Z M 141.386719 205.867188 " fill-opacity="1" fill-rule="nonzero"/></g></svg>