<svg xmlns="http://www.w3.org/2000/svg" xmlns:xlink="http://www.w3.org/1999/xlink" width="134" zoomAndPan="magnify" viewBox="0 0 100.5 100.499998" height="134" preserveAspectRatio="xMidYMid meet" version="1.0"><defs><clipPath id="af7015e39d"><path d="M 52 27 L 99.257812 27 L 99.257812 74 L 52 74 Z M 52 27 " clip-rule="nonzero"/></clipPath><clipPath id="8f23deeac6"><path d="M 3 0 L 50 0 L 50 100.003906 L 3 100.003906 Z M 3 0 " clip-rule="nonzero"/></clipPath></defs><path fill="#c6d8fb" d="M 63.125 7.828125 C 64.53125 6.59375 66.367188 3.523438 68.457031 5.480469 L 73.789062 10.820312 C 75.742188 12.917969 72.65625 14.773438 71.445312 16.164062 C 71.992188 17.203125 72.441406 18.277344 72.792969 19.414062 L 76.113281 19.414062 C 77.285156 19.414062 78.222656 20.371094 78.222656 21.527344 L 78.222656 28.257812 L 72.675781 28.257812 C 71.621094 28.257812 70.742188 29.121094 70.742188 30.195312 L 70.742188 33.230469 C 69.707031 33.542969 68.730469 33.972656 67.792969 34.460938 C 66.523438 33.347656 64.804688 30.527344 62.929688 32.308594 L 58.066406 37.183594 C 56.269531 39.0625 59.101562 40.804688 60.214844 42.054688 C 59.726562 42.996094 59.316406 43.992188 58.984375 45.011719 C 57.285156 45.128906 54.121094 44.324219 54.023438 46.949219 L 54.023438 49.550781 C 52.539062 49.414062 49.511719 50 48.691406 48.867188 L 48.691406 34.34375 C 55.351562 38.515625 64.726562 33.25 64.511719 25.285156 C 64.746094 17.339844 55.351562 12.054688 48.691406 16.222656 C 48.691406 13.25 48.769531 9.824219 47.5 6.671875 C 47.714844 6.59375 47.910156 6.535156 48.125 6.457031 L 48.125 3.132812 C 48.125 1.957031 49.082031 1.019531 50.234375 1.019531 L 57.753906 1.019531 C 58.925781 1.019531 59.863281 1.976562 59.863281 3.132812 L 59.863281 6.457031 C 60.996094 6.828125 62.089844 7.28125 63.125 7.828125 Z M 63.125 7.828125 " fill-opacity="1" fill-rule="evenodd"/><path fill="#428dff" d="M 54.003906 50.570312 C 52.265625 50.394531 48.144531 51.3125 47.65625 48.847656 C 47.65625 48.847656 47.65625 34.34375 47.65625 34.34375 C 47.65625 33.972656 47.851562 33.640625 48.183594 33.445312 C 48.496094 33.269531 48.90625 33.269531 49.21875 33.445312 C 50.664062 34.304688 52.324219 34.757812 54.023438 34.757812 C 59.238281 34.757812 63.496094 30.507812 63.496094 25.265625 C 63.496094 20.039062 59.257812 15.773438 54.023438 15.773438 C 52.324219 15.773438 50.664062 16.222656 49.21875 17.085938 C 48.90625 17.28125 48.515625 17.28125 48.183594 17.085938 C 47.519531 16.769531 47.675781 15.832031 47.65625 15.246094 C 47.65625 12.582031 47.578125 9.53125 46.542969 7.027344 C 46.328125 6.515625 46.582031 5.890625 47.089844 5.695312 L 47.089844 3.152344 C 47.089844 1.410156 48.496094 0 50.234375 0 L 57.753906 0 C 59.492188 0 60.898438 1.410156 60.898438 3.152344 L 60.898438 5.734375 C 61.582031 5.96875 62.246094 6.261719 62.910156 6.574219 L 64.726562 4.753906 C 65.917969 3.5625 67.988281 3.5625 69.179688 4.753906 L 74.511719 10.078125 C 75.722656 11.253906 75.722656 13.367188 74.511719 14.539062 L 72.695312 16.359375 C 73.007812 17.027344 73.28125 17.691406 73.535156 18.375 L 76.113281 18.375 C 77.851562 18.375 79.257812 19.785156 79.257812 21.527344 L 79.257812 28.257812 C 79.257812 28.828125 78.789062 29.296875 78.222656 29.296875 L 72.675781 29.296875 C 72.1875 29.296875 71.777344 29.707031 71.777344 30.195312 L 71.777344 33.230469 C 71.777344 33.679688 71.484375 34.070312 71.054688 34.207031 C 69.785156 34.324219 68.164062 36.085938 67.070312 35.1875 C 67.070312 35.1875 64.921875 33.035156 64.921875 33.035156 C 64.589844 32.703125 63.984375 32.703125 63.652344 33.035156 L 58.789062 37.90625 C 58.4375 38.257812 58.4375 38.828125 58.789062 39.179688 L 60.9375 41.332031 C 61.835938 42.445312 60.078125 44.070312 59.960938 45.324219 C 59.824219 45.753906 59.433594 46.046875 58.984375 46.046875 L 55.957031 46.046875 C 55.449219 46.046875 55.058594 46.460938 55.058594 46.949219 C 54.902344 48.296875 55.546875 50.550781 54.003906 50.570312 Z M 49.707031 48.375 C 50 48.652344 52.578125 48.476562 52.96875 48.515625 L 52.96875 46.949219 C 52.96875 45.304688 54.296875 43.992188 55.9375 43.992188 L 58.222656 43.992188 C 58.4375 43.40625 58.671875 42.839844 58.945312 42.269531 L 57.324219 40.648438 C 56.113281 39.433594 56.191406 37.457031 57.460938 36.320312 C 55.039062 37.085938 52.1875 37.007812 49.726562 36.027344 L 49.726562 48.375 Z M 64.257812 30.707031 C 65.761719 30.566406 66.992188 32.289062 67.96875 33.191406 C 68.535156 32.917969 69.101562 32.683594 69.6875 32.464844 L 69.6875 30.175781 C 69.6875 28.53125 71.015625 27.203125 72.636719 27.203125 L 77.167969 27.203125 L 77.167969 21.507812 C 77.167969 20.902344 76.679688 20.410156 76.074219 20.410156 L 72.753906 20.410156 C 72.304688 20.410156 71.914062 20.117188 71.777344 19.6875 C 71.445312 18.628906 71.015625 17.59375 70.507812 16.613281 C 70.292969 16.222656 70.371094 15.734375 70.683594 15.402344 L 73.027344 13.054688 C 73.4375 12.640625 73.457031 11.917969 73.027344 11.507812 L 67.734375 6.203125 C 67.324219 5.792969 66.601562 5.792969 66.191406 6.203125 L 63.847656 8.550781 C 62.773438 9.472656 60.878906 7.59375 59.570312 7.457031 C 59.140625 7.320312 58.847656 6.929688 58.847656 6.476562 L 58.847656 3.152344 C 58.847656 2.542969 58.359375 2.054688 57.753906 2.054688 L 50.234375 2.054688 C 49.628906 2.054688 49.140625 2.542969 49.140625 3.152344 C 49.042969 4.128906 49.414062 6.929688 48.789062 7.261719 C 49.550781 9.628906 49.6875 12.230469 49.707031 14.578125 C 59.511719 10.507812 69.257812 21.429688 64.179688 30.707031 C 64.199219 30.707031 64.238281 30.707031 64.257812 30.707031 Z M 64.257812 30.707031 " fill-opacity="1" fill-rule="nonzero"/><path fill="#428dff" d="M 54.003906 36.832031 C 51.953125 36.832031 49.921875 36.28125 48.164062 35.226562 C 47.851562 35.050781 47.65625 34.699219 47.65625 34.34375 L 47.65625 16.222656 C 47.65625 15.851562 47.851562 15.519531 48.164062 15.34375 C 49.921875 14.304688 51.953125 13.738281 54.003906 13.738281 C 60.351562 13.738281 65.527344 18.925781 65.527344 25.285156 C 65.527344 31.664062 60.351562 36.832031 54.003906 36.832031 Z M 49.707031 33.738281 C 55.78125 37.007812 63.632812 32.210938 63.457031 25.285156 C 63.613281 18.355469 55.761719 13.582031 49.707031 16.832031 Z M 49.707031 33.738281 " fill-opacity="1" fill-rule="nonzero"/><path fill="#c6d8fb" d="M 76.523438 72.527344 L 76.523438 75.5 C 76.523438 76.714844 75.546875 77.691406 74.335938 77.691406 L 70.898438 77.691406 C 70.527344 78.867188 70.058594 79.980469 69.511719 81.058594 C 70.78125 82.527344 73.964844 84.40625 71.933594 86.597656 L 66.425781 92.117188 C 64.238281 94.152344 62.363281 90.960938 60.898438 89.6875 C 59.824219 90.257812 58.710938 90.726562 57.539062 91.078125 L 57.539062 94.523438 C 57.539062 95.734375 56.5625 96.714844 55.351562 96.714844 L 47.558594 96.714844 C 46.796875 96.714844 46.132812 96.324219 45.742188 95.734375 C 47.480469 93.640625 48.632812 90.472656 48.691406 85.953125 L 48.691406 82.097656 C 57.5 84.601562 65.410156 74.855469 61.210938 66.734375 L 62.910156 68.4375 C 64.785156 70.238281 66.523438 67.398438 67.773438 66.285156 C 68.710938 66.773438 69.707031 67.183594 70.722656 67.515625 L 70.722656 70.550781 C 70.722656 71.605469 71.582031 72.488281 72.65625 72.488281 L 76.523438 72.488281 Z M 48.671875 61.058594 L 48.671875 46.460938 L 54.0625 46.460938 C 53.945312 46.222656 54.023438 53.757812 54.003906 53.835938 C 54.003906 54.894531 54.863281 55.773438 55.9375 55.773438 L 58.945312 55.773438 C 59.257812 56.8125 59.6875 57.789062 60.175781 58.730469 C 59.453125 59.628906 57.109375 61.15625 57.5 62.546875 C 55.078125 60.863281 51.621094 60.234375 48.671875 61.058594 Z M 48.671875 61.058594 " fill-opacity="1" fill-rule="evenodd"/><path fill="#428dff" d="M 55.351562 97.75 L 47.558594 97.75 C 46.289062 97.8125 44.042969 96.519531 44.941406 95.089844 C 47.5 92.488281 47.851562 86.402344 47.65625 82.136719 C 47.65625 81.820312 47.8125 81.507812 48.046875 81.3125 C 49.0625 80.765625 50.3125 81.644531 51.445312 81.449219 C 58.574219 81.605469 63.554688 73.542969 60.273438 67.222656 C 59.746094 66.226562 61.132812 65.207031 61.914062 66.027344 C 61.914062 66.027344 63.613281 67.730469 63.613281 67.730469 C 63.945312 68.0625 64.550781 68.0625 64.882812 67.730469 L 67.03125 65.578125 C 68.183594 64.679688 69.746094 66.441406 71.015625 66.558594 C 71.445312 66.695312 71.738281 67.085938 71.738281 67.535156 L 71.738281 70.570312 C 71.738281 71.078125 72.148438 71.46875 72.636719 71.46875 L 76.523438 71.46875 C 77.089844 71.46875 77.558594 71.9375 77.558594 72.507812 L 77.558594 75.480469 C 77.558594 77.261719 76.113281 78.710938 74.335938 78.710938 L 71.640625 78.710938 C 71.386719 79.433594 71.09375 80.140625 70.761719 80.84375 L 72.675781 82.761719 C 73.925781 84.015625 73.925781 86.070312 72.675781 87.320312 L 67.148438 92.859375 C 65.898438 94.113281 63.847656 94.113281 62.597656 92.859375 L 60.703125 90.941406 C 60.019531 91.273438 59.296875 91.566406 58.574219 91.820312 L 58.574219 94.523438 C 58.574219 96.304688 57.128906 97.75 55.351562 97.75 Z M 47.128906 95.617188 C 47.265625 95.675781 47.402344 95.695312 47.558594 95.695312 L 55.351562 95.695312 C 55.996094 95.695312 56.523438 95.167969 56.523438 94.523438 L 56.523438 91.078125 C 56.523438 90.628906 56.816406 90.238281 57.246094 90.101562 C 58.339844 89.746094 59.414062 89.316406 60.429688 88.769531 C 60.820312 88.554688 61.308594 88.632812 61.640625 88.945312 L 64.0625 91.371094 C 64.511719 91.820312 65.253906 91.820312 65.703125 91.371094 L 71.210938 85.851562 C 71.660156 85.402344 71.660156 84.660156 71.210938 84.210938 L 68.789062 81.78125 C 68.476562 81.46875 68.398438 80.980469 68.613281 80.570312 C 69.140625 79.550781 69.589844 78.476562 69.941406 77.378906 C 70.078125 76.949219 70.46875 76.65625 70.917969 76.65625 L 74.355469 76.65625 C 75.9375 76.65625 75.449219 74.542969 75.527344 73.542969 L 72.675781 73.542969 C 71.035156 73.542969 69.726562 72.214844 69.726562 70.570312 L 69.726562 68.28125 C 69.140625 68.0625 68.574219 67.828125 68.007812 67.554688 C 66.757812 68.847656 65.273438 70.667969 63.261719 69.863281 C 64.492188 77.613281 57.460938 84.621094 49.746094 83.367188 C 49.902344 87.652344 49.257812 92.820312 47.128906 95.617188 Z M 57.5 63.582031 C 54.882812 62.234375 51.933594 61.136719 48.925781 62.054688 C 48.28125 62.234375 47.617188 61.722656 47.636719 61.058594 L 47.636719 46.460938 C 47.636719 45.890625 48.105469 45.421875 48.671875 45.421875 L 54.0625 45.421875 C 54.863281 45.421875 55.253906 46.242188 55.019531 46.949219 L 55.019531 53.835938 C 55.019531 54.328125 55.429688 54.738281 55.917969 54.738281 L 58.945312 54.738281 C 59.394531 54.738281 59.785156 55.03125 59.921875 55.460938 C 60.039062 56.734375 61.777344 58.320312 60.898438 59.453125 C 60.898438 59.453125 58.75 61.605469 58.75 61.605469 C 58.554688 61.800781 58.457031 62.09375 58.496094 62.390625 C 58.632812 62.996094 58.105469 63.582031 57.5 63.582031 Z M 51.445312 59.667969 C 53.300781 59.667969 55.117188 60.097656 56.757812 60.921875 C 57.011719 60.296875 58.476562 59.023438 58.925781 58.535156 C 58.652344 57.964844 58.417969 57.398438 58.203125 56.8125 L 55.917969 56.8125 C 54.277344 56.8125 52.949219 55.480469 52.949219 53.855469 L 52.949219 47.515625 L 49.6875 47.515625 L 49.6875 59.824219 C 50.273438 59.707031 50.859375 59.667969 51.445312 59.667969 Z M 51.445312 59.667969 " fill-opacity="1" fill-rule="nonzero"/><g clip-path="url(#af7015e39d)"><path fill="#428dff" d="M 79.53125 73.5625 L 72.65625 73.5625 C 71.015625 73.5625 69.707031 72.234375 69.707031 70.589844 L 69.707031 68.300781 C 69.121094 68.082031 68.554688 67.847656 67.988281 67.574219 L 66.367188 69.199219 C 65.253906 70.316406 63.300781 70.316406 62.1875 69.199219 L 57.324219 64.328125 C 56.171875 63.171875 56.171875 61.292969 57.324219 60.136719 L 58.945312 58.515625 C 58.671875 57.945312 58.4375 57.378906 58.222656 56.792969 L 55.9375 56.792969 C 54.296875 56.792969 52.96875 55.460938 52.96875 53.835938 L 52.96875 46.949219 C 52.96875 45.304688 54.296875 43.992188 55.9375 43.992188 L 58.222656 43.992188 C 58.4375 43.40625 58.671875 42.839844 58.945312 42.269531 L 57.324219 40.648438 C 56.171875 39.492188 56.171875 37.613281 57.324219 36.457031 L 62.1875 31.585938 C 63.300781 30.46875 65.253906 30.46875 66.367188 31.585938 L 67.988281 33.210938 C 68.554688 32.9375 69.121094 32.703125 69.707031 32.484375 L 69.707031 30.195312 C 69.707031 28.550781 71.035156 27.222656 72.65625 27.222656 L 79.53125 27.222656 C 81.171875 27.222656 82.5 28.550781 82.5 30.195312 L 82.5 32.484375 C 83.085938 32.703125 83.652344 32.9375 84.21875 33.210938 L 85.839844 31.585938 C 86.953125 30.46875 88.90625 30.46875 90.019531 31.585938 L 94.882812 36.457031 C 96.035156 37.613281 96.035156 39.492188 94.882812 40.648438 L 93.261719 42.269531 C 93.535156 42.839844 93.769531 43.40625 93.984375 43.992188 L 96.25 43.992188 C 97.890625 43.992188 99.21875 45.324219 99.21875 46.949219 L 99.21875 53.835938 C 99.21875 55.480469 97.890625 56.792969 96.25 56.792969 L 93.964844 56.792969 C 93.75 57.378906 93.515625 57.945312 93.242188 58.515625 L 94.863281 60.136719 C 96.015625 61.292969 96.015625 63.171875 94.863281 64.328125 L 90 69.199219 C 88.886719 70.316406 86.933594 70.316406 85.820312 69.199219 L 84.199219 67.574219 C 83.632812 67.847656 83.066406 68.082031 82.480469 68.300781 L 82.480469 70.589844 C 82.480469 72.234375 81.152344 73.5625 79.53125 73.5625 Z M 67.773438 65.304688 C 68.886719 65.578125 69.902344 66.324219 71.035156 66.578125 C 71.464844 66.714844 71.757812 67.105469 71.757812 67.554688 L 71.757812 70.589844 C 71.757812 71.097656 72.167969 71.488281 72.65625 71.488281 L 79.53125 71.488281 C 80.039062 71.488281 80.429688 71.078125 80.429688 70.589844 L 80.429688 67.554688 C 80.429688 67.105469 80.722656 66.714844 81.152344 66.578125 C 82.421875 66.460938 84.003906 64.71875 85.136719 65.597656 C 85.136719 65.597656 87.285156 67.75 87.285156 67.75 C 87.617188 68.082031 88.222656 68.082031 88.554688 67.75 L 93.417969 62.878906 C 93.769531 62.527344 93.769531 61.957031 93.417969 61.605469 L 91.269531 59.453125 C 90.957031 59.140625 90.878906 58.652344 91.09375 58.238281 C 91.914062 57.242188 91.835938 54.855469 93.242188 54.71875 C 93.242188 54.71875 96.269531 54.71875 96.269531 54.71875 C 96.777344 54.71875 97.167969 54.304688 97.167969 53.816406 L 97.167969 46.929688 C 97.167969 46.441406 96.757812 46.027344 96.269531 46.027344 L 93.242188 46.027344 C 91.855469 45.910156 91.914062 43.503906 91.09375 42.507812 C 90.878906 42.113281 90.957031 41.625 91.269531 41.292969 L 93.417969 39.140625 C 93.769531 38.789062 93.769531 38.21875 93.417969 37.867188 L 88.554688 32.996094 C 88.222656 32.664062 87.617188 32.664062 87.285156 32.996094 L 85.136719 35.148438 C 84.042969 36.027344 82.402344 34.304688 81.152344 34.167969 C 80.722656 34.03125 80.429688 33.640625 80.429688 33.191406 L 80.429688 30.15625 C 80.429688 29.648438 80.019531 29.257812 79.53125 29.257812 L 72.65625 29.257812 C 72.167969 29.257812 71.757812 29.667969 71.757812 30.15625 L 71.757812 33.191406 C 71.757812 33.640625 71.464844 34.03125 71.035156 34.167969 C 69.765625 34.285156 68.144531 36.046875 67.050781 35.148438 C 67.050781 35.148438 64.902344 32.996094 64.902344 32.996094 C 64.570312 32.664062 63.964844 32.664062 63.632812 32.996094 L 58.769531 37.867188 C 58.417969 38.21875 58.417969 38.789062 58.769531 39.140625 L 60.917969 41.292969 C 61.230469 41.605469 61.308594 42.09375 61.09375 42.507812 C 60.273438 43.503906 60.351562 45.890625 58.945312 46.027344 C 58.945312 46.027344 55.917969 46.027344 55.917969 46.027344 C 55.410156 46.027344 55.019531 46.441406 55.019531 46.929688 L 55.019531 53.816406 C 55.019531 54.304688 55.429688 54.71875 55.917969 54.71875 L 58.945312 54.71875 C 59.394531 54.71875 59.785156 55.011719 59.921875 55.441406 C 60.039062 56.714844 61.777344 58.300781 60.898438 59.433594 C 60.898438 59.433594 58.75 61.585938 58.75 61.585938 C 58.398438 61.9375 58.398438 62.507812 58.75 62.859375 L 63.613281 67.730469 C 63.945312 68.0625 64.550781 68.0625 64.882812 67.730469 C 65.410156 67.359375 67.109375 65.167969 67.773438 65.304688 Z M 67.773438 65.304688 " fill-opacity="1" fill-rule="nonzero"/></g><path fill="#428dff" d="M 76.09375 61.019531 C 62.070312 60.570312 62.070312 40.214844 76.09375 39.765625 C 90.097656 40.214844 90.097656 60.570312 76.09375 61.019531 Z M 76.09375 41.820312 C 64.804688 42.171875 64.804688 58.59375 76.09375 58.945312 C 87.382812 58.59375 87.382812 42.191406 76.09375 41.820312 Z M 76.09375 41.820312 " fill-opacity="1" fill-rule="nonzero"/><g clip-path="url(#8f23deeac6)"><path fill="#428dff" d="M 38.769531 100.003906 C 34.394531 100.003906 30.136719 97.417969 28.242188 93.503906 C 19.121094 95.992188 13.066406 89.863281 12.1875 83.09375 C 4.667969 79.570312 3.007812 70.019531 8.457031 64.386719 C 0.15625 59.101562 2.050781 46.949219 9.882812 43.699219 C 4.902344 37.28125 6.894531 26.457031 14.21875 23.230469 C 16.40625 13.269531 23.984375 11.839844 26.757812 11.644531 C 27.070312 8.726562 28.769531 0.46875 38.046875 0.234375 C 41.582031 0.136719 44.316406 1.058594 46.25 2.953125 C 49.726562 6.339844 49.726562 12.171875 49.726562 15.304688 L 49.726562 85.992188 C 49.589844 94.464844 45.546875 99.925781 38.769531 100.003906 Z M 29.472656 91.058594 C 30.742188 95.519531 35.664062 98.632812 40.292969 97.8125 C 44.882812 96.988281 47.578125 92.683594 47.65625 85.972656 L 47.65625 15.304688 C 47.929688 8.589844 46.113281 1.78125 38.105469 2.289062 C 28.320312 2.835938 28.808594 12.445312 28.75 13.757812 C 27.246094 13.523438 17.988281 13.171875 16.015625 24.738281 C 7.65625 27.828125 7.207031 38.964844 13.554688 44.875 C 3.496094 45.949219 1.71875 60.257812 12.246094 63.992188 C 5 68.339844 5.859375 78.417969 14.121094 81.742188 C 14.648438 88.496094 19.765625 94.269531 29.472656 91.058594 Z M 29.472656 91.058594 " fill-opacity="1" fill-rule="nonzero"/></g><path fill="#428dff" d="M 43.085938 25.246094 C 39.277344 25.1875 36.328125 23.191406 33.632812 19.335938 C 33.320312 18.867188 33.4375 18.21875 33.90625 17.90625 C 34.375 17.59375 35.019531 17.710938 35.332031 18.179688 C 37.304688 21.078125 39.550781 22.742188 41.992188 23.113281 C 45.332031 23.621094 48.007812 21.546875 48.027344 21.527344 C 49.042969 20.683594 50.371094 22.328125 49.316406 23.132812 C 49.199219 23.230469 46.621094 25.246094 43.085938 25.246094 Z M 43.085938 25.246094 " fill-opacity="1" fill-rule="nonzero"/><path fill="#428dff" d="M 44.042969 58.359375 C 40.820312 58.300781 38.339844 56.636719 36.074219 53.386719 C 35.761719 52.917969 35.878906 52.269531 36.347656 51.957031 C 36.816406 51.644531 37.460938 51.761719 37.773438 52.230469 C 39.375 54.582031 41.191406 55.929688 43.164062 56.242188 C 45.820312 56.65625 48.007812 54.992188 48.027344 54.972656 C 49.0625 54.128906 50.371094 55.773438 49.316406 56.578125 C 49.21875 56.65625 47.03125 58.359375 44.042969 58.359375 Z M 44.042969 58.359375 " fill-opacity="1" fill-rule="nonzero"/><path fill="#428dff" d="M 40.214844 86.617188 C 39.375 86.636719 38.847656 85.558594 39.433594 84.933594 C 43.007812 80.667969 47.402344 81.800781 49.238281 82.996094 C 50.371094 83.699219 49.21875 85.460938 48.125 84.71875 C 47.949219 84.601562 44.277344 82.351562 41.015625 86.246094 C 40.800781 86.5 40.507812 86.617188 40.214844 86.617188 Z M 40.214844 86.617188 " fill-opacity="1" fill-rule="nonzero"/><path fill="#428dff" d="M 26.953125 69.960938 C 24.121094 69.960938 21.152344 68.925781 18.046875 66.890625 C 17.578125 66.578125 17.441406 65.929688 17.753906 65.460938 C 18.066406 64.992188 18.710938 64.855469 19.179688 65.167969 C 24.863281 69.355469 31.621094 68.359375 34.53125 63.972656 C 35.234375 62.859375 36.992188 63.992188 36.25 65.109375 C 36.152344 65.265625 33.808594 68.789062 29.21875 69.746094 C 28.496094 69.882812 27.734375 69.960938 26.953125 69.960938 Z M 26.953125 69.960938 " fill-opacity="1" fill-rule="nonzero"/><path fill="#428dff" d="M 28.144531 78.945312 C 27.597656 78.945312 27.128906 78.515625 27.109375 77.945312 C 26.914062 72.371094 25.195312 70.863281 21.035156 68.535156 C 19.863281 67.90625 20.878906 66.066406 22.03125 66.734375 C 26.308594 69.121094 28.925781 71.078125 29.160156 77.867188 C 29.199219 78.476562 28.730469 78.964844 28.144531 78.945312 Z M 28.144531 78.945312 " fill-opacity="1" fill-rule="nonzero"/><path fill="#428dff" d="M 31.289062 42.644531 C 30.449219 42.644531 29.609375 42.566406 28.789062 42.386719 C 23.769531 41.351562 21.210938 37.476562 21.113281 37.320312 C 20.371094 36.203125 22.109375 35.070312 22.832031 36.183594 C 26.09375 41.078125 33.613281 42.210938 39.921875 37.535156 C 40.390625 37.222656 41.035156 37.359375 41.347656 37.828125 C 41.660156 38.296875 41.523438 38.945312 41.054688 39.257812 C 37.65625 41.507812 34.375 42.644531 31.289062 42.644531 Z M 31.289062 42.644531 " fill-opacity="1" fill-rule="nonzero"/><path fill="#428dff" d="M 29.960938 52.585938 C 29.375 52.585938 28.90625 52.09375 28.925781 51.527344 C 29.179688 44.070312 32.050781 41.957031 36.738281 39.335938 C 37.910156 38.691406 38.90625 40.46875 37.734375 41.136719 C 33.105469 43.71875 31.191406 45.402344 30.976562 51.605469 C 30.976562 52.152344 30.527344 52.585938 29.960938 52.585938 Z M 29.960938 52.585938 " fill-opacity="1" fill-rule="nonzero"/><path fill="#428dff" d="M 10.234375 65.207031 C 0.0390625 61.078125 1.40625 47.164062 9.882812 43.679688 C 0.3125 30.449219 17.265625 12.660156 28.085938 28.925781 C 28.847656 30.019531 27.128906 31.195312 26.386719 30.078125 C 21.582031 22.445312 13.222656 22.722656 9.980469 30.726562 C 8.300781 35.03125 9.199219 39.824219 12.402344 43.542969 C 12.636719 43.816406 12.714844 44.207031 12.597656 44.542969 C 12.480469 44.894531 12.1875 45.148438 11.835938 45.226562 C 8.339844 45.96875 5.683594 49.199219 5.195312 53.25 C 4.804688 56.617188 6.035156 61 10.683594 63.230469 C 11.660156 63.660156 11.289062 65.246094 10.234375 65.207031 Z M 10.234375 65.207031 " fill-opacity="1" fill-rule="nonzero"/><path fill="#428dff" d="M 38.828125 99.984375 C 29.6875 99.6875 22.148438 90.082031 31.484375 79.199219 C 31.855469 78.769531 32.519531 78.730469 32.929688 79.101562 C 33.359375 79.472656 33.398438 80.140625 33.027344 80.550781 C 25.078125 88.75 31.054688 99.628906 41.074219 97.59375 C 45.175781 96.441406 47.578125 92.175781 47.636719 85.933594 C 47.675781 82.351562 47.65625 81.605469 47.65625 81.46875 C 47.558594 80.863281 48.066406 80.296875 48.671875 80.296875 C 49.785156 80.316406 49.765625 80.296875 49.707031 85.972656 C 49.570312 94.386719 45.703125 99.847656 38.828125 99.984375 Z M 38.828125 99.984375 " fill-opacity="1" fill-rule="nonzero"/><path fill="#428dff" d="M 24.0625 94.015625 C 16.894531 94.386719 12.65625 87.613281 12.1875 83.074219 C 3.183594 79.0625 3.027344 65.929688 11.503906 62.292969 C 17.011719 60.136719 18.789062 54.425781 18.808594 54.367188 C 19.179688 53.09375 21.171875 53.679688 20.78125 54.953125 C 20.703125 55.226562 18.710938 61.664062 12.265625 64.210938 C 6.015625 67.242188 4.667969 77.183594 13.59375 81.46875 C 13.925781 81.625 14.140625 81.9375 14.179688 82.3125 C 14.179688 82.371094 14.726562 87.671875 18.574219 90.355469 C 21.054688 92.097656 24.414062 92.410156 28.59375 91.292969 C 29.140625 91.136719 29.707031 91.46875 29.84375 92.019531 C 30 92.566406 29.667969 93.132812 29.121094 93.269531 C 27.304688 93.757812 25.625 94.015625 24.0625 94.015625 Z M 24.0625 94.015625 " fill-opacity="1" fill-rule="nonzero"/></svg>