<svg xmlns="http://www.w3.org/2000/svg" xmlns:xlink="http://www.w3.org/1999/xlink" width="195" zoomAndPan="magnify" viewBox="0 0 146.25 132.750001" height="177" preserveAspectRatio="xMidYMid meet" version="1.0"><defs><clipPath id="6b0642121c"><path d="M 0 0.214844 L 131 0.214844 L 131 132 L 0 132 Z M 0 0.214844 " clip-rule="nonzero"/></clipPath></defs><g clip-path="url(#6b0642121c)"><path fill="#c6d8fb" d="M 8.269531 12.675781 C 7.921875 12.730469 7.582031 12.804688 7.246094 12.902344 C 6.90625 12.996094 6.578125 13.109375 6.253906 13.242188 C 5.929688 13.371094 5.613281 13.523438 5.304688 13.691406 C 4.996094 13.859375 4.699219 14.042969 4.414062 14.242188 C 4.125 14.441406 3.851562 14.660156 3.589844 14.890625 C 3.328125 15.121094 3.078125 15.367188 2.84375 15.628906 C 2.609375 15.886719 2.390625 16.160156 2.183594 16.445312 C 1.980469 16.726562 1.792969 17.023438 1.621094 17.328125 C 1.449219 17.632812 1.296875 17.949219 1.160156 18.269531 C 1.023438 18.59375 0.90625 18.921875 0.808594 19.257812 C 0.707031 19.59375 0.628906 19.933594 0.566406 20.28125 C 0.507812 20.625 0.464844 20.972656 0.445312 21.320312 C 0.421875 21.671875 0.421875 22.019531 0.4375 22.371094 C 0.457031 22.71875 0.492188 23.066406 0.550781 23.414062 C 0.605469 23.757812 0.679688 24.097656 0.777344 24.4375 C 0.871094 24.773438 0.984375 25.105469 1.117188 25.429688 L 39.460938 119.574219 C 42.542969 127.144531 51.1875 132.277344 58.773438 131.035156 C 66.355469 129.796875 70.003906 122.65625 66.921875 115.089844 L 130.390625 104.722656 L 90.433594 6.613281 C 90.234375 6.125 90 5.660156 89.722656 5.210938 C 89.445312 4.765625 89.132812 4.34375 88.785156 3.953125 C 88.4375 3.558594 88.058594 3.195312 87.648438 2.863281 C 87.238281 2.535156 86.804688 2.242188 86.347656 1.984375 C 85.890625 1.726562 85.414062 1.511719 84.917969 1.332031 C 84.421875 1.15625 83.917969 1.023438 83.398438 0.929688 C 82.882812 0.839844 82.359375 0.792969 81.832031 0.789062 C 81.308594 0.785156 80.785156 0.828125 80.265625 0.910156 Z M 8.269531 12.675781 " fill-opacity="1" fill-rule="nonzero"/></g><path fill="#8ab7e2" d="M 67.878906 111.886719 C 67.699219 111.917969 67.527344 111.96875 67.359375 112.039062 C 67.191406 112.105469 67.03125 112.195312 66.882812 112.300781 C 66.734375 112.40625 66.601562 112.523438 66.480469 112.660156 C 66.359375 112.796875 66.253906 112.945312 66.167969 113.101562 C 66.078125 113.261719 66.011719 113.429688 65.960938 113.605469 C 65.910156 113.777344 65.882812 113.957031 65.871094 114.136719 C 65.863281 114.320312 65.875 114.5 65.90625 114.679688 C 65.9375 114.859375 65.988281 115.03125 66.058594 115.199219 L 66.070312 115.226562 C 69.152344 122.796875 65.503906 129.9375 57.917969 131.175781 L 135.117188 118.5625 L 135.101562 118.523438 C 142.019531 116.855469 145.230469 110.015625 142.28125 102.777344 C 142.109375 102.355469 141.917969 101.9375 141.710938 101.53125 C 141.476562 101.0625 141.125 100.707031 140.65625 100.46875 C 140.1875 100.234375 139.695312 100.15625 139.179688 100.238281 Z M 67.878906 111.886719 " fill-opacity="1" fill-rule="nonzero"/><path fill="#8ab7e2" d="M 24.777344 50.144531 L 16.0625 28.738281 L 37.699219 25.203125 L 46.417969 46.609375 Z M 20.433594 31.1875 L 26.734375 46.660156 L 42.046875 44.160156 L 35.746094 28.6875 Z M 20.433594 31.1875 " fill-opacity="1" fill-rule="nonzero"/><path fill="#8ab7e2" d="M 48.210938 29.359375 L 83.773438 23.550781 L 84.277344 26.632812 L 48.714844 32.441406 Z M 48.210938 29.359375 " fill-opacity="1" fill-rule="nonzero"/><path fill="#8ab7e2" d="M 51.605469 37.695312 L 87.167969 31.886719 L 87.671875 34.96875 L 52.109375 40.777344 Z M 51.605469 37.695312 " fill-opacity="1" fill-rule="nonzero"/><path fill="#8ab7e2" d="M 35.203125 75.742188 L 26.484375 54.335938 L 48.125 50.800781 L 56.84375 72.207031 Z M 30.855469 56.785156 L 37.15625 72.257812 L 52.472656 69.753906 L 46.171875 54.285156 Z M 30.855469 56.785156 " fill-opacity="1" fill-rule="nonzero"/><path fill="#8ab7e2" d="M 58.632812 54.953125 L 94.195312 49.144531 L 94.699219 52.230469 L 59.136719 58.039062 Z M 58.632812 54.953125 " fill-opacity="1" fill-rule="nonzero"/><path fill="#8ab7e2" d="M 62.03125 63.292969 L 97.59375 57.484375 L 98.097656 60.566406 L 62.535156 66.375 Z M 62.03125 63.292969 " fill-opacity="1" fill-rule="nonzero"/><path fill="#8ab7e2" d="M 45.628906 101.339844 L 36.910156 79.929688 L 58.550781 76.394531 L 67.269531 97.804688 Z M 41.28125 82.382812 L 47.582031 97.855469 L 62.898438 95.351562 L 56.59375 79.878906 Z M 41.28125 82.382812 " fill-opacity="1" fill-rule="nonzero"/><path fill="#8ab7e2" d="M 69.058594 80.550781 L 104.621094 74.742188 L 105.125 77.824219 L 69.5625 83.632812 Z M 69.058594 80.550781 " fill-opacity="1" fill-rule="nonzero"/><path fill="#8ab7e2" d="M 72.453125 88.890625 L 108.015625 83.082031 L 108.519531 86.164062 L 72.957031 91.972656 Z M 72.453125 88.890625 " fill-opacity="1" fill-rule="nonzero"/></svg>