<svg xmlns="http://www.w3.org/2000/svg" xmlns:xlink="http://www.w3.org/1999/xlink" width="137" zoomAndPan="magnify" viewBox="0 0 102.75 146.249994" height="195" preserveAspectRatio="xMidYMid meet" version="1.0"><defs><clipPath id="0a4ae11331"><path d="M 39 0 L 101.617188 0 L 101.617188 58 L 39 58 Z M 39 0 " clip-rule="nonzero"/></clipPath></defs><path fill="#c6d8fb" d="M 90.519531 1.300781 L 50.164062 1.300781 C 44.613281 1.300781 40.164062 5.972656 40.355469 11.476562 C 66.839844 11.007812 80.382812 35.292969 54.3125 45.851562 L 63.046875 45.851562 C 63.515625 45.851562 63.898438 45.992188 64.285156 46.238281 L 78.402344 56.136719 C 79.75 57.15625 81.867188 56.054688 81.78125 54.378906 L 81.78125 47.996094 C 81.78125 46.816406 82.746094 45.851562 83.925781 45.851562 L 90.492188 45.851562 C 95.875 45.851562 100.296875 41.425781 100.296875 36.035156 L 100.296875 11.117188 C 100.296875 5.726562 95.902344 1.300781 90.519531 1.300781 Z M 90.519531 1.300781 " fill-opacity="1" fill-rule="evenodd"/><g clip-path="url(#0a4ae11331)"><path fill="#428dff" d="M 79.640625 57.789062 C 78.953125 57.789062 78.292969 57.570312 77.71875 57.15625 L 63.597656 47.253906 C 63.433594 47.144531 63.265625 47.089844 63.074219 47.089844 L 54.339844 47.089844 C 53.019531 47.117188 52.636719 45.136719 53.898438 44.699219 C 62.058594 41.617188 67.140625 35.925781 67.140625 29.875 C 67.140625 20.414062 55.273438 12.738281 40.714844 12.738281 L 40.410156 12.738281 C 40.054688 12.824219 39.75 12.601562 39.53125 12.382812 C 39.175781 12.078125 39.148438 11.585938 39.175781 11.144531 C 39.175781 5.039062 44.121094 0.0898438 50.21875 0.0898438 L 90.574219 0.0898438 C 96.671875 0.0898438 101.617188 5.039062 101.617188 11.144531 L 101.617188 36.0625 C 101.617188 42.167969 96.671875 47.117188 90.574219 47.117188 L 84.007812 47.117188 C 83.511719 47.117188 83.101562 47.53125 83.101562 48.027344 L 83.101562 54.378906 C 83.074219 56.222656 81.453125 57.816406 79.640625 57.789062 Z M 59.75 44.613281 C 61.152344 44.671875 63.816406 44.285156 64.96875 45.21875 C 64.96875 45.21875 79.089844 55.121094 79.089844 55.121094 C 79.667969 55.5625 80.574219 55.09375 80.519531 54.378906 L 80.519531 47.996094 C 80.519531 46.128906 82.03125 44.613281 83.898438 44.613281 L 90.464844 44.613281 C 95.1875 44.613281 99.035156 40.765625 99.035156 36.035156 L 99.035156 11.117188 C 99.035156 6.386719 95.1875 2.535156 90.464844 2.535156 L 50.164062 2.535156 C 45.742188 2.535156 42.058594 5.917969 41.648438 10.265625 C 65.246094 10.375 80.65625 31.550781 59.75 44.613281 Z M 59.75 44.613281 " fill-opacity="1" fill-rule="nonzero"/></g><path fill="#428dff" d="M 25.988281 56.027344 C 24.039062 56.054688 22.308594 54.351562 22.363281 52.398438 L 22.363281 45.332031 C 22.363281 45.246094 22.363281 45.136719 22.335938 45.054688 C 0.136719 32.210938 16.015625 9.796875 40.6875 10.265625 C 56.617188 10.265625 69.585938 19.066406 69.585938 29.875 C 70.082031 41.835938 52.472656 51.214844 36.730469 49.316406 L 28.078125 55.394531 C 27.417969 55.808594 26.703125 56.027344 25.988281 56.027344 Z M 40.65625 12.710938 C 19.917969 12.246094 4.175781 29.625 21.867188 41.890625 C 23.242188 42.773438 24.945312 43.296875 24.808594 45.304688 C 24.808594 45.304688 24.808594 52.371094 24.808594 52.371094 C 24.753906 53.277344 25.90625 53.882812 26.621094 53.304688 L 35.660156 46.980469 C 37.195312 46.457031 39.011719 47.171875 40.65625 46.980469 C 75.738281 46.074219 75.738281 13.675781 40.65625 12.710938 Z M 40.65625 12.710938 " fill-opacity="1" fill-rule="nonzero"/><path fill="#428dff" d="M 76.867188 94.0625 C 76.207031 94.0625 75.628906 93.515625 75.628906 92.855469 C 75.601562 90.984375 75.355469 89.113281 74.859375 87.269531 L 71.699219 75.417969 C 71.507812 74.785156 71.921875 74.070312 72.578125 73.90625 C 81.152344 71.429688 87.414062 92.578125 76.867188 94.0625 Z M 74.476562 76.296875 C 75.246094 79.542969 77.910156 87.929688 78.019531 91.175781 C 82.277344 87.546875 78.898438 77.453125 74.476562 76.296875 Z M 74.476562 76.296875 " fill-opacity="1" fill-rule="nonzero"/><path fill="#428dff" d="M 30.519531 106.46875 C 27.167969 106.46875 23.789062 103.058594 22.472656 98.078125 C 20.90625 92.46875 22.910156 85.921875 27.363281 86.417969 C 27.636719 86.582031 27.855469 86.859375 27.9375 87.160156 L 31.097656 99.015625 C 31.398438 101.160156 33.242188 103.386719 33.324219 105.175781 C 32.9375 106.246094 31.484375 106.386719 30.519531 106.46875 Z M 25.933594 89.335938 C 22.363281 92.441406 25.519531 103.71875 30.300781 103.992188 C 28.789062 101.160156 26.867188 92.46875 25.933594 89.335938 Z M 25.933594 89.335938 " fill-opacity="1" fill-rule="nonzero"/><path fill="#428dff" d="M 52.085938 117.414062 C 46.867188 117.386719 47.25 109.574219 44.039062 106.878906 C 41.785156 106.933594 42.277344 108.585938 43.324219 113.34375 C 43.324219 113.34375 43.542969 114.25 43.542969 114.25 C 43.789062 115.242188 42.691406 116.121094 41.785156 115.625 C 35.328125 112.410156 30.574219 106.578125 28.707031 99.648438 L 25.410156 87.382812 C 21.648438 74.457031 30.109375 59.769531 43.183594 56.578125 C 56.097656 52.8125 70.765625 61.28125 73.953125 74.371094 C 73.953125 74.371094 77.25 86.640625 77.25 86.640625 C 78.980469 93.074219 78.074219 99.8125 74.75 105.644531 C 74.0625 106.742188 72.746094 106.246094 72.359375 105.175781 C 71.726562 104.460938 70.820312 104.570312 69.667969 105.449219 C 68.761719 106.136719 65.933594 108.421875 63.046875 110.757812 C 58.84375 113.839844 56.398438 117.222656 52.085938 117.414062 Z M 43.816406 104.351562 C 46.070312 104.378906 47.140625 106.46875 48.019531 108.503906 C 49.203125 110.59375 49.695312 113.671875 51.480469 114.855469 C 54.695312 115.488281 57.855469 111.472656 61.507812 108.832031 C 64.421875 106.496094 67.277344 104.183594 68.183594 103.496094 C 70.328125 101.875 72.195312 102.039062 73.460938 102.863281 C 75.765625 97.996094 76.289062 92.523438 74.886719 87.300781 L 71.589844 75.03125 C 68.707031 63.234375 55.492188 55.617188 43.84375 59 C 32.085938 61.886719 24.449219 75.117188 27.828125 86.777344 C 27.828125 86.777344 31.125 99.042969 31.125 99.042969 C 32.554688 104.40625 35.933594 109.027344 40.519531 112.078125 C 39.394531 107.789062 39.945312 104.679688 43.816406 104.351562 Z M 43.515625 57.761719 Z M 43.515625 57.761719 " fill-opacity="1" fill-rule="nonzero"/><path fill="#428dff" d="M 42.5 92 C 41.949219 92 41.453125 91.644531 41.316406 91.09375 L 40.164062 86.777344 C 40 86.117188 40.382812 85.429688 41.042969 85.261719 C 41.703125 85.097656 42.390625 85.484375 42.554688 86.144531 L 43.707031 90.460938 C 43.925781 91.203125 43.296875 92 42.5 92 Z M 42.5 92 " fill-opacity="1" fill-rule="nonzero"/><path fill="#428dff" d="M 65.21875 85.921875 C 64.667969 85.921875 64.171875 85.566406 64.035156 85.015625 L 62.882812 80.699219 C 62.71875 80.039062 63.101562 79.351562 63.761719 79.1875 C 64.449219 79.019531 65.109375 79.40625 65.273438 80.066406 L 66.425781 84.382812 C 66.644531 85.125 66.015625 85.921875 65.21875 85.921875 Z M 65.21875 85.921875 " fill-opacity="1" fill-rule="nonzero"/><path fill="#428dff" d="M 50.027344 140.570312 C 42.691406 140.984375 39.230469 133.089844 40.519531 127.316406 C 41.261719 122.914062 42.472656 120.523438 41.289062 115.460938 C 40.328125 111.226562 38.679688 106.136719 42.113281 104.789062 C 45.054688 103.304688 47.03125 105.835938 48.046875 108.503906 C 49.230469 110.59375 49.722656 113.671875 51.507812 114.855469 C 52.003906 115.019531 53.15625 115.105469 55.136719 113.949219 C 57.691406 111.941406 66.125 105.066406 68.210938 103.46875 C 72.578125 100.003906 77.964844 104.625 73.210938 109.191406 L 64.53125 117.882812 C 65.820312 118.429688 66.644531 120.714844 66.535156 121.898438 C 67.800781 122.253906 68.898438 124.535156 68.734375 125.773438 C 71.785156 128.003906 69.339844 131.933594 66.730469 133.640625 C 64.585938 135.457031 57.882812 140.570312 50.027344 140.570312 Z M 43.816406 106.824219 C 41.371094 106.742188 42.910156 111.28125 43.679688 114.910156 C 44.972656 120.632812 43.734375 123.078125 42.9375 127.753906 C 41.125 144.667969 60.082031 136.832031 65.136719 131.742188 C 67.058594 130.257812 68.347656 128.71875 67.222656 127.835938 C 66.371094 127.78125 65.765625 126.765625 66.207031 126.023438 C 66.207031 126.023438 66.371094 125.554688 65.988281 124.730469 C 65.738281 124.179688 65.382812 124.152344 65.191406 124.152344 C 64.285156 124.261719 63.570312 123.21875 63.953125 122.417969 C 63.953125 122.417969 64.257812 121.648438 63.734375 120.578125 C 63.347656 119.777344 62.222656 119.917969 62.195312 119.945312 C 61.070312 120.164062 60.300781 118.625 61.152344 117.855469 L 71.480469 107.511719 C 74.089844 105.011719 71.480469 103.964844 69.695312 105.503906 C 68.789062 106.191406 65.960938 108.476562 63.074219 110.8125 C 58.433594 114.332031 52.5 121.152344 48.40625 115.242188 C 47.03125 113.070312 46.015625 108.613281 44.066406 106.964844 C 43.980469 106.851562 43.925781 106.824219 43.816406 106.824219 Z M 55.796875 114.964844 Z M 55.796875 114.964844 " fill-opacity="1" fill-rule="nonzero"/><path fill="#428dff" d="M 29.945312 30.890625 C 28.324219 30.890625 28.351562 28.417969 29.945312 28.390625 C 31.566406 28.390625 31.539062 30.890625 29.945312 30.890625 Z M 29.945312 30.890625 " fill-opacity="1" fill-rule="nonzero"/><path fill="#428dff" d="M 40.65625 30.890625 C 39.039062 30.890625 39.066406 28.417969 40.65625 28.390625 C 42.304688 28.390625 42.277344 30.890625 40.65625 30.890625 Z M 40.65625 30.890625 " fill-opacity="1" fill-rule="nonzero"/><path fill="#428dff" d="M 51.398438 30.890625 C 49.777344 30.890625 49.804688 28.417969 51.398438 28.390625 C 53.046875 28.390625 53.019531 30.890625 51.398438 30.890625 Z M 51.398438 30.890625 " fill-opacity="1" fill-rule="nonzero"/></svg>