<svg xmlns="http://www.w3.org/2000/svg" xmlns:xlink="http://www.w3.org/1999/xlink" width="272" zoomAndPan="magnify" viewBox="0 0 204 372.749986" height="497" preserveAspectRatio="xMidYMid meet" version="1.0"><defs><filter x="0%" y="0%" width="100%" height="100%" id="7d647c4593"><feColorMatrix values="0 0 0 0 1 0 0 0 0 1 0 0 0 0 1 0 0 0 1 0" color-interpolation-filters="sRGB"/></filter><clipPath id="16ac3572a2"><path d="M 0.0703125 0 L 203.929688 0 L 203.929688 372.5 L 0.0703125 372.5 Z M 0.0703125 0 " clip-rule="nonzero"/></clipPath><mask id="6bf293be28"><g filter="url(#7d647c4593)"><rect x="-20.4" width="244.8" fill="#000000" y="-37.274999" height="447.299983" fill-opacity="0.45"/></g></mask><clipPath id="450235bc67"><path d="M 0.0703125 0 L 203.578125 0 L 203.578125 371.753906 L 0.0703125 371.753906 Z M 0.0703125 0 " clip-rule="nonzero"/></clipPath><clipPath id="4fa1abc78a"><rect x="0" width="204" y="0" height="373"/></clipPath></defs><g clip-path="url(#16ac3572a2)"><g mask="url(#6bf293be28)"><g transform="matrix(1, 0, 0, 1, 0.000000000000000014, 0)"><g clip-path="url(#4fa1abc78a)"><g clip-path="url(#450235bc67)"><path fill="#000000" d="M 199.460938 8.054688 C 198.953125 8.054688 198.46875 7.957031 198 7.761719 C 197.53125 7.566406 197.117188 7.292969 196.757812 6.933594 C 196.398438 6.574219 196.125 6.164062 195.929688 5.695312 C 195.734375 5.226562 195.640625 4.742188 195.640625 4.234375 C 195.640625 3.726562 195.738281 3.242188 195.933594 2.773438 C 196.125 2.304688 196.402344 1.894531 196.761719 1.535156 C 197.121094 1.179688 197.535156 0.902344 198.003906 0.710938 C 198.472656 0.515625 198.960938 0.421875 199.46875 0.421875 C 199.976562 0.421875 200.464844 0.519531 200.933594 0.714844 C 201.398438 0.910156 201.8125 1.1875 202.171875 1.546875 C 202.527344 1.902344 202.804688 2.316406 202.996094 2.785156 C 203.191406 3.253906 203.285156 3.742188 203.285156 4.246094 C 203.285156 4.753906 203.1875 5.238281 202.992188 5.703125 C 202.796875 6.171875 202.519531 6.582031 202.164062 6.9375 C 201.804688 7.296875 201.390625 7.570312 200.921875 7.761719 C 200.457031 7.957031 199.96875 8.054688 199.460938 8.054688 Z M 203.285156 44.605469 C 203.285156 44.097656 203.191406 43.613281 202.996094 43.144531 C 202.804688 42.675781 202.527344 42.261719 202.171875 41.902344 C 201.8125 41.542969 201.398438 41.269531 200.933594 41.074219 C 200.464844 40.878906 199.976562 40.78125 199.46875 40.78125 C 198.960938 40.777344 198.472656 40.875 198.003906 41.066406 C 197.535156 41.261719 197.121094 41.535156 196.761719 41.894531 C 196.402344 42.25 196.125 42.664062 195.933594 43.132812 C 195.738281 43.597656 195.640625 44.085938 195.640625 44.59375 C 195.640625 45.097656 195.734375 45.585938 195.929688 46.054688 C 196.125 46.519531 196.398438 46.933594 196.757812 47.292969 C 197.117188 47.648438 197.53125 47.925781 198 48.121094 C 198.46875 48.3125 198.953125 48.410156 199.460938 48.410156 C 199.96875 48.410156 200.457031 48.3125 200.921875 48.121094 C 201.390625 47.929688 201.804688 47.652344 202.164062 47.296875 C 202.519531 46.941406 202.796875 46.527344 202.992188 46.0625 C 203.1875 45.597656 203.285156 45.109375 203.285156 44.605469 Z M 203.285156 84.953125 C 203.285156 84.445312 203.1875 83.960938 202.996094 83.492188 C 202.800781 83.027344 202.523438 82.613281 202.164062 82.253906 C 201.808594 81.898438 201.394531 81.621094 200.925781 81.429688 C 200.457031 81.234375 199.96875 81.136719 199.460938 81.136719 C 198.957031 81.136719 198.46875 81.234375 198 81.429688 C 197.53125 81.621094 197.117188 81.898438 196.757812 82.253906 C 196.402344 82.613281 196.125 83.027344 195.929688 83.492188 C 195.734375 83.960938 195.640625 84.445312 195.640625 84.953125 C 195.640625 85.460938 195.734375 85.945312 195.929688 86.414062 C 196.125 86.878906 196.402344 87.292969 196.757812 87.652344 C 197.117188 88.007812 197.53125 88.285156 198 88.476562 C 198.46875 88.671875 198.957031 88.769531 199.460938 88.769531 C 199.96875 88.769531 200.457031 88.671875 200.925781 88.476562 C 201.394531 88.285156 201.808594 88.007812 202.164062 87.652344 C 202.523438 87.292969 202.800781 86.878906 202.996094 86.414062 C 203.1875 85.945312 203.285156 85.460938 203.285156 84.953125 Z M 203.285156 125.332031 C 203.285156 124.824219 203.1875 124.335938 202.996094 123.871094 C 202.800781 123.402344 202.523438 122.992188 202.164062 122.632812 C 201.808594 122.273438 201.394531 122 200.925781 121.804688 C 200.457031 121.613281 199.96875 121.515625 199.460938 121.515625 C 198.957031 121.515625 198.46875 121.613281 198 121.804688 C 197.53125 122 197.117188 122.273438 196.757812 122.632812 C 196.402344 122.992188 196.125 123.402344 195.929688 123.871094 C 195.734375 124.335938 195.640625 124.824219 195.640625 125.332031 C 195.640625 125.835938 195.734375 126.324219 195.929688 126.789062 C 196.125 127.257812 196.402344 127.671875 196.757812 128.027344 C 197.117188 128.386719 197.53125 128.660156 198 128.855469 C 198.46875 129.050781 198.957031 129.144531 199.460938 129.144531 C 199.96875 129.144531 200.457031 129.050781 200.925781 128.855469 C 201.394531 128.660156 201.808594 128.386719 202.164062 128.027344 C 202.523438 127.671875 202.800781 127.257812 202.996094 126.789062 C 203.1875 126.324219 203.285156 125.835938 203.285156 125.332031 Z M 203.285156 165.6875 C 203.285156 165.183594 203.1875 164.695312 202.996094 164.226562 C 202.800781 163.761719 202.523438 163.347656 202.164062 162.992188 C 201.808594 162.632812 201.394531 162.355469 200.925781 162.164062 C 200.457031 161.96875 199.96875 161.871094 199.460938 161.875 C 198.957031 161.871094 198.46875 161.96875 198 162.164062 C 197.53125 162.355469 197.117188 162.632812 196.757812 162.992188 C 196.402344 163.347656 196.125 163.761719 195.929688 164.226562 C 195.734375 164.695312 195.640625 165.183594 195.640625 165.6875 C 195.640625 166.195312 195.734375 166.679688 195.929688 167.148438 C 196.125 167.617188 196.402344 168.027344 196.757812 168.386719 C 197.117188 168.742188 197.53125 169.019531 198 169.214844 C 198.46875 169.40625 198.957031 169.503906 199.460938 169.503906 C 199.972656 169.503906 200.460938 169.40625 200.929688 169.210938 C 201.398438 169.015625 201.8125 168.738281 202.171875 168.378906 C 202.53125 168.019531 202.808594 167.605469 203 167.136719 C 203.191406 166.664062 203.289062 166.175781 203.285156 165.667969 Z M 203.285156 206.027344 C 203.285156 205.519531 203.191406 205.03125 202.996094 204.566406 C 202.804688 204.097656 202.527344 203.683594 202.171875 203.324219 C 201.8125 202.964844 201.398438 202.6875 200.933594 202.496094 C 200.464844 202.300781 199.976562 202.203125 199.46875 202.203125 C 198.960938 202.199219 198.472656 202.296875 198.003906 202.488281 C 197.535156 202.683594 197.121094 202.957031 196.761719 203.316406 C 196.402344 203.671875 196.125 204.085938 195.933594 204.554688 C 195.738281 205.019531 195.640625 205.507812 195.640625 206.011719 C 195.640625 206.519531 195.734375 207.007812 195.929688 207.472656 C 196.125 207.941406 196.398438 208.355469 196.757812 208.714844 C 197.117188 209.070312 197.53125 209.347656 198 209.542969 C 198.46875 209.734375 198.953125 209.832031 199.460938 209.832031 C 199.96875 209.832031 200.457031 209.734375 200.921875 209.542969 C 201.390625 209.351562 201.804688 209.074219 202.164062 208.71875 C 202.519531 208.363281 202.796875 207.949219 202.992188 207.484375 C 203.1875 207.015625 203.285156 206.53125 203.285156 206.027344 Z M 203.285156 246.382812 C 203.28125 245.878906 203.179688 245.394531 202.984375 244.929688 C 202.785156 244.464844 202.507812 244.054688 202.148438 243.699219 C 201.789062 243.34375 201.375 243.070312 200.90625 242.878906 C 200.4375 242.691406 199.949219 242.597656 199.441406 242.597656 C 198.9375 242.601562 198.449219 242.699219 197.984375 242.894531 C 197.515625 243.089844 197.105469 243.367188 196.75 243.726562 C 196.390625 244.085938 196.117188 244.496094 195.925781 244.964844 C 195.734375 245.433594 195.636719 245.917969 195.640625 246.421875 C 195.640625 246.929688 195.738281 247.414062 195.933594 247.878906 C 196.128906 248.347656 196.402344 248.757812 196.761719 249.113281 C 197.121094 249.472656 197.535156 249.746094 198 249.9375 C 198.46875 250.132812 198.957031 250.230469 199.460938 250.230469 C 199.972656 250.230469 200.460938 250.132812 200.933594 249.9375 C 201.402344 249.742188 201.816406 249.460938 202.175781 249.101562 C 202.535156 248.738281 202.808594 248.324219 203.003906 247.851562 C 203.195312 247.382812 203.289062 246.894531 203.285156 246.382812 Z M 203.285156 286.734375 C 203.285156 286.226562 203.1875 285.738281 202.996094 285.273438 C 202.800781 284.804688 202.523438 284.390625 202.164062 284.035156 C 201.808594 283.675781 201.394531 283.402344 200.925781 283.207031 C 200.457031 283.015625 199.96875 282.917969 199.460938 282.917969 C 198.957031 282.917969 198.46875 283.015625 198 283.207031 C 197.53125 283.402344 197.117188 283.675781 196.757812 284.035156 C 196.402344 284.390625 196.125 284.804688 195.929688 285.273438 C 195.734375 285.738281 195.640625 286.226562 195.640625 286.734375 C 195.640625 287.238281 195.734375 287.726562 195.929688 288.191406 C 196.125 288.660156 196.402344 289.074219 196.757812 289.429688 C 197.117188 289.789062 197.53125 290.0625 198 290.257812 C 198.46875 290.449219 198.957031 290.546875 199.460938 290.546875 C 199.96875 290.546875 200.457031 290.449219 200.925781 290.257812 C 201.394531 290.0625 201.808594 289.789062 202.164062 289.429688 C 202.523438 289.074219 202.800781 288.660156 202.996094 288.191406 C 203.1875 287.726562 203.285156 287.238281 203.285156 286.734375 Z M 203.285156 327.089844 C 203.285156 326.585938 203.1875 326.097656 202.996094 325.628906 C 202.800781 325.164062 202.523438 324.75 202.164062 324.390625 C 201.808594 324.035156 201.394531 323.757812 200.925781 323.566406 C 200.457031 323.371094 199.96875 323.273438 199.460938 323.273438 C 198.957031 323.273438 198.46875 323.371094 198 323.566406 C 197.53125 323.757812 197.117188 324.035156 196.757812 324.390625 C 196.402344 324.75 196.125 325.164062 195.929688 325.628906 C 195.734375 326.097656 195.640625 326.585938 195.640625 327.089844 C 195.640625 327.597656 195.734375 328.082031 195.929688 328.550781 C 196.125 329.019531 196.402344 329.429688 196.757812 329.789062 C 197.117188 330.144531 197.53125 330.421875 198 330.613281 C 198.46875 330.808594 198.957031 330.90625 199.460938 330.90625 C 199.96875 330.90625 200.457031 330.808594 200.925781 330.613281 C 201.394531 330.421875 201.808594 330.144531 202.164062 329.789062 C 202.523438 329.429688 202.800781 329.019531 202.996094 328.550781 C 203.1875 328.082031 203.285156 327.597656 203.285156 327.089844 Z M 195.648438 367.449219 C 195.648438 367.953125 195.746094 368.441406 195.941406 368.910156 C 196.132812 369.375 196.410156 369.789062 196.769531 370.148438 C 197.128906 370.503906 197.542969 370.78125 198.011719 370.972656 C 198.480469 371.167969 198.96875 371.265625 199.476562 371.261719 C 199.984375 371.261719 200.46875 371.164062 200.9375 370.972656 C 201.40625 370.777344 201.820312 370.5 202.179688 370.140625 C 202.535156 369.785156 202.8125 369.371094 203.007812 368.902344 C 203.199219 368.433594 203.296875 367.949219 203.296875 367.441406 C 203.292969 366.933594 203.195312 366.449219 203 365.980469 C 202.804688 365.515625 202.527344 365.101562 202.167969 364.746094 C 201.808594 364.386719 201.394531 364.113281 200.925781 363.917969 C 200.457031 363.726562 199.96875 363.632812 199.460938 363.632812 C 198.957031 363.632812 198.46875 363.730469 198.003906 363.925781 C 197.535156 364.121094 197.121094 364.394531 196.765625 364.753906 C 196.40625 365.113281 196.132812 365.523438 195.9375 365.992188 C 195.746094 366.457031 195.648438 366.941406 195.648438 367.449219 Z M 164.175781 4.246094 C 164.175781 3.742188 164.082031 3.253906 163.886719 2.785156 C 163.695312 2.316406 163.417969 1.902344 163.0625 1.546875 C 162.703125 1.1875 162.289062 0.910156 161.820312 0.714844 C 161.351562 0.519531 160.867188 0.421875 160.359375 0.421875 C 159.851562 0.421875 159.363281 0.515625 158.894531 0.710938 C 158.425781 0.902344 158.011719 1.179688 157.652344 1.535156 C 157.292969 1.894531 157.015625 2.304688 156.820312 2.773438 C 156.625 3.242188 156.527344 3.726562 156.527344 4.234375 C 156.527344 4.742188 156.625 5.226562 156.820312 5.695312 C 157.011719 6.164062 157.289062 6.574219 157.648438 6.933594 C 158.007812 7.292969 158.417969 7.566406 158.886719 7.761719 C 159.355469 7.957031 159.84375 8.054688 160.351562 8.054688 C 160.859375 8.054688 161.34375 7.957031 161.8125 7.761719 C 162.28125 7.570312 162.691406 7.296875 163.050781 6.9375 C 163.410156 6.582031 163.6875 6.171875 163.882812 5.703125 C 164.074219 5.238281 164.171875 4.753906 164.175781 4.246094 Z M 164.175781 44.605469 C 164.175781 44.097656 164.082031 43.613281 163.886719 43.144531 C 163.695312 42.675781 163.417969 42.261719 163.0625 41.902344 C 162.703125 41.542969 162.289062 41.269531 161.820312 41.074219 C 161.351562 40.878906 160.867188 40.78125 160.359375 40.78125 C 159.851562 40.777344 159.363281 40.875 158.894531 41.066406 C 158.425781 41.261719 158.011719 41.535156 157.652344 41.894531 C 157.292969 42.25 157.015625 42.664062 156.820312 43.132812 C 156.625 43.597656 156.527344 44.085938 156.527344 44.59375 C 156.527344 45.097656 156.625 45.585938 156.820312 46.054688 C 157.011719 46.519531 157.289062 46.933594 157.648438 47.292969 C 158.007812 47.648438 158.417969 47.925781 158.886719 48.121094 C 159.355469 48.3125 159.84375 48.410156 160.351562 48.410156 C 160.859375 48.410156 161.34375 48.3125 161.8125 48.121094 C 162.28125 47.929688 162.691406 47.652344 163.050781 47.296875 C 163.410156 46.941406 163.6875 46.527344 163.882812 46.0625 C 164.074219 45.597656 164.171875 45.109375 164.175781 44.605469 Z M 164.175781 84.953125 C 164.175781 84.445312 164.078125 83.960938 163.882812 83.492188 C 163.691406 83.027344 163.414062 82.613281 163.054688 82.253906 C 162.695312 81.898438 162.285156 81.621094 161.816406 81.429688 C 161.347656 81.234375 160.859375 81.136719 160.351562 81.136719 C 159.84375 81.136719 159.355469 81.234375 158.890625 81.429688 C 158.421875 81.621094 158.007812 81.898438 157.648438 82.253906 C 157.289062 82.613281 157.015625 83.027344 156.820312 83.492188 C 156.625 83.960938 156.527344 84.445312 156.527344 84.953125 C 156.527344 85.460938 156.625 85.945312 156.820312 86.414062 C 157.015625 86.878906 157.289062 87.292969 157.648438 87.652344 C 158.007812 88.007812 158.421875 88.285156 158.890625 88.476562 C 159.355469 88.671875 159.84375 88.769531 160.351562 88.769531 C 160.859375 88.769531 161.347656 88.671875 161.816406 88.476562 C 162.285156 88.285156 162.695312 88.007812 163.054688 87.652344 C 163.414062 87.292969 163.691406 86.878906 163.882812 86.414062 C 164.078125 85.945312 164.175781 85.460938 164.175781 84.953125 Z M 164.175781 125.332031 C 164.175781 124.824219 164.078125 124.335938 163.882812 123.871094 C 163.691406 123.402344 163.414062 122.992188 163.054688 122.632812 C 162.695312 122.273438 162.285156 122 161.816406 121.804688 C 161.347656 121.613281 160.859375 121.515625 160.351562 121.515625 C 159.84375 121.515625 159.355469 121.613281 158.890625 121.804688 C 158.421875 122 158.007812 122.273438 157.648438 122.632812 C 157.289062 122.992188 157.015625 123.402344 156.820312 123.871094 C 156.625 124.335938 156.527344 124.824219 156.527344 125.332031 C 156.527344 125.835938 156.625 126.324219 156.820312 126.789062 C 157.015625 127.257812 157.289062 127.671875 157.648438 128.027344 C 158.007812 128.386719 158.421875 128.660156 158.890625 128.855469 C 159.355469 129.050781 159.84375 129.144531 160.351562 129.144531 C 160.859375 129.144531 161.347656 129.050781 161.816406 128.855469 C 162.285156 128.660156 162.695312 128.386719 163.054688 128.027344 C 163.414062 127.671875 163.691406 127.257812 163.882812 126.789062 C 164.078125 126.324219 164.175781 125.835938 164.175781 125.332031 Z M 164.175781 165.6875 C 164.175781 165.183594 164.078125 164.695312 163.882812 164.226562 C 163.691406 163.761719 163.414062 163.347656 163.054688 162.992188 C 162.695312 162.632812 162.285156 162.355469 161.816406 162.164062 C 161.347656 161.96875 160.859375 161.871094 160.351562 161.875 C 159.84375 161.871094 159.355469 161.96875 158.890625 162.164062 C 158.421875 162.355469 158.007812 162.632812 157.648438 162.992188 C 157.289062 163.347656 157.015625 163.761719 156.820312 164.226562 C 156.625 164.695312 156.527344 165.183594 156.527344 165.6875 C 156.527344 166.195312 156.625 166.679688 156.820312 167.148438 C 157.015625 167.617188 157.289062 168.027344 157.648438 168.386719 C 158.007812 168.742188 158.421875 169.019531 158.890625 169.214844 C 159.355469 169.40625 159.84375 169.503906 160.351562 169.503906 C 160.859375 169.503906 161.351562 169.40625 161.820312 169.210938 C 162.289062 169.015625 162.703125 168.738281 163.0625 168.378906 C 163.421875 168.019531 163.695312 167.605469 163.890625 167.136719 C 164.082031 166.664062 164.175781 166.175781 164.175781 165.667969 Z M 164.175781 206.046875 C 164.175781 205.539062 164.082031 205.050781 163.886719 204.585938 C 163.695312 204.117188 163.417969 203.703125 163.0625 203.34375 C 162.703125 202.984375 162.289062 202.707031 161.820312 202.515625 C 161.351562 202.320312 160.867188 202.222656 160.359375 202.222656 C 159.851562 202.21875 159.363281 202.316406 158.894531 202.507812 C 158.425781 202.703125 158.011719 202.976562 157.652344 203.335938 C 157.292969 203.691406 157.015625 204.105469 156.820312 204.574219 C 156.625 205.039062 156.527344 205.527344 156.527344 206.03125 C 156.527344 206.539062 156.625 207.027344 156.820312 207.492188 C 157.011719 207.960938 157.289062 208.375 157.648438 208.734375 C 158.007812 209.089844 158.417969 209.367188 158.886719 209.5625 C 159.355469 209.753906 159.84375 209.851562 160.351562 209.851562 C 160.859375 209.851562 161.347656 209.753906 161.816406 209.558594 C 162.285156 209.367188 162.699219 209.089844 163.058594 208.730469 C 163.417969 208.371094 163.691406 207.957031 163.886719 207.488281 C 164.082031 207.019531 164.175781 206.535156 164.175781 206.027344 Z M 164.175781 246.402344 C 164.175781 245.898438 164.082031 245.410156 163.886719 244.941406 C 163.695312 244.472656 163.417969 244.0625 163.0625 243.703125 C 162.703125 243.34375 162.289062 243.066406 161.820312 242.871094 C 161.351562 242.675781 160.867188 242.578125 160.359375 242.578125 C 159.851562 242.578125 159.363281 242.675781 158.894531 242.867188 C 158.425781 243.058594 158.011719 243.335938 157.652344 243.691406 C 157.292969 244.050781 157.015625 244.460938 156.820312 244.929688 C 156.625 245.398438 156.527344 245.882812 156.527344 246.390625 C 156.527344 246.898438 156.625 247.382812 156.820312 247.851562 C 157.011719 248.320312 157.289062 248.734375 157.648438 249.089844 C 158.007812 249.449219 158.417969 249.726562 158.886719 249.917969 C 159.355469 250.113281 159.84375 250.210938 160.351562 250.210938 C 160.859375 250.210938 161.347656 250.113281 161.816406 249.917969 C 162.285156 249.722656 162.699219 249.449219 163.058594 249.089844 C 163.417969 248.730469 163.691406 248.316406 163.886719 247.847656 C 164.082031 247.378906 164.175781 246.890625 164.175781 246.382812 Z M 164.175781 286.753906 C 164.175781 286.246094 164.078125 285.757812 163.882812 285.292969 C 163.691406 284.824219 163.414062 284.410156 163.054688 284.054688 C 162.695312 283.695312 162.285156 283.421875 161.816406 283.226562 C 161.347656 283.035156 160.859375 282.9375 160.351562 282.9375 C 159.84375 282.9375 159.355469 283.035156 158.890625 283.226562 C 158.421875 283.421875 158.007812 283.695312 157.648438 284.054688 C 157.289062 284.410156 157.015625 284.824219 156.820312 285.292969 C 156.625 285.757812 156.527344 286.246094 156.527344 286.753906 C 156.527344 287.257812 156.625 287.746094 156.820312 288.210938 C 157.015625 288.679688 157.289062 289.09375 157.648438 289.449219 C 158.007812 289.808594 158.421875 290.082031 158.890625 290.277344 C 159.355469 290.46875 159.84375 290.566406 160.351562 290.566406 C 160.859375 290.566406 161.351562 290.46875 161.820312 290.273438 C 162.289062 290.082031 162.703125 289.804688 163.0625 289.441406 C 163.421875 289.082031 163.695312 288.667969 163.890625 288.199219 C 164.082031 287.730469 164.175781 287.238281 164.175781 286.734375 Z M 164.175781 327.109375 C 164.175781 326.605469 164.078125 326.117188 163.882812 325.648438 C 163.691406 325.183594 163.414062 324.769531 163.054688 324.410156 C 162.695312 324.054688 162.285156 323.777344 161.816406 323.585938 C 161.347656 323.390625 160.859375 323.292969 160.351562 323.292969 C 159.84375 323.292969 159.355469 323.390625 158.890625 323.585938 C 158.421875 323.777344 158.007812 324.054688 157.648438 324.410156 C 157.289062 324.769531 157.015625 325.183594 156.820312 325.648438 C 156.625 326.117188 156.527344 326.605469 156.527344 327.109375 C 156.527344 327.617188 156.625 328.101562 156.820312 328.570312 C 157.015625 329.039062 157.289062 329.449219 157.648438 329.808594 C 158.007812 330.164062 158.421875 330.441406 158.890625 330.632812 C 159.355469 330.828125 159.84375 330.925781 160.351562 330.925781 C 160.859375 330.925781 161.351562 330.828125 161.820312 330.632812 C 162.289062 330.4375 162.703125 330.160156 163.0625 329.800781 C 163.421875 329.441406 163.695312 329.027344 163.890625 328.554688 C 164.082031 328.085938 164.175781 327.597656 164.175781 327.089844 Z M 164.175781 367.46875 C 164.183594 366.960938 164.09375 366.472656 163.90625 366 C 163.71875 365.527344 163.445312 365.113281 163.09375 364.75 C 162.738281 364.386719 162.328125 364.101562 161.859375 363.902344 C 161.394531 363.703125 160.90625 363.601562 160.398438 363.59375 C 159.890625 363.589844 159.398438 363.679688 158.929688 363.867188 C 158.457031 364.058594 158.039062 364.328125 157.675781 364.683594 C 157.3125 365.039062 157.03125 365.449219 156.835938 365.914062 C 156.636719 366.382812 156.535156 366.871094 156.53125 367.375 C 156.523438 367.882812 156.617188 368.371094 156.808594 368.839844 C 157 369.3125 157.273438 369.726562 157.628906 370.089844 C 157.988281 370.449219 158.398438 370.726562 158.867188 370.925781 C 159.335938 371.121094 159.824219 371.222656 160.332031 371.222656 C 160.835938 371.226562 161.324219 371.132812 161.792969 370.941406 C 162.261719 370.753906 162.675781 370.480469 163.035156 370.128906 C 163.394531 369.773438 163.671875 369.363281 163.871094 368.902344 C 164.070312 368.4375 164.167969 367.953125 164.175781 367.449219 Z M 125.015625 4.246094 C 125.015625 3.742188 124.921875 3.257812 124.730469 2.789062 C 124.535156 2.320312 124.261719 1.910156 123.90625 1.550781 C 123.550781 1.191406 123.136719 0.914062 122.671875 0.71875 C 122.203125 0.523438 121.71875 0.425781 121.210938 0.421875 C 120.707031 0.421875 120.21875 0.515625 119.75 0.703125 C 119.28125 0.894531 118.867188 1.167969 118.507812 1.523438 C 118.144531 1.878906 117.867188 2.289062 117.671875 2.753906 C 117.472656 3.21875 117.375 3.703125 117.371094 4.207031 C 117.367188 4.714844 117.457031 5.199219 117.648438 5.667969 C 117.839844 6.136719 118.109375 6.550781 118.464844 6.910156 C 118.820312 7.273438 119.230469 7.550781 119.695312 7.75 C 120.160156 7.945312 120.648438 8.046875 121.152344 8.054688 C 121.664062 8.058594 122.152344 7.964844 122.625 7.773438 C 123.097656 7.582031 123.515625 7.308594 123.878906 6.953125 C 124.242188 6.59375 124.519531 6.183594 124.71875 5.714844 C 124.914062 5.246094 125.015625 4.753906 125.015625 4.246094 Z M 125.015625 44.605469 C 125.015625 44.097656 124.921875 43.609375 124.726562 43.144531 C 124.535156 42.675781 124.257812 42.261719 123.902344 41.902344 C 123.542969 41.542969 123.128906 41.265625 122.660156 41.074219 C 122.191406 40.878906 121.703125 40.78125 121.195312 40.78125 C 120.6875 40.78125 120.199219 40.875 119.730469 41.070312 C 119.261719 41.261719 118.847656 41.539062 118.488281 41.898438 C 118.128906 42.253906 117.855469 42.667969 117.660156 43.136719 C 117.464844 43.605469 117.367188 44.09375 117.371094 44.597656 C 117.371094 45.105469 117.46875 45.59375 117.664062 46.058594 C 117.855469 46.527344 118.132812 46.941406 118.492188 47.296875 C 118.851562 47.65625 119.269531 47.929688 119.738281 48.125 C 120.207031 48.316406 120.695312 48.410156 121.203125 48.410156 C 121.707031 48.410156 122.195312 48.3125 122.660156 48.117188 C 123.125 47.925781 123.539062 47.648438 123.894531 47.292969 C 124.253906 46.9375 124.527344 46.527344 124.722656 46.058594 C 124.917969 45.59375 125.015625 45.109375 125.015625 44.605469 Z M 125.015625 84.953125 C 125.015625 84.449219 124.917969 83.960938 124.726562 83.496094 C 124.53125 83.03125 124.257812 82.617188 123.898438 82.261719 C 123.542969 81.902344 123.132812 81.625 122.664062 81.433594 C 122.199219 81.238281 121.710938 81.140625 121.207031 81.136719 C 120.699219 81.136719 120.210938 81.230469 119.746094 81.421875 C 119.277344 81.613281 118.863281 81.886719 118.503906 82.242188 C 118.144531 82.597656 117.867188 83.007812 117.667969 83.472656 C 117.472656 83.9375 117.371094 84.421875 117.371094 84.925781 C 117.367188 85.433594 117.460938 85.917969 117.648438 86.386719 C 117.839844 86.855469 118.113281 87.269531 118.464844 87.628906 C 118.820312 87.988281 119.230469 88.265625 119.695312 88.464844 C 120.160156 88.660156 120.648438 88.761719 121.152344 88.769531 C 121.664062 88.773438 122.15625 88.679688 122.628906 88.488281 C 123.101562 88.296875 123.519531 88.023438 123.882812 87.664062 C 124.246094 87.304688 124.523438 86.890625 124.722656 86.421875 C 124.917969 85.953125 125.015625 85.460938 125.015625 84.953125 Z M 125.015625 125.3125 C 125.015625 124.804688 124.917969 124.316406 124.722656 123.851562 C 124.53125 123.382812 124.253906 122.96875 123.894531 122.613281 C 123.535156 122.253906 123.121094 121.980469 122.652344 121.785156 C 122.183594 121.589844 121.695312 121.496094 121.1875 121.496094 C 120.683594 121.496094 120.195312 121.59375 119.726562 121.789062 C 119.257812 121.980469 118.84375 122.257812 118.484375 122.617188 C 118.128906 122.976562 117.851562 123.386719 117.660156 123.855469 C 117.464844 124.324219 117.367188 124.8125 117.371094 125.316406 C 117.371094 125.824219 117.46875 126.308594 117.664062 126.777344 C 117.859375 127.246094 118.136719 127.65625 118.496094 128.015625 C 118.855469 128.371094 119.269531 128.648438 119.738281 128.839844 C 120.207031 129.03125 120.695312 129.128906 121.203125 129.125 C 121.707031 129.125 122.191406 129.027344 122.65625 128.835938 C 123.125 128.640625 123.535156 128.367188 123.890625 128.011719 C 124.25 127.65625 124.523438 127.246094 124.71875 126.78125 C 124.914062 126.316406 125.011719 125.832031 125.015625 125.332031 Z M 125.015625 165.667969 C 125.015625 165.164062 124.917969 164.675781 124.722656 164.207031 C 124.53125 163.742188 124.253906 163.328125 123.894531 162.96875 C 123.535156 162.613281 123.121094 162.335938 122.652344 162.144531 C 122.183594 161.949219 121.695312 161.851562 121.1875 161.855469 C 120.683594 161.855469 120.195312 161.953125 119.726562 162.144531 C 119.257812 162.339844 118.84375 162.617188 118.484375 162.972656 C 118.128906 163.332031 117.851562 163.746094 117.660156 164.214844 C 117.464844 164.683594 117.367188 165.167969 117.371094 165.675781 C 117.371094 166.179688 117.46875 166.667969 117.664062 167.136719 C 117.859375 167.601562 118.136719 168.015625 118.496094 168.371094 C 118.855469 168.730469 119.269531 169.003906 119.738281 169.195312 C 120.207031 169.390625 120.695312 169.484375 121.203125 169.484375 C 121.707031 169.484375 122.195312 169.386719 122.664062 169.191406 C 123.128906 168.996094 123.542969 168.722656 123.898438 168.363281 C 124.257812 168.003906 124.53125 167.59375 124.726562 167.125 C 124.917969 166.660156 125.015625 166.175781 125.015625 165.667969 Z M 125.015625 206.027344 C 125.015625 205.519531 124.921875 205.03125 124.726562 204.5625 C 124.535156 204.097656 124.257812 203.683594 123.902344 203.324219 C 123.542969 202.964844 123.128906 202.6875 122.660156 202.492188 C 122.191406 202.300781 121.703125 202.203125 121.195312 202.203125 C 120.6875 202.199219 120.199219 202.296875 119.730469 202.492188 C 119.261719 202.683594 118.847656 202.960938 118.488281 203.320312 C 118.128906 203.675781 117.855469 204.089844 117.660156 204.558594 C 117.464844 205.027344 117.367188 205.511719 117.371094 206.019531 C 117.371094 206.527344 117.46875 207.011719 117.664062 207.480469 C 117.855469 207.949219 118.132812 208.363281 118.492188 208.71875 C 118.851562 209.078125 119.269531 209.351562 119.738281 209.542969 C 120.207031 209.738281 120.695312 209.832031 121.203125 209.832031 C 121.707031 209.832031 122.195312 209.734375 122.660156 209.539062 C 123.125 209.347656 123.539062 209.070312 123.894531 208.714844 C 124.253906 208.359375 124.527344 207.945312 124.722656 207.480469 C 124.917969 207.015625 125.015625 206.53125 125.015625 206.027344 Z M 125.015625 246.382812 C 125.011719 245.878906 124.910156 245.394531 124.714844 244.933594 C 124.519531 244.46875 124.242188 244.058594 123.882812 243.703125 C 123.523438 243.347656 123.113281 243.074219 122.644531 242.882812 C 122.175781 242.691406 121.691406 242.597656 121.1875 242.597656 C 120.679688 242.597656 120.195312 242.695312 119.730469 242.890625 C 119.261719 243.082031 118.851562 243.355469 118.492188 243.710938 C 118.136719 244.070312 117.859375 244.480469 117.664062 244.945312 C 117.46875 245.410156 117.371094 245.894531 117.371094 246.398438 C 117.367188 246.902344 117.460938 247.386719 117.652344 247.855469 C 117.84375 248.320312 118.117188 248.734375 118.46875 249.09375 C 118.824219 249.449219 119.234375 249.730469 119.699219 249.925781 C 120.164062 250.121094 120.648438 250.222656 121.152344 250.230469 C 121.40625 250.230469 121.660156 250.210938 121.910156 250.160156 C 122.15625 250.113281 122.398438 250.042969 122.636719 249.945312 C 122.871094 249.851562 123.09375 249.734375 123.304688 249.59375 C 123.515625 249.453125 123.710938 249.292969 123.890625 249.113281 C 124.070312 248.9375 124.234375 248.742188 124.375 248.53125 C 124.515625 248.320312 124.632812 248.097656 124.730469 247.863281 C 124.824219 247.628906 124.898438 247.386719 124.945312 247.136719 C 124.996094 246.890625 125.015625 246.636719 125.015625 246.382812 Z M 125.015625 286.734375 C 125.015625 286.226562 124.917969 285.738281 124.722656 285.273438 C 124.53125 284.804688 124.253906 284.390625 123.894531 284.035156 C 123.535156 283.675781 123.121094 283.398438 122.652344 283.207031 C 122.183594 283.011719 121.695312 282.917969 121.1875 282.917969 C 120.683594 282.917969 120.195312 283.015625 119.726562 283.210938 C 119.257812 283.402344 118.84375 283.679688 118.484375 284.039062 C 118.128906 284.398438 117.851562 284.808594 117.660156 285.277344 C 117.464844 285.746094 117.367188 286.234375 117.371094 286.738281 C 117.371094 287.246094 117.46875 287.730469 117.664062 288.199219 C 117.859375 288.667969 118.136719 289.078125 118.496094 289.4375 C 118.855469 289.792969 119.269531 290.066406 119.738281 290.261719 C 120.207031 290.453125 120.695312 290.550781 121.203125 290.546875 C 121.707031 290.546875 122.195312 290.449219 122.664062 290.253906 C 123.128906 290.058594 123.542969 289.785156 123.898438 289.425781 C 124.257812 289.070312 124.53125 288.65625 124.726562 288.191406 C 124.917969 287.722656 125.015625 287.238281 125.015625 286.734375 Z M 125.015625 327.089844 C 125.015625 326.585938 124.917969 326.097656 124.722656 325.628906 C 124.53125 325.160156 124.253906 324.75 123.894531 324.390625 C 123.535156 324.035156 123.121094 323.757812 122.652344 323.566406 C 122.183594 323.371094 121.695312 323.273438 121.1875 323.273438 C 120.683594 323.277344 120.195312 323.371094 119.726562 323.566406 C 119.257812 323.761719 118.84375 324.039062 118.484375 324.394531 C 118.128906 324.753906 117.851562 325.167969 117.660156 325.636719 C 117.464844 326.101562 117.367188 326.589844 117.371094 327.097656 C 117.371094 327.601562 117.46875 328.089844 117.664062 328.558594 C 117.859375 329.023438 118.136719 329.4375 118.496094 329.792969 C 118.855469 330.152344 119.269531 330.425781 119.738281 330.617188 C 120.207031 330.8125 120.695312 330.90625 121.203125 330.90625 C 121.707031 330.902344 122.195312 330.804688 122.664062 330.613281 C 123.128906 330.417969 123.542969 330.140625 123.898438 329.785156 C 124.257812 329.425781 124.53125 329.015625 124.726562 328.546875 C 124.917969 328.082031 125.015625 327.59375 125.015625 327.089844 Z M 125.015625 367.449219 C 125.019531 366.941406 124.929688 366.453125 124.738281 365.984375 C 124.550781 365.515625 124.277344 365.101562 123.921875 364.738281 C 123.570312 364.378906 123.15625 364.097656 122.691406 363.898438 C 122.226562 363.699219 121.738281 363.597656 121.230469 363.59375 C 120.726562 363.589844 120.234375 363.679688 119.765625 363.871094 C 119.296875 364.058594 118.878906 364.328125 118.515625 364.683594 C 118.15625 365.039062 117.875 365.449219 117.675781 365.914062 C 117.476562 366.378906 117.375 366.863281 117.371094 367.371094 C 117.363281 367.875 117.457031 368.363281 117.644531 368.832031 C 117.835938 369.300781 118.105469 369.71875 118.460938 370.078125 C 118.816406 370.441406 119.226562 370.71875 119.695312 370.917969 C 120.160156 371.117188 120.644531 371.21875 121.152344 371.222656 C 121.660156 371.230469 122.148438 371.136719 122.621094 370.949219 C 123.089844 370.761719 123.507812 370.488281 123.867188 370.132812 C 124.230469 369.78125 124.511719 369.371094 124.710938 368.90625 C 124.910156 368.441406 125.011719 367.953125 125.015625 367.449219 Z M 85.90625 4.246094 C 85.90625 3.742188 85.8125 3.257812 85.617188 2.789062 C 85.425781 2.320312 85.152344 1.910156 84.796875 1.550781 C 84.4375 1.191406 84.027344 0.914062 83.5625 0.71875 C 83.09375 0.523438 82.609375 0.425781 82.101562 0.421875 C 81.59375 0.421875 81.109375 0.515625 80.640625 0.703125 C 80.171875 0.894531 79.757812 1.167969 79.394531 1.523438 C 79.035156 1.878906 78.757812 2.289062 78.558594 2.753906 C 78.363281 3.21875 78.261719 3.703125 78.257812 4.207031 C 78.253906 4.714844 78.347656 5.199219 78.539062 5.667969 C 78.726562 6.136719 79 6.550781 79.355469 6.910156 C 79.710938 7.273438 80.121094 7.550781 80.585938 7.75 C 81.050781 7.945312 81.535156 8.046875 82.042969 8.054688 C 82.550781 8.054688 83.039062 7.960938 83.507812 7.769531 C 83.980469 7.578125 84.394531 7.300781 84.753906 6.945312 C 85.117188 6.589844 85.394531 6.175781 85.589844 5.707031 C 85.785156 5.242188 85.882812 4.753906 85.886719 4.246094 Z M 85.90625 44.605469 C 85.90625 44.097656 85.808594 43.613281 85.617188 43.144531 C 85.425781 42.675781 85.148438 42.261719 84.792969 41.902344 C 84.433594 41.542969 84.019531 41.269531 83.550781 41.074219 C 83.082031 40.878906 82.597656 40.78125 82.089844 40.78125 C 81.582031 40.777344 81.09375 40.875 80.625 41.066406 C 80.15625 41.261719 79.742188 41.535156 79.382812 41.894531 C 79.023438 42.25 78.746094 42.664062 78.550781 43.132812 C 78.355469 43.597656 78.257812 44.085938 78.257812 44.59375 C 78.257812 45.097656 78.355469 45.585938 78.550781 46.054688 C 78.742188 46.519531 79.019531 46.933594 79.378906 47.292969 C 79.734375 47.648438 80.148438 47.925781 80.617188 48.121094 C 81.085938 48.3125 81.574219 48.410156 82.082031 48.410156 C 82.585938 48.40625 83.070312 48.308594 83.535156 48.117188 C 84.003906 47.921875 84.414062 47.644531 84.769531 47.289062 C 85.125 46.933594 85.398438 46.523438 85.59375 46.058594 C 85.785156 45.59375 85.882812 45.109375 85.886719 44.605469 Z M 85.90625 84.953125 C 85.90625 84.449219 85.808594 83.960938 85.617188 83.496094 C 85.421875 83.03125 85.148438 82.617188 84.789062 82.261719 C 84.433594 81.902344 84.019531 81.625 83.554688 81.433594 C 83.085938 81.238281 82.601562 81.140625 82.09375 81.136719 C 81.589844 81.136719 81.101562 81.230469 80.632812 81.421875 C 80.164062 81.613281 79.753906 81.886719 79.390625 82.242188 C 79.03125 82.597656 78.753906 83.007812 78.558594 83.472656 C 78.363281 83.9375 78.261719 84.421875 78.257812 84.925781 C 78.253906 85.433594 78.347656 85.917969 78.539062 86.386719 C 78.730469 86.855469 79 87.269531 79.355469 87.628906 C 79.710938 87.988281 80.121094 88.265625 80.585938 88.464844 C 81.050781 88.660156 81.539062 88.761719 82.042969 88.769531 C 82.550781 88.769531 83.042969 88.675781 83.511719 88.484375 C 83.984375 88.292969 84.398438 88.015625 84.757812 87.65625 C 85.121094 87.300781 85.398438 86.886719 85.59375 86.417969 C 85.789062 85.949219 85.886719 85.460938 85.886719 84.953125 Z M 85.90625 125.3125 C 85.90625 124.804688 85.808594 124.316406 85.613281 123.851562 C 85.421875 123.382812 85.144531 122.972656 84.785156 122.613281 C 84.425781 122.253906 84.011719 121.980469 83.546875 121.785156 C 83.078125 121.59375 82.589844 121.496094 82.082031 121.496094 C 81.574219 121.496094 81.085938 121.59375 80.617188 121.785156 C 80.152344 121.980469 79.738281 122.253906 79.378906 122.613281 C 79.019531 122.972656 78.742188 123.382812 78.550781 123.851562 C 78.355469 124.316406 78.257812 124.804688 78.257812 125.3125 C 78.257812 125.816406 78.355469 126.304688 78.550781 126.769531 C 78.742188 127.238281 79.019531 127.652344 79.378906 128.007812 C 79.738281 128.367188 80.152344 128.640625 80.617188 128.835938 C 81.085938 129.03125 81.574219 129.125 82.082031 129.125 C 82.585938 129.125 83.070312 129.027344 83.535156 128.832031 C 84 128.636719 84.410156 128.363281 84.765625 128.007812 C 85.121094 127.652344 85.398438 127.242188 85.589844 126.78125 C 85.785156 126.316406 85.882812 125.832031 85.886719 125.332031 Z M 85.90625 165.667969 C 85.90625 165.164062 85.808594 164.675781 85.613281 164.207031 C 85.421875 163.742188 85.144531 163.328125 84.785156 162.972656 C 84.425781 162.613281 84.011719 162.335938 83.546875 162.144531 C 83.078125 161.949219 82.589844 161.855469 82.082031 161.855469 C 81.574219 161.855469 81.085938 161.949219 80.617188 162.144531 C 80.152344 162.335938 79.738281 162.613281 79.378906 162.972656 C 79.019531 163.328125 78.742188 163.742188 78.550781 164.207031 C 78.355469 164.675781 78.257812 165.164062 78.257812 165.667969 C 78.257812 166.175781 78.355469 166.660156 78.550781 167.128906 C 78.742188 167.597656 79.019531 168.007812 79.378906 168.367188 C 79.738281 168.722656 80.152344 169 80.617188 169.195312 C 81.085938 169.386719 81.574219 169.484375 82.082031 169.484375 C 82.585938 169.480469 83.074219 169.382812 83.539062 169.1875 C 84.003906 168.992188 84.417969 168.71875 84.773438 168.359375 C 85.128906 168.003906 85.402344 167.589844 85.597656 167.125 C 85.789062 166.65625 85.886719 166.171875 85.886719 165.667969 Z M 85.90625 206.027344 C 85.90625 205.519531 85.808594 205.03125 85.617188 204.566406 C 85.425781 204.097656 85.148438 203.683594 84.792969 203.324219 C 84.433594 202.964844 84.019531 202.6875 83.550781 202.496094 C 83.082031 202.300781 82.597656 202.203125 82.089844 202.203125 C 81.582031 202.199219 81.09375 202.296875 80.625 202.488281 C 80.15625 202.683594 79.742188 202.957031 79.382812 203.316406 C 79.023438 203.671875 78.746094 204.085938 78.550781 204.554688 C 78.355469 205.019531 78.257812 205.507812 78.257812 206.011719 C 78.257812 206.519531 78.355469 207.007812 78.550781 207.472656 C 78.742188 207.941406 79.019531 208.355469 79.378906 208.714844 C 79.734375 209.070312 80.148438 209.347656 80.617188 209.542969 C 81.085938 209.734375 81.574219 209.832031 82.082031 209.832031 C 82.585938 209.828125 83.070312 209.730469 83.535156 209.535156 C 84.003906 209.34375 84.414062 209.066406 84.769531 208.710938 C 85.125 208.355469 85.398438 207.945312 85.59375 207.480469 C 85.785156 207.015625 85.882812 206.53125 85.886719 206.027344 Z M 85.90625 246.382812 C 85.902344 245.878906 85.800781 245.394531 85.605469 244.933594 C 85.410156 244.46875 85.132812 244.058594 84.773438 243.703125 C 84.414062 243.347656 84 243.074219 83.535156 242.882812 C 83.066406 242.691406 82.582031 242.597656 82.074219 242.597656 C 81.570312 242.597656 81.085938 242.695312 80.617188 242.890625 C 80.152344 243.082031 79.738281 243.355469 79.382812 243.710938 C 79.023438 244.070312 78.75 244.480469 78.554688 244.945312 C 78.359375 245.410156 78.261719 245.894531 78.257812 246.398438 C 78.257812 246.902344 78.351562 247.386719 78.542969 247.855469 C 78.730469 248.320312 79.003906 248.734375 79.359375 249.09375 C 79.714844 249.449219 80.125 249.730469 80.589844 249.925781 C 81.054688 250.121094 81.539062 250.222656 82.042969 250.230469 C 82.296875 250.230469 82.546875 250.207031 82.796875 250.160156 C 83.042969 250.109375 83.285156 250.039062 83.519531 249.941406 C 83.753906 249.84375 83.976562 249.726562 84.183594 249.585938 C 84.394531 249.445312 84.589844 249.285156 84.769531 249.109375 C 84.949219 248.929688 85.109375 248.734375 85.246094 248.523438 C 85.386719 248.3125 85.503906 248.089844 85.601562 247.859375 C 85.695312 247.625 85.769531 247.382812 85.816406 247.136719 C 85.863281 246.886719 85.886719 246.636719 85.886719 246.382812 Z M 85.90625 286.734375 C 85.90625 286.226562 85.808594 285.738281 85.613281 285.273438 C 85.421875 284.804688 85.144531 284.390625 84.785156 284.035156 C 84.425781 283.675781 84.011719 283.402344 83.546875 283.207031 C 83.078125 283.015625 82.589844 282.917969 82.082031 282.917969 C 81.574219 282.917969 81.085938 283.015625 80.617188 283.207031 C 80.152344 283.402344 79.738281 283.675781 79.378906 284.035156 C 79.019531 284.390625 78.742188 284.804688 78.550781 285.273438 C 78.355469 285.738281 78.257812 286.226562 78.257812 286.734375 C 78.257812 287.238281 78.355469 287.726562 78.550781 288.191406 C 78.742188 288.660156 79.019531 289.074219 79.378906 289.429688 C 79.738281 289.789062 80.152344 290.0625 80.617188 290.257812 C 81.085938 290.449219 81.574219 290.546875 82.082031 290.546875 C 82.585938 290.546875 83.074219 290.445312 83.539062 290.25 C 84.003906 290.058594 84.417969 289.78125 84.773438 289.421875 C 85.128906 289.066406 85.402344 288.652344 85.597656 288.1875 C 85.789062 287.722656 85.886719 287.238281 85.886719 286.734375 Z M 85.90625 327.089844 C 85.90625 326.585938 85.808594 326.097656 85.613281 325.628906 C 85.421875 325.164062 85.144531 324.75 84.785156 324.390625 C 84.425781 324.035156 84.011719 323.757812 83.546875 323.566406 C 83.078125 323.371094 82.589844 323.273438 82.082031 323.273438 C 81.574219 323.273438 81.085938 323.371094 80.617188 323.566406 C 80.152344 323.757812 79.738281 324.035156 79.378906 324.390625 C 79.019531 324.75 78.742188 325.164062 78.550781 325.628906 C 78.355469 326.097656 78.257812 326.585938 78.257812 327.089844 C 78.257812 327.597656 78.355469 328.082031 78.550781 328.550781 C 78.742188 329.019531 79.019531 329.429688 79.378906 329.789062 C 79.738281 330.144531 80.152344 330.421875 80.617188 330.613281 C 81.085938 330.808594 81.574219 330.90625 82.082031 330.90625 C 82.585938 330.902344 83.074219 330.804688 83.539062 330.609375 C 84.003906 330.414062 84.417969 330.136719 84.773438 329.78125 C 85.128906 329.421875 85.402344 329.011719 85.597656 328.546875 C 85.789062 328.078125 85.886719 327.59375 85.886719 327.089844 Z M 85.90625 367.449219 C 85.910156 366.941406 85.816406 366.453125 85.628906 365.984375 C 85.441406 365.515625 85.167969 365.101562 84.8125 364.738281 C 84.457031 364.378906 84.046875 364.097656 83.582031 363.898438 C 83.113281 363.699219 82.628906 363.597656 82.121094 363.59375 C 81.613281 363.589844 81.125 363.679688 80.65625 363.871094 C 80.183594 364.058594 79.769531 364.328125 79.40625 364.683594 C 79.042969 365.039062 78.765625 365.449219 78.566406 365.914062 C 78.367188 366.378906 78.265625 366.863281 78.257812 367.371094 C 78.253906 367.875 78.347656 368.363281 78.535156 368.832031 C 78.722656 369.300781 78.996094 369.71875 79.351562 370.078125 C 79.707031 370.441406 80.117188 370.71875 80.582031 370.917969 C 81.050781 371.117188 81.535156 371.21875 82.042969 371.222656 C 82.546875 371.226562 83.035156 371.132812 83.503906 370.941406 C 83.972656 370.753906 84.386719 370.480469 84.746094 370.128906 C 85.105469 369.773438 85.382812 369.363281 85.582031 368.902344 C 85.777344 368.4375 85.878906 367.953125 85.886719 367.449219 Z M 46.746094 4.246094 C 46.746094 3.742188 46.652344 3.253906 46.457031 2.785156 C 46.265625 2.316406 45.988281 1.902344 45.628906 1.542969 C 45.273438 1.1875 44.859375 0.910156 44.390625 0.714844 C 43.921875 0.519531 43.433594 0.421875 42.925781 0.421875 C 42.417969 0.421875 41.929688 0.519531 41.460938 0.710938 C 40.992188 0.90625 40.578125 1.179688 40.21875 1.539062 C 39.859375 1.898438 39.585938 2.3125 39.390625 2.777344 C 39.195312 3.246094 39.097656 3.734375 39.101562 4.242188 C 39.101562 4.746094 39.199219 5.234375 39.390625 5.703125 C 39.585938 6.167969 39.863281 6.582031 40.222656 6.941406 C 40.582031 7.296875 40.996094 7.574219 41.46875 7.765625 C 41.9375 7.957031 42.425781 8.054688 42.933594 8.054688 C 43.4375 8.050781 43.921875 7.953125 44.390625 7.761719 C 44.855469 7.566406 45.269531 7.292969 45.625 6.933594 C 45.984375 6.578125 46.257812 6.167969 46.453125 5.703125 C 46.648438 5.238281 46.746094 4.75 46.746094 4.246094 Z M 46.746094 44.605469 C 46.746094 44.097656 46.652344 43.609375 46.457031 43.144531 C 46.265625 42.675781 45.988281 42.261719 45.628906 41.902344 C 45.273438 41.542969 44.859375 41.265625 44.390625 41.074219 C 43.921875 40.878906 43.433594 40.78125 42.925781 40.78125 C 42.417969 40.78125 41.929688 40.875 41.460938 41.070312 C 40.992188 41.261719 40.578125 41.539062 40.21875 41.898438 C 39.859375 42.253906 39.585938 42.667969 39.390625 43.136719 C 39.195312 43.605469 39.097656 44.09375 39.101562 44.597656 C 39.101562 45.105469 39.199219 45.59375 39.390625 46.058594 C 39.585938 46.527344 39.863281 46.941406 40.222656 47.296875 C 40.582031 47.65625 40.996094 47.929688 41.46875 48.125 C 41.9375 48.316406 42.425781 48.410156 42.933594 48.410156 C 43.4375 48.410156 43.921875 48.3125 44.390625 48.117188 C 44.855469 47.925781 45.269531 47.648438 45.625 47.292969 C 45.984375 46.9375 46.257812 46.527344 46.453125 46.058594 C 46.648438 45.59375 46.746094 45.109375 46.746094 44.605469 Z M 46.746094 84.953125 C 46.746094 84.445312 46.648438 83.960938 46.453125 83.492188 C 46.261719 83.023438 45.984375 82.613281 45.625 82.253906 C 45.265625 81.894531 44.851562 81.621094 44.382812 81.425781 C 43.914062 81.234375 43.425781 81.136719 42.917969 81.136719 C 42.414062 81.136719 41.925781 81.234375 41.457031 81.429688 C 40.988281 81.625 40.574219 81.902344 40.214844 82.257812 C 39.859375 82.617188 39.582031 83.03125 39.386719 83.5 C 39.195312 83.964844 39.097656 84.453125 39.101562 84.960938 C 39.101562 85.464844 39.199219 85.953125 39.394531 86.421875 C 39.589844 86.886719 39.867188 87.300781 40.226562 87.65625 C 40.585938 88.015625 41 88.289062 41.46875 88.480469 C 41.9375 88.675781 42.425781 88.769531 42.933594 88.769531 C 43.4375 88.765625 43.925781 88.667969 44.390625 88.476562 C 44.859375 88.28125 45.273438 88.003906 45.628906 87.648438 C 45.988281 87.289062 46.261719 86.878906 46.457031 86.410156 C 46.648438 85.945312 46.746094 85.457031 46.746094 84.953125 Z M 46.746094 125.3125 C 46.746094 124.804688 46.648438 124.316406 46.453125 123.851562 C 46.261719 123.382812 45.984375 122.96875 45.625 122.613281 C 45.265625 122.253906 44.851562 121.980469 44.382812 121.785156 C 43.914062 121.589844 43.425781 121.496094 42.917969 121.496094 C 42.414062 121.496094 41.925781 121.59375 41.457031 121.789062 C 40.988281 121.980469 40.574219 122.257812 40.214844 122.617188 C 39.859375 122.976562 39.582031 123.386719 39.386719 123.855469 C 39.195312 124.324219 39.097656 124.8125 39.101562 125.316406 C 39.101562 125.824219 39.199219 126.308594 39.394531 126.777344 C 39.589844 127.246094 39.867188 127.65625 40.226562 128.015625 C 40.585938 128.371094 41 128.648438 41.46875 128.839844 C 41.9375 129.03125 42.425781 129.128906 42.933594 129.125 C 43.4375 129.125 43.921875 129.027344 44.386719 128.835938 C 44.855469 128.640625 45.265625 128.367188 45.621094 128.011719 C 45.980469 127.65625 46.253906 127.246094 46.449219 126.78125 C 46.644531 126.316406 46.742188 125.832031 46.746094 125.332031 Z M 46.746094 165.667969 C 46.746094 165.164062 46.648438 164.675781 46.453125 164.207031 C 46.261719 163.742188 45.984375 163.328125 45.625 162.96875 C 45.265625 162.613281 44.851562 162.335938 44.382812 162.144531 C 43.914062 161.949219 43.425781 161.851562 42.917969 161.855469 C 42.414062 161.855469 41.925781 161.953125 41.457031 162.144531 C 40.988281 162.339844 40.574219 162.617188 40.214844 162.972656 C 39.859375 163.332031 39.582031 163.746094 39.386719 164.214844 C 39.195312 164.683594 39.097656 165.167969 39.101562 165.675781 C 39.101562 166.179688 39.199219 166.667969 39.394531 167.136719 C 39.589844 167.601562 39.867188 168.015625 40.226562 168.371094 C 40.585938 168.730469 41 169.003906 41.46875 169.195312 C 41.9375 169.390625 42.425781 169.484375 42.933594 169.484375 C 43.4375 169.484375 43.925781 169.386719 44.390625 169.191406 C 44.859375 168.996094 45.273438 168.722656 45.628906 168.363281 C 45.988281 168.003906 46.261719 167.59375 46.457031 167.125 C 46.648438 166.660156 46.746094 166.175781 46.746094 165.667969 Z M 46.746094 206.027344 C 46.746094 205.519531 46.652344 205.03125 46.457031 204.5625 C 46.265625 204.097656 45.988281 203.683594 45.628906 203.324219 C 45.273438 202.964844 44.859375 202.6875 44.390625 202.492188 C 43.921875 202.300781 43.433594 202.203125 42.925781 202.203125 C 42.417969 202.199219 41.929688 202.296875 41.460938 202.492188 C 40.992188 202.683594 40.578125 202.960938 40.21875 203.320312 C 39.859375 203.675781 39.585938 204.089844 39.390625 204.558594 C 39.195312 205.027344 39.097656 205.511719 39.101562 206.019531 C 39.101562 206.527344 39.199219 207.011719 39.390625 207.480469 C 39.585938 207.949219 39.863281 208.363281 40.222656 208.71875 C 40.582031 209.078125 40.996094 209.351562 41.46875 209.542969 C 41.9375 209.738281 42.425781 209.832031 42.933594 209.832031 C 43.4375 209.832031 43.921875 209.734375 44.390625 209.539062 C 44.855469 209.347656 45.269531 209.070312 45.625 208.714844 C 45.984375 208.359375 46.257812 207.945312 46.453125 207.480469 C 46.648438 207.015625 46.746094 206.53125 46.746094 206.027344 Z M 46.746094 246.382812 C 46.742188 245.878906 46.640625 245.394531 46.445312 244.929688 C 46.246094 244.460938 45.96875 244.050781 45.609375 243.699219 C 45.246094 243.34375 44.832031 243.070312 44.363281 242.878906 C 43.894531 242.6875 43.40625 242.59375 42.898438 242.597656 C 42.394531 242.601562 41.90625 242.699219 41.441406 242.898438 C 40.972656 243.09375 40.5625 243.371094 40.207031 243.730469 C 39.847656 244.089844 39.574219 244.503906 39.382812 244.96875 C 39.191406 245.4375 39.097656 245.925781 39.101562 246.429688 C 39.101562 246.933594 39.199219 247.421875 39.394531 247.886719 C 39.59375 248.351562 39.871094 248.765625 40.230469 249.121094 C 40.589844 249.476562 41 249.75 41.46875 249.941406 C 41.9375 250.136719 42.425781 250.230469 42.933594 250.230469 C 43.441406 250.226562 43.929688 250.128906 44.398438 249.933594 C 44.867188 249.738281 45.28125 249.457031 45.640625 249.097656 C 45.996094 248.738281 46.273438 248.320312 46.464844 247.851562 C 46.65625 247.382812 46.75 246.890625 46.746094 246.382812 Z M 46.746094 286.734375 C 46.746094 286.226562 46.648438 285.738281 46.453125 285.273438 C 46.261719 284.804688 45.984375 284.390625 45.625 284.035156 C 45.265625 283.675781 44.851562 283.398438 44.382812 283.207031 C 43.914062 283.011719 43.425781 282.917969 42.917969 282.917969 C 42.414062 282.917969 41.925781 283.015625 41.457031 283.210938 C 40.988281 283.402344 40.574219 283.679688 40.214844 284.039062 C 39.859375 284.398438 39.582031 284.808594 39.386719 285.277344 C 39.195312 285.746094 39.097656 286.234375 39.101562 286.738281 C 39.101562 287.246094 39.199219 287.730469 39.394531 288.199219 C 39.589844 288.667969 39.867188 289.078125 40.226562 289.4375 C 40.585938 289.792969 41 290.066406 41.46875 290.261719 C 41.9375 290.453125 42.425781 290.550781 42.933594 290.546875 C 43.4375 290.546875 43.925781 290.449219 44.390625 290.253906 C 44.859375 290.058594 45.273438 289.785156 45.628906 289.425781 C 45.988281 289.070312 46.261719 288.65625 46.457031 288.191406 C 46.648438 287.722656 46.746094 287.238281 46.746094 286.734375 Z M 46.746094 327.089844 C 46.746094 326.585938 46.648438 326.097656 46.453125 325.628906 C 46.261719 325.160156 45.984375 324.75 45.625 324.390625 C 45.265625 324.035156 44.851562 323.757812 44.382812 323.566406 C 43.914062 323.371094 43.425781 323.273438 42.917969 323.273438 C 42.414062 323.277344 41.925781 323.371094 41.457031 323.566406 C 40.988281 323.761719 40.574219 324.039062 40.214844 324.394531 C 39.859375 324.753906 39.582031 325.167969 39.386719 325.636719 C 39.195312 326.101562 39.097656 326.589844 39.101562 327.097656 C 39.101562 327.601562 39.199219 328.089844 39.394531 328.558594 C 39.589844 329.023438 39.867188 329.4375 40.226562 329.792969 C 40.585938 330.152344 41 330.425781 41.46875 330.617188 C 41.9375 330.8125 42.425781 330.90625 42.933594 330.90625 C 43.4375 330.902344 43.925781 330.804688 44.390625 330.613281 C 44.859375 330.417969 45.273438 330.140625 45.628906 329.785156 C 45.988281 329.425781 46.261719 329.015625 46.457031 328.546875 C 46.648438 328.082031 46.746094 327.59375 46.746094 327.089844 Z M 46.746094 367.449219 C 46.75 366.941406 46.660156 366.453125 46.46875 365.980469 C 46.277344 365.511719 46.003906 365.09375 45.648438 364.734375 C 45.292969 364.371094 44.878906 364.09375 44.410156 363.894531 C 43.941406 363.695312 43.453125 363.597656 42.945312 363.59375 C 42.4375 363.589844 41.949219 363.683594 41.476562 363.878906 C 41.007812 364.070312 40.589844 364.34375 40.230469 364.699219 C 39.871094 365.058594 39.589844 365.472656 39.394531 365.9375 C 39.199219 366.40625 39.101562 366.894531 39.101562 367.402344 C 39.097656 367.910156 39.195312 368.398438 39.390625 368.867188 C 39.585938 369.335938 39.859375 369.75 40.21875 370.109375 C 40.582031 370.464844 40.996094 370.742188 41.464844 370.9375 C 41.933594 371.128906 42.425781 371.226562 42.933594 371.222656 C 43.433594 371.222656 43.917969 371.125 44.382812 370.933594 C 44.847656 370.742188 45.257812 370.46875 45.617188 370.117188 C 45.972656 369.765625 46.25 369.355469 46.445312 368.894531 C 46.640625 368.433594 46.742188 367.949219 46.746094 367.449219 Z M 7.636719 4.246094 C 7.636719 3.742188 7.539062 3.253906 7.347656 2.785156 C 7.152344 2.316406 6.878906 1.902344 6.519531 1.542969 C 6.160156 1.1875 5.75 0.910156 5.28125 0.714844 C 4.8125 0.519531 4.324219 0.421875 3.816406 0.421875 C 3.308594 0.421875 2.820312 0.519531 2.351562 0.710938 C 1.882812 0.90625 1.46875 1.179688 1.109375 1.539062 C 0.75 1.898438 0.472656 2.3125 0.28125 2.777344 C 0.0859375 3.246094 -0.0117188 3.734375 -0.0117188 4.242188 C -0.0117188 4.746094 0.0859375 5.234375 0.28125 5.703125 C 0.476562 6.167969 0.753906 6.582031 1.113281 6.941406 C 1.472656 7.296875 1.886719 7.574219 2.355469 7.765625 C 2.824219 7.957031 3.316406 8.054688 3.820312 8.054688 C 4.324219 8.050781 4.808594 7.949219 5.273438 7.753906 C 5.738281 7.558594 6.148438 7.285156 6.503906 6.929688 C 6.859375 6.570312 7.132812 6.160156 7.324219 5.699219 C 7.515625 5.234375 7.613281 4.75 7.617188 4.246094 Z M 7.636719 44.605469 C 7.636719 44.097656 7.539062 43.613281 7.347656 43.144531 C 7.15625 42.675781 6.878906 42.261719 6.519531 41.902344 C 6.164062 41.542969 5.75 41.269531 5.28125 41.074219 C 4.8125 40.878906 4.324219 40.78125 3.820312 40.78125 C 3.3125 40.777344 2.824219 40.875 2.355469 41.066406 C 1.886719 41.261719 1.472656 41.535156 1.113281 41.894531 C 0.753906 42.25 0.476562 42.664062 0.28125 43.132812 C 0.0859375 43.597656 -0.0117188 44.085938 -0.0117188 44.59375 C -0.0117188 45.097656 0.0859375 45.585938 0.277344 46.054688 C 0.472656 46.519531 0.75 46.933594 1.109375 47.292969 C 1.464844 47.648438 1.878906 47.925781 2.347656 48.121094 C 2.816406 48.3125 3.304688 48.410156 3.8125 48.410156 C 4.316406 48.40625 4.800781 48.308594 5.265625 48.117188 C 5.734375 47.921875 6.144531 47.644531 6.5 47.289062 C 6.855469 46.933594 7.128906 46.523438 7.324219 46.058594 C 7.515625 45.59375 7.613281 45.109375 7.617188 44.605469 Z M 7.636719 84.953125 C 7.636719 84.445312 7.539062 83.960938 7.34375 83.492188 C 7.148438 83.023438 6.875 82.613281 6.515625 82.253906 C 6.15625 81.894531 5.742188 81.621094 5.273438 81.425781 C 4.804688 81.234375 4.316406 81.136719 3.808594 81.136719 C 3.300781 81.136719 2.8125 81.234375 2.34375 81.429688 C 1.878906 81.625 1.464844 81.902344 1.105469 82.257812 C 0.746094 82.617188 0.472656 83.03125 0.277344 83.5 C 0.0859375 83.964844 -0.0117188 84.453125 -0.0117188 84.960938 C -0.0117188 85.464844 0.0898438 85.953125 0.28125 86.421875 C 0.476562 86.886719 0.753906 87.300781 1.113281 87.65625 C 1.472656 88.015625 1.886719 88.289062 2.359375 88.480469 C 2.828125 88.675781 3.316406 88.769531 3.820312 88.769531 C 4.328125 88.765625 4.8125 88.664062 5.277344 88.46875 C 5.742188 88.273438 6.152344 87.996094 6.507812 87.640625 C 6.863281 87.285156 7.136719 86.871094 7.328125 86.40625 C 7.519531 85.941406 7.617188 85.457031 7.617188 84.953125 Z M 7.636719 125.3125 C 7.636719 124.804688 7.539062 124.316406 7.34375 123.851562 C 7.148438 123.382812 6.875 122.972656 6.515625 122.613281 C 6.15625 122.253906 5.742188 121.980469 5.273438 121.785156 C 4.808594 121.59375 4.320312 121.496094 3.8125 121.496094 C 3.304688 121.496094 2.816406 121.59375 2.347656 121.785156 C 1.882812 121.980469 1.46875 122.253906 1.109375 122.613281 C 0.75 122.972656 0.472656 123.382812 0.28125 123.851562 C 0.0859375 124.316406 -0.0117188 124.804688 -0.0117188 125.3125 C -0.0117188 125.816406 0.0859375 126.304688 0.28125 126.769531 C 0.472656 127.238281 0.75 127.652344 1.109375 128.007812 C 1.46875 128.367188 1.882812 128.640625 2.347656 128.835938 C 2.816406 129.03125 3.304688 129.125 3.8125 129.125 C 4.316406 129.125 4.800781 129.027344 5.265625 128.832031 C 5.730469 128.636719 6.140625 128.363281 6.496094 128.007812 C 6.851562 127.652344 7.128906 127.242188 7.320312 126.78125 C 7.515625 126.316406 7.613281 125.832031 7.617188 125.332031 Z M 7.636719 165.667969 C 7.636719 165.164062 7.539062 164.675781 7.34375 164.207031 C 7.148438 163.742188 6.875 163.328125 6.515625 162.972656 C 6.15625 162.613281 5.742188 162.335938 5.273438 162.144531 C 4.808594 161.949219 4.320312 161.855469 3.8125 161.855469 C 3.304688 161.855469 2.816406 161.949219 2.347656 162.144531 C 1.878906 162.335938 1.46875 162.613281 1.109375 162.972656 C 0.75 163.328125 0.472656 163.742188 0.28125 164.207031 C 0.0859375 164.675781 -0.0117188 165.164062 -0.0117188 165.667969 C -0.0117188 166.175781 0.0859375 166.660156 0.28125 167.128906 C 0.472656 167.597656 0.75 168.007812 1.109375 168.367188 C 1.46875 168.722656 1.878906 169 2.347656 169.195312 C 2.816406 169.386719 3.304688 169.484375 3.8125 169.484375 C 4.316406 169.480469 4.804688 169.382812 5.269531 169.1875 C 5.734375 168.992188 6.148438 168.71875 6.503906 168.359375 C 6.859375 168.003906 7.132812 167.589844 7.328125 167.125 C 7.519531 166.65625 7.617188 166.171875 7.617188 165.667969 Z M 7.636719 206.027344 C 7.636719 205.519531 7.539062 205.03125 7.347656 204.566406 C 7.15625 204.097656 6.878906 203.683594 6.519531 203.324219 C 6.164062 202.964844 5.75 202.6875 5.28125 202.496094 C 4.8125 202.300781 4.324219 202.203125 3.820312 202.203125 C 3.3125 202.199219 2.824219 202.296875 2.355469 202.488281 C 1.886719 202.683594 1.472656 202.957031 1.113281 203.316406 C 0.753906 203.671875 0.476562 204.085938 0.28125 204.554688 C 0.0859375 205.019531 -0.0117188 205.507812 -0.0117188 206.011719 C -0.0117188 206.519531 0.0859375 207.007812 0.277344 207.472656 C 0.472656 207.941406 0.75 208.355469 1.109375 208.714844 C 1.464844 209.070312 1.878906 209.347656 2.347656 209.542969 C 2.816406 209.734375 3.304688 209.832031 3.8125 209.832031 C 4.316406 209.828125 4.800781 209.730469 5.265625 209.535156 C 5.730469 209.34375 6.144531 209.066406 6.5 208.710938 C 6.855469 208.355469 7.128906 207.945312 7.324219 207.480469 C 7.515625 207.015625 7.613281 206.53125 7.617188 206.027344 Z M 7.636719 246.382812 C 7.632812 245.878906 7.53125 245.394531 7.332031 244.929688 C 7.136719 244.460938 6.859375 244.050781 6.496094 243.699219 C 6.136719 243.34375 5.722656 243.070312 5.253906 242.878906 C 4.785156 242.6875 4.296875 242.59375 3.789062 242.597656 C 3.28125 242.601562 2.796875 242.699219 2.328125 242.898438 C 1.863281 243.09375 1.453125 243.371094 1.09375 243.730469 C 0.738281 244.089844 0.464844 244.503906 0.273438 244.96875 C 0.0820312 245.4375 -0.0117188 245.925781 -0.0117188 246.429688 C -0.0078125 246.933594 0.0898438 247.421875 0.285156 247.886719 C 0.480469 248.351562 0.757812 248.765625 1.117188 249.121094 C 1.476562 249.476562 1.890625 249.75 2.359375 249.941406 C 2.828125 250.136719 3.316406 250.230469 3.820312 250.230469 C 4.328125 250.226562 4.816406 250.125 5.28125 249.925781 C 5.75 249.730469 6.160156 249.453125 6.515625 249.089844 C 6.871094 248.730469 7.144531 248.316406 7.335938 247.847656 C 7.527344 247.378906 7.621094 246.890625 7.617188 246.382812 Z M 7.636719 286.734375 C 7.636719 286.226562 7.539062 285.738281 7.34375 285.273438 C 7.148438 284.804688 6.875 284.390625 6.515625 284.035156 C 6.15625 283.675781 5.742188 283.402344 5.273438 283.207031 C 4.808594 283.015625 4.320312 282.917969 3.8125 282.917969 C 3.304688 282.917969 2.816406 283.015625 2.347656 283.207031 C 1.878906 283.402344 1.46875 283.675781 1.109375 284.035156 C 0.75 284.390625 0.472656 284.804688 0.28125 285.273438 C 0.0859375 285.738281 -0.0117188 286.226562 -0.0117188 286.734375 C -0.0117188 287.238281 0.0859375 287.726562 0.28125 288.191406 C 0.472656 288.660156 0.75 289.074219 1.109375 289.429688 C 1.46875 289.789062 1.878906 290.0625 2.347656 290.257812 C 2.816406 290.449219 3.304688 290.546875 3.8125 290.546875 C 4.316406 290.546875 4.804688 290.445312 5.269531 290.25 C 5.734375 290.058594 6.148438 289.78125 6.503906 289.421875 C 6.859375 289.066406 7.132812 288.652344 7.328125 288.1875 C 7.519531 287.722656 7.617188 287.238281 7.617188 286.734375 Z M 7.636719 327.089844 C 7.636719 326.585938 7.539062 326.097656 7.34375 325.628906 C 7.148438 325.164062 6.875 324.75 6.515625 324.390625 C 6.15625 324.035156 5.742188 323.757812 5.273438 323.566406 C 4.808594 323.371094 4.320312 323.273438 3.8125 323.273438 C 3.304688 323.273438 2.816406 323.371094 2.347656 323.566406 C 1.882812 323.757812 1.46875 324.035156 1.109375 324.390625 C 0.75 324.75 0.472656 325.164062 0.28125 325.628906 C 0.0859375 326.097656 -0.0117188 326.585938 -0.0117188 327.089844 C -0.0117188 327.597656 0.0859375 328.082031 0.28125 328.550781 C 0.472656 329.019531 0.75 329.429688 1.109375 329.789062 C 1.46875 330.144531 1.882812 330.421875 2.347656 330.613281 C 2.816406 330.808594 3.304688 330.90625 3.8125 330.90625 C 4.316406 330.902344 4.804688 330.804688 5.269531 330.609375 C 5.734375 330.414062 6.148438 330.140625 6.503906 329.78125 C 6.859375 329.421875 7.132812 329.011719 7.328125 328.546875 C 7.519531 328.078125 7.617188 327.59375 7.617188 327.089844 Z M 7.636719 367.449219 C 7.640625 366.941406 7.546875 366.453125 7.359375 365.980469 C 7.167969 365.511719 6.894531 365.09375 6.539062 364.734375 C 6.179688 364.371094 5.769531 364.09375 5.300781 363.894531 C 4.832031 363.695312 4.34375 363.597656 3.835938 363.59375 C 3.328125 363.589844 2.835938 363.683594 2.367188 363.878906 C 1.894531 364.070312 1.480469 364.34375 1.121094 364.699219 C 0.757812 365.058594 0.480469 365.472656 0.285156 365.9375 C 0.0898438 366.40625 -0.0078125 366.894531 -0.0117188 367.402344 C -0.0117188 367.910156 0.0859375 368.398438 0.28125 368.867188 C 0.472656 369.335938 0.75 369.75 1.109375 370.109375 C 1.46875 370.464844 1.882812 370.742188 2.355469 370.9375 C 2.824219 371.128906 3.3125 371.226562 3.820312 371.222656 C 4.324219 371.21875 4.804688 371.121094 5.265625 370.929688 C 5.730469 370.738281 6.136719 370.464844 6.492188 370.109375 C 6.847656 369.757812 7.121094 369.351562 7.316406 368.890625 C 7.511719 368.429688 7.609375 367.949219 7.617188 367.449219 Z M 7.636719 367.449219 " fill-opacity="1" fill-rule="nonzero"/></g></g></g></g></g></svg>