<svg xmlns="http://www.w3.org/2000/svg" xmlns:xlink="http://www.w3.org/1999/xlink" width="137" zoomAndPan="magnify" viewBox="0 0 102.75 100.499997" height="134" preserveAspectRatio="xMidYMid meet" version="1.0"><defs><clipPath id="dc7f73afd9"><path d="M 0.128906 2 L 54 2 L 54 54 L 0.128906 54 Z M 0.128906 2 " clip-rule="nonzero"/></clipPath></defs><path fill="#c6d8fb" d="M 56.699219 45.011719 C 101.625 45.640625 88.097656 52.929688 52.785156 52.179688 C 52.863281 49.804688 52.921875 47.429688 52.980469 45.050781 C 54.175781 45.011719 55.429688 45.011719 56.699219 45.011719 Z M 42.84375 51.75 C 23.1875 50.433594 23.425781 46.722656 43 45.445312 C 42.960938 47.546875 42.902344 49.648438 42.84375 51.75 Z M 42.84375 51.75 " fill-opacity="1" fill-rule="evenodd"/><path fill="#428dff" d="M 56.699219 53.125 C 55.195312 52.949219 53.433594 53.476562 52.121094 52.808594 C 51.75 52.496094 51.90625 51.730469 51.886719 51.316406 C 51.945312 49.214844 52.003906 47.132812 52.042969 45.03125 C 52.042969 44.539062 52.453125 44.148438 52.941406 44.128906 C 59.011719 44.226562 84.730469 43.578125 86.257812 48.605469 C 86.257812 52.910156 61.632812 53.125 56.699219 53.125 Z M 53.707031 51.257812 C 66.742188 51.691406 83.597656 49.746094 84.222656 48.585938 C 83.617188 47.449219 66.9375 45.503906 53.863281 45.914062 C 53.824219 47.722656 53.765625 49.492188 53.707031 51.257812 Z M 84.476562 48.804688 Z M 42.84375 52.671875 C 27.339844 51.632812 27.066406 49.472656 27.144531 48.605469 C 27.144531 47.703125 27.144531 45.621094 42.941406 44.519531 C 43.46875 44.460938 43.9375 44.933594 43.917969 45.464844 C 43.878906 47.390625 43.820312 49.292969 43.78125 51.199219 C 43.820312 51.847656 43.644531 52.671875 42.84375 52.671875 Z M 29.199219 48.605469 C 30.175781 49.136719 33.542969 50.140625 41.941406 50.765625 C 41.980469 49.3125 42.019531 47.878906 42.058594 46.425781 C 33.582031 47.074219 30.175781 48.078125 29.199219 48.605469 Z M 29.199219 48.605469 " fill-opacity="1" fill-rule="nonzero"/><g clip-path="url(#dc7f73afd9)"><path fill="#428dff" d="M 52.765625 53.085938 C 49.242188 53.027344 45.875 52.890625 42.765625 52.671875 C 42.058594 52.632812 41.824219 51.90625 41.921875 51.296875 C 41.980469 39.726562 44.917969 21.085938 27.925781 22.148438 L 27.925781 29.179688 C 27.945312 29.828125 27.183594 30.320312 26.59375 30.003906 C 26.59375 30.003906 0.796875 17.058594 0.796875 17.058594 C 0.128906 16.746094 0.128906 15.722656 0.796875 15.410156 L 26.613281 2.464844 C 27.203125 2.152344 27.964844 2.621094 27.945312 3.289062 C 27.945312 3.289062 27.945312 10.34375 27.945312 10.34375 C 32.171875 10.382812 33.425781 10.539062 38.007812 12.089844 C 55.546875 18.082031 54.117188 35.917969 53.707031 51.453125 C 53.726562 52.121094 53.707031 53.066406 52.765625 53.085938 Z M 43.78125 50.90625 C 46.328125 51.0625 49.046875 51.179688 51.886719 51.238281 C 52.257812 36.566406 53.6875 19.359375 37.417969 13.820312 C 32.78125 12.246094 31.839844 12.1875 27.027344 12.148438 C 26.515625 12.148438 26.125 11.738281 26.125 11.226562 L 26.125 4.765625 L 3.261719 16.234375 L 26.105469 27.707031 L 26.105469 21.242188 C 26.105469 21.007812 26.203125 20.773438 26.378906 20.597656 C 26.554688 20.417969 26.847656 20.28125 27.027344 20.320312 C 31.878906 20.339844 36.480469 20.359375 40.472656 25.269531 C 45.367188 32.203125 43.703125 42.832031 43.78125 50.90625 Z M 43.78125 50.90625 " fill-opacity="1" fill-rule="nonzero"/></g><path fill="#c6d8fb" d="M 99.414062 28.179688 L 80.972656 38.667969 L 80.679688 32.832031 C 78.195312 32.972656 74.789062 33.324219 72.636719 34.503906 C 70.148438 35.839844 69.621094 38.472656 69.289062 41.0625 C 68.953125 43.675781 68.914062 48.175781 68.914062 51.847656 C 66.625 51.984375 64.179688 52.082031 61.613281 52.140625 C 61.242188 36.839844 62.320312 26.035156 80.308594 25.507812 L 80.015625 19.671875 Z M 99.414062 28.179688 " fill-opacity="1" fill-rule="evenodd"/><path fill="#428dff" d="M 61.59375 53.066406 C 60.222656 53.046875 60.792969 50.984375 60.675781 49.960938 C 60.183594 34.738281 63.355469 25.429688 79.328125 24.640625 L 79.074219 19.710938 C 79.015625 19.0625 79.761719 18.535156 80.347656 18.828125 L 99.785156 27.351562 C 100.46875 27.628906 100.507812 28.648438 99.863281 28.984375 L 81.425781 39.472656 C 80.855469 39.828125 80.074219 39.375 80.054688 38.726562 L 79.800781 33.816406 C 78.039062 33.953125 74.945312 34.285156 73.066406 35.328125 C 70.972656 36.46875 70.5 38.746094 70.167969 41.203125 C 69.914062 43.222656 69.796875 46.722656 69.796875 51.867188 C 69.796875 52.359375 69.425781 52.75 68.933594 52.789062 C 66.566406 52.910156 64.101562 53.007812 61.59375 53.066406 Z M 80.972656 21.105469 L 81.207031 25.46875 C 81.226562 25.976562 80.855469 26.410156 80.347656 26.429688 C 63.160156 26.882812 62.242188 37.015625 62.515625 51.21875 C 64.375 51.179688 66.214844 51.101562 67.996094 51.003906 C 68.015625 46.230469 68.132812 42.949219 68.386719 40.964844 C 68.738281 38.253906 69.367188 35.25 72.222656 33.71875 C 74.574219 32.421875 78.15625 32.066406 80.640625 31.929688 C 80.894531 31.910156 81.128906 31.988281 81.304688 32.164062 C 81.835938 32.324219 81.699219 36.113281 81.835938 37.15625 L 97.398438 28.296875 Z M 80.972656 21.105469 " fill-opacity="1" fill-rule="nonzero"/><path fill="#428dff" d="M 59.5 99.933594 L 35.207031 99.933594 C 34.699219 99.933594 34.289062 99.519531 34.289062 99.011719 L 34.289062 85.554688 C 34.289062 76.285156 32.09375 72.53125 31.859375 72.140625 C 27.417969 65.324219 25.734375 56.679688 27.183594 48.585938 C 27.320312 47.683594 28.691406 47.566406 28.945312 48.449219 C 29.84375 49.550781 40.257812 51.257812 56.679688 51.257812 C 73.105469 51.257812 83.539062 49.550781 84.457031 48.371094 C 86.90625 45.484375 86.808594 54.890625 86.90625 56.894531 C 86.90625 59.390625 90.113281 66.617188 89.976562 69.015625 C 90.171875 70.824219 89.722656 71.84375 86.53125 72.746094 C 84.652344 73.277344 84.457031 75.636719 84.378906 79.464844 C 84.085938 83.707031 84.398438 91.410156 79.171875 91.449219 C 79.171875 91.449219 61.789062 91.449219 61.789062 91.449219 C 61.261719 91.449219 60.382812 91.585938 60.382812 92.527344 L 60.382812 98.972656 C 60.421875 99.519531 60.007812 99.933594 59.5 99.933594 Z M 36.128906 98.085938 L 58.582031 98.085938 L 58.582031 92.546875 C 58.582031 90.523438 60.203125 89.621094 61.828125 89.621094 L 79.210938 89.621094 C 82.011719 90.25 82.539062 83.058594 82.578125 79.425781 C 82.65625 75.734375 82.753906 71.902344 86.0625 70.980469 C 88.292969 70.351562 88.273438 70.097656 88.175781 69.230469 C 88.15625 67.699219 87.6875 66.402344 86.886719 63.910156 C 84.730469 58.527344 85.28125 55.304688 84.613281 50.375 C 78.625 53.066406 57.679688 53.105469 56.679688 53.105469 C 54.15625 53.105469 34.542969 53.027344 28.75 50.355469 C 27.808594 57.582031 29.453125 65.085938 33.386719 71.136719 C 33.835938 71.863281 36.109375 75.96875 36.109375 85.554688 L 36.109375 98.085938 Z M 36.128906 98.085938 " fill-opacity="1" fill-rule="nonzero"/><path fill="#428dff" d="M 64.101562 25.210938 C 56.878906 25.015625 56.878906 14.410156 64.101562 14.210938 C 71.324219 14.410156 71.324219 25.015625 64.101562 25.210938 Z M 64.101562 16.058594 C 59.304688 16.136719 59.304688 23.285156 64.101562 23.386719 C 68.894531 23.285156 68.894531 16.136719 64.101562 16.058594 Z M 64.101562 16.058594 " fill-opacity="1" fill-rule="nonzero"/><path fill="#c6d8fb" d="M 53.414062 0.992188 C 61.242188 1.1875 61.242188 12.699219 53.414062 12.894531 C 45.582031 12.699219 45.582031 1.1875 53.414062 0.992188 Z M 53.414062 0.992188 " fill-opacity="1" fill-rule="evenodd"/><path fill="#428dff" d="M 53.414062 13.820312 C 44.386719 13.582031 44.386719 0.304688 53.414062 0.0703125 C 62.4375 0.304688 62.4375 13.582031 53.414062 13.820312 Z M 53.414062 1.914062 C 46.796875 2.09375 46.796875 11.816406 53.414062 11.992188 C 60.027344 11.796875 60.027344 2.074219 53.414062 1.914062 Z M 53.414062 1.914062 " fill-opacity="1" fill-rule="nonzero"/><path fill="#428dff" d="M 32.742188 41.339844 C 27.378906 41.203125 27.378906 33.304688 32.742188 33.167969 C 38.105469 33.304688 38.105469 41.179688 32.742188 41.339844 Z M 32.742188 34.992188 C 29.804688 35.054688 29.804688 39.433594 32.742188 39.492188 C 35.675781 39.433594 35.675781 35.054688 32.742188 34.992188 Z M 32.742188 34.992188 " fill-opacity="1" fill-rule="nonzero"/></svg>