<svg xmlns="http://www.w3.org/2000/svg" xmlns:xlink="http://www.w3.org/1999/xlink" width="168" zoomAndPan="magnify" viewBox="0 0 126 110.999996" height="148" preserveAspectRatio="xMidYMid meet" version="1.0"><defs><clipPath id="4160152e33"><path d="M 41 1.144531 L 45 1.144531 L 45 38 L 41 38 Z M 41 1.144531 " clip-rule="nonzero"/></clipPath><clipPath id="874ee8318d"><path d="M 41 102 L 44 102 L 44 108.394531 L 41 108.394531 Z M 41 102 " clip-rule="nonzero"/></clipPath><clipPath id="2491a8e2d4"><path d="M 79 48 L 123 48 L 123 110 L 79 110 Z M 79 48 " clip-rule="nonzero"/></clipPath><clipPath id="9bb1fb0cef"><path d="M 125.34375 109.609375 L 79.605469 110.5625 L 78.308594 48.328125 L 124.046875 47.375 Z M 125.34375 109.609375 " clip-rule="nonzero"/></clipPath><clipPath id="be7b0dd3de"><path d="M 125.34375 109.609375 L 79.605469 110.5625 L 78.308594 48.328125 L 124.046875 47.375 Z M 125.34375 109.609375 " clip-rule="nonzero"/></clipPath><clipPath id="a33f16b83c"><path d="M 125.34375 109.609375 L 79.605469 110.5625 L 78.308594 48.328125 L 124.046875 47.375 Z M 125.34375 109.609375 " clip-rule="nonzero"/></clipPath><clipPath id="17511fa3a5"><path d="M 89 1 L 99 1 L 99 52 L 89 52 Z M 89 1 " clip-rule="nonzero"/></clipPath><clipPath id="ba9fd3fd7d"><path d="M 68.664062 32.207031 L 92.984375 -0.175781 L 120.570312 20.539062 L 96.25 52.925781 Z M 68.664062 32.207031 " clip-rule="nonzero"/></clipPath><clipPath id="cd891bdea5"><path d="M 68.664062 32.207031 L 92.984375 -0.175781 L 120.570312 20.539062 L 96.25 52.925781 Z M 68.664062 32.207031 " clip-rule="nonzero"/></clipPath><clipPath id="b9e44db700"><path d="M 68.664062 32.207031 L 92.984375 -0.175781 L 120.570312 20.539062 L 96.25 52.925781 Z M 68.664062 32.207031 " clip-rule="nonzero"/></clipPath></defs><g clip-path="url(#4160152e33)"><path fill="#000000" d="M 44.742188 2.179688 C 44.507812 4.148438 44.351562 6.113281 44.273438 8.070312 L 44.273438 8.074219 L 44.273438 8.0625 C 44.246094 8.941406 44.234375 9.855469 44.246094 10.804688 L 44.246094 10.8125 C 44.246094 11.253906 44.277344 12.46875 44.34375 14.460938 L 44.34375 14.46875 C 44.355469 14.855469 44.359375 15.328125 44.359375 15.886719 C 44.363281 17.226562 44.339844 19.195312 44.292969 21.785156 L 44.292969 21.796875 L 44.167969 25.921875 L 44.167969 25.941406 C 44.0625 28.023438 43.988281 29.832031 43.941406 31.363281 L 43.941406 31.390625 C 43.816406 33.503906 43.714844 35.414062 43.644531 37.117188 C 43.621094 37.605469 43.207031 37.984375 42.71875 37.964844 C 42.230469 37.941406 41.851562 37.53125 41.871094 37.039062 C 41.945312 35.328125 42.046875 33.40625 42.171875 31.285156 L 42.171875 31.3125 C 42.214844 29.765625 42.292969 27.945312 42.398438 25.851562 L 42.398438 25.859375 L 42.398438 25.855469 L 42.394531 25.867188 L 42.523438 21.742188 L 42.523438 21.753906 C 42.566406 19.175781 42.589844 17.21875 42.589844 15.886719 C 42.585938 15.34375 42.582031 14.886719 42.574219 14.515625 L 42.574219 14.523438 L 42.574219 14.519531 C 42.503906 12.507812 42.472656 11.273438 42.472656 10.8125 L 42.472656 10.820312 C 42.460938 9.847656 42.472656 8.910156 42.5 8.007812 L 42.5 7.996094 L 42.5 8 C 42.582031 5.992188 42.742188 3.984375 42.980469 1.972656 C 43.039062 1.484375 43.480469 1.136719 43.964844 1.195312 C 44.449219 1.25 44.796875 1.691406 44.742188 2.179688 Z M 44.742188 2.179688 " fill-opacity="1" fill-rule="nonzero"/></g><path fill="#000000" d="M 49.222656 40.28125 C 46.996094 39.542969 45.300781 39.191406 44.140625 39.222656 C 44.125 39.222656 44.109375 39.222656 44.09375 39.222656 C 42.574219 39.183594 40.511719 39.28125 37.898438 39.515625 C 37.175781 39.585938 36.214844 39.796875 35.019531 40.152344 L 35.054688 40.140625 C 34.824219 40.21875 34.679688 40.289062 34.621094 40.347656 C 34.691406 40.277344 34.707031 40.191406 34.675781 40.089844 C 34.691406 40.136719 34.703125 40.1875 34.710938 40.242188 C 34.933594 42.039062 35.273438 43.175781 35.722656 43.644531 L 35.714844 43.632812 C 36.089844 44.011719 36.917969 44.171875 38.203125 44.121094 L 38.195312 44.121094 C 42.199219 43.910156 45.300781 43.628906 47.503906 43.269531 L 47.523438 43.269531 C 47.523438 43.269531 47.519531 43.269531 47.519531 43.269531 C 47.992188 43.167969 48.523438 41.980469 49.117188 39.710938 C 49.242188 39.234375 49.726562 38.953125 50.199219 39.074219 C 50.675781 39.199219 50.957031 39.683594 50.832031 40.15625 C 50.054688 43.132812 49.078125 44.746094 47.894531 45 C 47.851562 45.011719 47.8125 45.019531 47.769531 45.023438 L 47.785156 45.023438 C 45.523438 45.386719 42.355469 45.675781 38.285156 45.890625 L 38.277344 45.890625 C 36.46875 45.964844 35.199219 45.628906 34.457031 44.882812 L 34.449219 44.875 C 33.722656 44.121094 33.222656 42.652344 32.949219 40.460938 L 32.984375 40.613281 C 32.808594 40.054688 32.929688 39.558594 33.339844 39.128906 C 33.597656 38.855469 33.976562 38.632812 34.480469 38.460938 C 34.492188 38.457031 34.503906 38.453125 34.515625 38.453125 C 35.820312 38.0625 36.894531 37.828125 37.734375 37.75 L 37.738281 37.75 C 40.417969 37.511719 42.554688 37.410156 44.136719 37.453125 L 44.089844 37.453125 C 45.460938 37.414062 47.355469 37.796875 49.777344 38.597656 C 50.242188 38.75 50.496094 39.253906 50.339844 39.71875 C 50.1875 40.183594 49.6875 40.433594 49.222656 40.28125 Z M 49.222656 40.28125 " fill-opacity="1" fill-rule="nonzero"/><path fill="#000000" d="M 35.878906 46.125 C 34.097656 46.480469 28.625 50.859375 19.457031 59.261719 L 19.449219 59.265625 C 9.859375 67.941406 4.050781 73.890625 2.019531 77.109375 C 1.910156 77.289062 1.738281 77.417969 1.539062 77.484375 C 2.023438 77.324219 2.179688 76.972656 2.007812 76.433594 C 1.90625 76.113281 1.710938 75.925781 1.425781 75.871094 C 1.851562 75.949219 3.964844 75.914062 7.769531 75.765625 L 7.707031 75.769531 C 17.726562 74.671875 24.304688 74.082031 27.441406 74 L 27.417969 74 C 30.894531 73.816406 35.128906 73.757812 40.121094 73.824219 L 40.082031 73.828125 C 48.484375 73.578125 60.554688 74.515625 76.296875 76.640625 L 76.121094 76.632812 C 76.214844 76.628906 76.28125 76.617188 76.316406 76.601562 C 76.21875 76.644531 76.171875 76.71875 76.167969 76.824219 C 76.167969 76.824219 76.167969 76.820312 76.167969 76.816406 C 76.148438 76.5 75.808594 75.925781 75.152344 75.085938 L 75.214844 75.15625 L 55.433594 54.675781 L 55.609375 54.816406 C 55.554688 54.78125 55.5 54.738281 55.441406 54.691406 C 54.828125 54.175781 52.539062 51.078125 48.574219 45.390625 C 48.292969 44.992188 48.394531 44.4375 48.792969 44.15625 C 49.195312 43.878906 49.75 43.976562 50.027344 44.378906 C 53.90625 49.933594 56.089844 52.921875 56.585938 53.335938 C 56.574219 53.328125 56.558594 53.316406 56.535156 53.304688 C 56.601562 53.34375 56.660156 53.390625 56.710938 53.441406 L 76.488281 73.921875 C 76.507812 73.945312 76.53125 73.96875 76.546875 73.992188 C 77.429688 75.117188 77.890625 76.019531 77.9375 76.699219 C 77.941406 76.753906 77.941406 76.808594 77.941406 76.859375 L 77.941406 76.863281 C 77.925781 77.5 77.628906 77.953125 77.046875 78.214844 C 76.816406 78.320312 76.546875 78.382812 76.238281 78.402344 C 76.179688 78.40625 76.117188 78.40625 76.058594 78.398438 C 60.414062 76.285156 48.441406 75.351562 40.136719 75.597656 C 40.125 75.597656 40.109375 75.597656 40.097656 75.597656 C 35.144531 75.53125 30.949219 75.589844 27.511719 75.769531 L 27.488281 75.773438 C 24.402344 75.851562 17.871094 76.4375 7.898438 77.535156 C 7.878906 77.535156 7.855469 77.539062 7.835938 77.539062 C 3.90625 77.691406 1.664062 77.71875 1.113281 77.617188 C 0.695312 77.542969 0.433594 77.328125 0.320312 76.972656 C 0.136719 76.398438 0.359375 76.007812 0.984375 75.800781 C 0.988281 75.796875 0.996094 75.796875 1 75.792969 L 0.519531 76.167969 C 2.636719 72.804688 8.550781 66.734375 18.261719 57.949219 L 18.257812 57.953125 C 27.667969 49.328125 33.429688 44.804688 35.535156 44.386719 C 36.015625 44.289062 36.480469 44.601562 36.574219 45.082031 C 36.671875 45.5625 36.359375 46.03125 35.878906 46.125 Z M 35.878906 46.125 " fill-opacity="1" fill-rule="nonzero"/><path fill="#000000" d="M 48.320312 74.742188 C 49.675781 75.644531 50.558594 78.222656 50.96875 82.476562 L 50.96875 82.457031 C 51.367188 85.859375 51.070312 88.714844 50.085938 91.023438 L 50.078125 91.039062 C 48.007812 95.667969 44.234375 97.773438 38.757812 97.351562 L 38.78125 97.355469 C 32.472656 97.058594 28.769531 95.027344 27.667969 91.261719 L 27.664062 91.253906 C 26.945312 88.707031 26.996094 85.75 27.816406 82.386719 L 27.804688 82.433594 C 28.402344 79.265625 29.523438 76.710938 31.179688 74.765625 C 31.496094 74.390625 32.054688 74.347656 32.429688 74.664062 C 32.800781 74.980469 32.847656 75.539062 32.53125 75.914062 C 31.078125 77.621094 30.085938 79.902344 29.546875 82.761719 C 29.546875 82.777344 29.542969 82.792969 29.539062 82.808594 C 28.789062 85.871094 28.734375 88.523438 29.371094 90.773438 L 29.371094 90.765625 C 30.234375 93.722656 33.398438 95.328125 38.867188 95.582031 L 38.890625 95.585938 C 43.539062 95.941406 46.730469 94.183594 48.460938 90.316406 L 48.453125 90.328125 C 49.316406 88.308594 49.570312 85.753906 49.207031 82.664062 L 49.207031 82.644531 C 48.847656 78.953125 48.226562 76.808594 47.335938 76.214844 C 46.929688 75.945312 46.820312 75.394531 47.089844 74.988281 C 47.363281 74.578125 47.914062 74.46875 48.320312 74.742188 Z M 48.320312 74.742188 " fill-opacity="1" fill-rule="nonzero"/><path fill="#000000" d="M 1.675781 76.203125 C 2.710938 76.527344 3.976562 76.957031 5.476562 77.492188 C 5.488281 77.496094 5.5 77.503906 5.511719 77.507812 C 8.765625 78.84375 11.183594 79.78125 12.773438 80.328125 L 12.769531 80.324219 C 14.882812 81.035156 16.089844 81.425781 16.390625 81.496094 C 16.40625 81.5 16.421875 81.503906 16.4375 81.511719 L 16.449219 81.515625 L 16.4375 81.511719 C 17.160156 81.726562 17.761719 81.898438 18.242188 82.019531 L 18.234375 82.019531 L 25.199219 83.777344 L 25.179688 83.773438 C 26.191406 84.003906 27.207031 84.148438 28.226562 84.199219 C 28.714844 84.226562 29.09375 84.640625 29.066406 85.132812 C 29.042969 85.621094 28.625 85.996094 28.136719 85.972656 C 27.011719 85.914062 25.894531 85.753906 24.78125 85.5 L 24.765625 85.496094 L 17.800781 83.738281 L 17.796875 83.738281 C 17.296875 83.609375 16.675781 83.433594 15.929688 83.207031 L 15.917969 83.203125 L 15.976562 83.222656 C 15.625 83.136719 14.367188 82.730469 12.203125 82.007812 L 12.199219 82.003906 C 10.578125 81.449219 8.125 80.496094 4.839844 79.148438 L 4.878906 79.164062 C 3.402344 78.636719 2.15625 78.210938 1.148438 77.894531 C 0.679688 77.75 0.417969 77.253906 0.566406 76.785156 C 0.710938 76.320312 1.207031 76.058594 1.675781 76.203125 Z M 1.675781 76.203125 " fill-opacity="1" fill-rule="nonzero"/><path fill="#000000" d="M 50.421875 83.921875 C 52.453125 83.964844 54.007812 83.898438 55.082031 83.726562 L 55.097656 83.722656 C 61.691406 82.796875 65.375 82.167969 66.148438 81.835938 C 66.191406 81.816406 66.238281 81.800781 66.285156 81.789062 C 70.988281 80.613281 74.167969 79.054688 75.824219 77.105469 C 76.140625 76.734375 76.699219 76.6875 77.074219 77.003906 C 77.445312 77.320312 77.492188 77.878906 77.175781 78.253906 C 75.273438 80.492188 71.785156 82.242188 66.714844 83.507812 L 66.851562 83.464844 C 65.933594 83.859375 62.097656 84.53125 55.34375 85.480469 L 55.363281 85.476562 C 54.183594 85.667969 52.523438 85.738281 50.386719 85.695312 C 49.898438 85.6875 49.507812 85.28125 49.519531 84.792969 C 49.53125 84.300781 49.933594 83.914062 50.421875 83.921875 Z M 50.421875 83.921875 " fill-opacity="1" fill-rule="nonzero"/><path fill="#000000" d="M 17.9375 65.601562 C 18.914062 63.136719 21.21875 60.1875 24.84375 56.746094 C 25.199219 56.410156 25.761719 56.425781 26.097656 56.78125 C 26.433594 57.136719 26.417969 57.695312 26.0625 58.035156 C 22.628906 61.292969 20.464844 64.035156 19.582031 66.257812 C 19.402344 66.710938 18.886719 66.933594 18.433594 66.753906 C 17.976562 66.570312 17.753906 66.054688 17.9375 65.601562 Z M 17.9375 65.601562 " fill-opacity="1" fill-rule="nonzero"/><path fill="#000000" d="M 27.617188 54.21875 C 28.441406 53.269531 29.375 52.382812 30.410156 51.554688 C 30.792969 51.25 31.351562 51.3125 31.65625 51.695312 C 31.960938 52.078125 31.898438 52.636719 31.515625 52.941406 C 30.5625 53.699219 29.710938 54.515625 28.953125 55.382812 C 28.632812 55.753906 28.074219 55.792969 27.703125 55.472656 C 27.335938 55.148438 27.296875 54.589844 27.617188 54.21875 Z M 27.617188 54.21875 " fill-opacity="1" fill-rule="nonzero"/><path fill="#000000" d="M 5.984375 70.71875 C 7.957031 70.605469 9.171875 70.519531 9.636719 70.464844 C 13.71875 69.988281 16.523438 69.691406 18.046875 69.574219 L 18.054688 69.574219 C 21.074219 69.375 23.609375 69.257812 25.667969 69.21875 L 25.652344 69.21875 C 27.433594 69.15625 30.480469 69.148438 34.785156 69.195312 L 34.777344 69.195312 L 34.792969 69.195312 C 36.425781 69.222656 38.253906 69.28125 40.277344 69.375 L 40.25 69.371094 L 46.101562 69.449219 C 46.398438 69.453125 47.292969 69.4375 48.789062 69.398438 L 48.808594 69.398438 C 50.082031 69.390625 50.785156 69.386719 50.925781 69.378906 L 50.929688 69.378906 L 53.625 69.25 L 53.644531 69.25 L 59.554688 69.085938 C 59.566406 69.085938 59.574219 69.085938 59.582031 69.085938 C 60.589844 69.085938 61.75 69.097656 63.0625 69.117188 L 63.085938 69.121094 L 63.078125 69.117188 C 63.9375 69.148438 64.96875 69.199219 66.179688 69.277344 L 66.109375 69.273438 C 66.789062 69.265625 67.589844 69.269531 68.507812 69.292969 L 68.496094 69.292969 C 68.628906 69.296875 68.953125 69.292969 69.46875 69.285156 L 69.445312 69.285156 L 71.277344 69.210938 C 71.765625 69.1875 72.179688 69.570312 72.199219 70.058594 C 72.21875 70.546875 71.839844 70.960938 71.351562 70.980469 L 69.519531 71.058594 L 69.492188 71.058594 C 68.964844 71.066406 68.625 71.070312 68.476562 71.066406 L 68.460938 71.066406 C 67.570312 71.042969 66.796875 71.039062 66.140625 71.046875 C 66.117188 71.046875 66.09375 71.046875 66.070312 71.046875 C 64.875 70.972656 63.859375 70.917969 63.019531 70.890625 L 63.011719 70.890625 L 63.035156 70.890625 C 61.730469 70.871094 60.578125 70.859375 59.578125 70.859375 L 59.605469 70.859375 L 53.691406 71.023438 L 53.710938 71.023438 L 51.011719 71.148438 L 51.019531 71.148438 C 50.851562 71.15625 50.117188 71.164062 48.816406 71.167969 L 48.835938 71.167969 C 47.316406 71.210938 46.398438 71.226562 46.078125 71.222656 L 40.226562 71.144531 C 40.21875 71.144531 40.207031 71.144531 40.199219 71.144531 C 38.191406 71.054688 36.378906 70.996094 34.765625 70.96875 L 34.777344 70.96875 L 34.765625 70.96875 C 30.488281 70.921875 27.46875 70.929688 25.714844 70.988281 L 25.703125 70.988281 C 23.671875 71.027344 21.160156 71.144531 18.171875 71.34375 L 18.179688 71.339844 C 16.683594 71.457031 13.902344 71.753906 9.84375 72.226562 C 9.34375 72.285156 8.09375 72.375 6.085938 72.488281 C 5.597656 72.519531 5.179688 72.144531 5.152344 71.65625 C 5.125 71.167969 5.496094 70.746094 5.984375 70.71875 Z M 5.984375 70.71875 " fill-opacity="1" fill-rule="nonzero"/><path fill="#000000" d="M 42.628906 74.292969 C 43.6875 75.441406 44.355469 76.738281 44.632812 78.179688 C 44.640625 78.207031 44.644531 78.230469 44.644531 78.257812 C 44.785156 79.621094 44.183594 80.550781 42.839844 81.042969 C 42.820312 81.050781 42.800781 81.058594 42.78125 81.0625 C 41.617188 81.40625 40.636719 80.839844 39.839844 79.363281 L 39.832031 79.347656 C 39.320312 78.355469 39.085938 77.023438 39.125 75.359375 C 39.136719 74.867188 39.542969 74.480469 40.03125 74.492188 C 40.519531 74.503906 40.90625 74.910156 40.894531 75.398438 C 40.863281 76.765625 41.035156 77.808594 41.410156 78.535156 L 41.402344 78.523438 C 41.742188 79.15625 42.035156 79.433594 42.285156 79.363281 L 42.226562 79.382812 C 42.710938 79.203125 42.929688 78.886719 42.882812 78.4375 L 42.894531 78.515625 C 42.679688 77.402344 42.15625 76.398438 41.328125 75.496094 C 40.996094 75.132812 41.019531 74.574219 41.378906 74.242188 C 41.738281 73.910156 42.296875 73.933594 42.628906 74.292969 Z M 42.628906 74.292969 " fill-opacity="1" fill-rule="nonzero"/><path fill="#000000" d="M 40.269531 78.945312 C 38.699219 80.847656 37.371094 81.675781 36.285156 81.421875 C 36.171875 81.394531 36.0625 81.355469 35.957031 81.308594 C 35.8125 81.242188 35.675781 81.15625 35.550781 81.050781 C 35.394531 80.921875 35.253906 80.769531 35.132812 80.585938 C 35.101562 80.539062 35.074219 80.488281 35.050781 80.4375 C 34.597656 79.390625 34.597656 78.199219 35.046875 76.859375 L 35.046875 76.863281 C 35.429688 75.699219 36.128906 74.800781 37.144531 74.175781 C 37.558594 73.917969 38.105469 74.046875 38.363281 74.460938 C 38.621094 74.878906 38.492188 75.425781 38.074219 75.683594 C 37.429688 76.082031 36.980469 76.664062 36.730469 77.421875 L 36.726562 77.425781 C 36.421875 78.335938 36.40625 79.105469 36.675781 79.734375 L 36.597656 79.589844 C 36.625 79.632812 36.652344 79.664062 36.679688 79.683594 C 36.683594 79.691406 36.691406 79.691406 36.695312 79.695312 C 36.691406 79.695312 36.691406 79.695312 36.691406 79.695312 C 37.0625 79.78125 37.796875 79.15625 38.902344 77.816406 C 39.214844 77.4375 39.773438 77.386719 40.152344 77.695312 C 40.527344 78.007812 40.582031 78.566406 40.269531 78.945312 Z M 40.269531 78.945312 " fill-opacity="1" fill-rule="nonzero"/><path fill="#000000" d="M 26.628906 103 C 26.0625 103.375 25.183594 104.273438 23.984375 105.691406 C 23.667969 106.0625 23.109375 106.109375 22.734375 105.792969 C 22.363281 105.480469 22.316406 104.917969 22.632812 104.546875 C 23.9375 103 24.941406 101.992188 25.644531 101.523438 C 26.054688 101.253906 26.601562 101.363281 26.875 101.769531 C 27.144531 102.175781 27.035156 102.726562 26.628906 103 Z M 26.628906 103 " fill-opacity="1" fill-rule="nonzero"/><path fill="#000000" d="M 35.816406 103.476562 C 35.34375 104.425781 34.847656 105.628906 34.320312 107.082031 C 34.15625 107.542969 33.648438 107.78125 33.1875 107.613281 C 32.726562 107.449219 32.488281 106.941406 32.652344 106.480469 C 33.203125 104.960938 33.726562 103.695312 34.226562 102.6875 C 34.445312 102.25 34.976562 102.070312 35.417969 102.289062 C 35.855469 102.507812 36.035156 103.039062 35.816406 103.476562 Z M 35.816406 103.476562 " fill-opacity="1" fill-rule="nonzero"/><g clip-path="url(#874ee8318d)"><path fill="#000000" d="M 43.269531 102.898438 L 43.269531 102.882812 L 43.269531 102.898438 C 43.292969 103.089844 43.3125 103.324219 43.320312 103.597656 L 43.320312 103.601562 C 43.324219 103.75 43.324219 103.925781 43.324219 104.128906 C 43.328125 104.226562 43.324219 104.332031 43.324219 104.4375 L 43.324219 104.433594 C 43.324219 104.535156 43.324219 104.71875 43.320312 104.984375 C 43.320312 105 43.320312 105.054688 43.320312 105.152344 L 43.320312 105.148438 C 43.320312 105.40625 43.324219 105.628906 43.328125 105.816406 L 43.328125 105.835938 L 43.328125 105.820312 C 43.335938 106.316406 43.355469 106.851562 43.390625 107.429688 C 43.414062 107.921875 43.042969 108.339844 42.550781 108.363281 C 42.0625 108.390625 41.644531 108.015625 41.617188 107.527344 C 41.585938 106.929688 41.566406 106.371094 41.554688 105.851562 L 41.554688 105.835938 L 41.554688 105.855469 C 41.550781 105.652344 41.546875 105.417969 41.546875 105.152344 L 41.546875 105.148438 C 41.546875 105.046875 41.546875 104.984375 41.546875 104.964844 L 41.546875 104.96875 C 41.550781 104.707031 41.550781 104.527344 41.554688 104.429688 L 41.554688 104.425781 C 41.554688 104.324219 41.554688 104.230469 41.554688 104.136719 C 41.550781 103.945312 41.550781 103.78125 41.546875 103.648438 C 41.539062 103.433594 41.527344 103.257812 41.511719 103.121094 L 41.511719 103.132812 C 41.449219 102.636719 41.792969 102.191406 42.277344 102.128906 C 42.765625 102.066406 43.207031 102.410156 43.269531 102.898438 Z M 43.269531 102.898438 " fill-opacity="1" fill-rule="nonzero"/></g><path fill="#000000" d="M 50.511719 101.492188 C 50.617188 101.648438 50.695312 101.753906 50.738281 101.808594 L 50.722656 101.792969 C 51.199219 102.363281 51.519531 102.765625 51.683594 102.988281 L 51.671875 102.976562 L 51.671875 102.972656 C 51.898438 103.273438 52.148438 103.640625 52.421875 104.074219 C 52.683594 104.488281 52.5625 105.035156 52.148438 105.296875 C 51.734375 105.558594 51.1875 105.4375 50.925781 105.023438 C 50.675781 104.632812 50.453125 104.304688 50.253906 104.042969 L 50.253906 104.039062 L 50.246094 104.027344 C 50.105469 103.835938 49.8125 103.46875 49.359375 102.925781 L 49.347656 102.90625 C 49.277344 102.820312 49.179688 102.683594 49.054688 102.5 C 48.773438 102.097656 48.875 101.542969 49.28125 101.265625 C 49.683594 100.988281 50.234375 101.089844 50.511719 101.492188 Z M 50.511719 101.492188 " fill-opacity="1" fill-rule="nonzero"/><g clip-path="url(#2491a8e2d4)"><g clip-path="url(#9bb1fb0cef)"><g clip-path="url(#be7b0dd3de)"><g clip-path="url(#a33f16b83c)"><path fill="#000000" d="M 106.351562 66.554688 C 106.34375 65.519531 106.320312 64.488281 106.292969 63.457031 C 106.242188 60.265625 105.800781 57.074219 104.769531 54.050781 C 104.777344 54.066406 104.777344 54.066406 104.777344 54.066406 C 103.929688 51.445312 102.253906 48.695312 99.308594 48.3125 C 96.769531 47.972656 94.210938 48.984375 92.105469 50.347656 C 90.289062 51.605469 89.230469 53.707031 88.863281 55.859375 C 88.457031 57.816406 88.820312 59.804688 89.191406 61.734375 C 89.449219 63.277344 89.621094 64.828125 89.820312 66.378906 C 89.863281 66.8125 89.929688 67.246094 89.992188 67.679688 C 89.898438 67.765625 89.824219 67.875 89.792969 68.003906 C 89.648438 68.589844 89.464844 69.167969 89.289062 69.746094 C 88.78125 71.257812 88.183594 72.738281 87.609375 74.226562 C 87.066406 75.652344 86.347656 77.011719 85.429688 78.230469 C 84.304688 79.753906 83.066406 81.203125 82.144531 82.867188 C 80.789062 85.488281 79.765625 88.339844 79.5 91.300781 C 79.261719 94.222656 79.546875 97.40625 81.285156 99.851562 C 82.273438 101.1875 83.53125 102.292969 84.742188 103.421875 C 87.519531 106.132812 90.957031 108.28125 94.800781 108.964844 C 98.601562 109.691406 102.613281 110.054688 106.355469 108.84375 C 106.765625 108.707031 107.167969 108.558594 107.5625 108.402344 C 108.539062 108.179688 109.496094 107.890625 110.425781 107.527344 C 121.417969 102.878906 124.949219 90.679688 119.820312 80.15625 C 118.226562 76.65625 115.832031 73.566406 112.730469 71.308594 C 110.6875 69.636719 107.320312 69.296875 106.339844 66.664062 C 106.347656 66.628906 106.351562 66.59375 106.351562 66.554688 Z M 98.609375 86.554688 C 98.636719 88.269531 99.261719 91.78125 98.335938 93.144531 C 97.847656 93.695312 96.964844 93.414062 96.414062 93.09375 C 95.382812 92.371094 95.203125 90.808594 95.484375 89.65625 C 95.980469 88.191406 97.347656 87.300781 98.609375 86.554688 Z M 97.773438 70.023438 C 97.609375 69.3125 97.527344 68.5625 97.261719 67.886719 C 97.144531 67.621094 96.949219 67.464844 96.730469 67.398438 C 97.738281 67.109375 98.769531 66.914062 99.808594 66.769531 C 99.703125 66.902344 99.691406 67.105469 99.839844 67.230469 C 99.433594 69.308594 99.898438 71.421875 100.226562 73.480469 C 100.511719 74.894531 100.773438 76.320312 101.089844 77.730469 C 101.386719 79.648438 101.808594 81.550781 102.289062 83.433594 C 101.488281 83.605469 100.722656 83.890625 99.957031 84.171875 C 99.433594 79.429688 98.6875 74.703125 97.773438 70.023438 Z M 108.699219 89.796875 C 108.335938 90.277344 107.691406 89.832031 107.335938 89.550781 C 105.8125 88.292969 105.230469 86.300781 104.597656 84.492188 C 104.917969 84.445312 105.238281 84.40625 105.558594 84.375 C 108.996094 83.863281 110.707031 87.046875 108.699219 89.796875 Z M 100.730469 66.925781 C 100.792969 67.804688 100.734375 68.691406 100.703125 69.566406 C 100.65625 70.15625 100.628906 70.746094 100.617188 71.335938 C 100.542969 70.859375 100.476562 70.382812 100.414062 69.902344 C 100.347656 69.097656 100.347656 68.285156 100.472656 67.492188 C 100.492188 67.277344 100.636719 67.066406 100.554688 66.855469 C 100.527344 66.785156 100.480469 66.734375 100.421875 66.703125 C 100.511719 66.695312 100.601562 66.6875 100.691406 66.679688 C 100.683594 66.761719 100.695312 66.847656 100.734375 66.929688 Z M 101.523438 65.5625 C 99.121094 65.566406 96.679688 65.832031 94.414062 66.667969 C 93.667969 66.941406 92.9375 67.253906 92.210938 67.574219 C 92.242188 66.941406 92.191406 66.214844 92.109375 65.507812 C 92.476562 65.363281 92.847656 65.222656 93.21875 65.082031 C 96.25 63.972656 102.136719 62.789062 104.960938 64.617188 C 104.984375 64.621094 105.007812 64.625 105.03125 64.625 C 105.085938 65.105469 105.144531 65.585938 105.214844 66.0625 C 104.242188 65.554688 102.484375 65.613281 101.527344 65.566406 Z M 103.867188 57.027344 C 103.773438 57.152344 103.679688 57.285156 103.847656 57.5 C 103.890625 57.558594 103.953125 57.597656 104.023438 57.621094 C 104.078125 57.855469 104.132812 58.089844 104.179688 58.324219 C 104.285156 58.789062 104.371094 59.257812 104.449219 59.726562 C 102.96875 59.144531 101.3125 59.140625 99.746094 59.027344 C 96.789062 58.777344 93.925781 59.714844 91.328125 61.070312 C 91.234375 60.398438 91.179688 59.714844 91.195312 59.039062 C 91.703125 58.804688 92.226562 58.402344 92.65625 58.269531 C 94.375 57.464844 96.1875 56.890625 98.035156 56.472656 C 99.730469 56.191406 102.140625 55.53125 103.707031 56.5 C 103.765625 56.675781 103.820312 56.851562 103.871094 57.027344 Z M 91.570312 62.417969 C 91.566406 62.398438 91.5625 62.378906 91.558594 62.359375 C 94.535156 60.882812 96.867188 59.890625 100.382812 59.941406 C 101.691406 59.964844 103.28125 59.835938 104.542969 60.316406 C 104.699219 61.398438 104.804688 62.484375 104.917969 63.574219 C 104.535156 63.308594 104.03125 63.121094 103.699219 63 C 102.296875 62.527344 100.800781 62.421875 99.332031 62.429688 C 96.796875 62.539062 94.195312 62.890625 91.878906 63.980469 C 91.757812 63.296875 91.632812 62.730469 91.570312 62.417969 Z M 100.464844 54.792969 C 97.941406 54.835938 95.425781 55.335938 93.050781 56.199219 C 92.523438 56.386719 92.011719 56.621094 91.515625 56.878906 C 92.152344 55.171875 92.699219 53.226562 94.179688 52.0625 C 96.949219 49.972656 100.914062 51.539062 102.597656 54.308594 C 102.8125 54.589844 102.996094 54.886719 103.15625 55.191406 C 102.203125 54.875 101.070312 54.753906 100.464844 54.792969 Z M 102.570312 51.671875 C 101.265625 50.421875 99.617188 49.582031 97.703125 49.398438 C 97.066406 49.332031 96.425781 49.375 95.796875 49.507812 C 96.222656 49.382812 96.652344 49.285156 97.09375 49.222656 C 99.722656 48.796875 101.421875 49.90625 102.570312 51.671875 Z M 90.664062 52.945312 C 91.332031 51.855469 92.332031 50.988281 93.476562 50.433594 C 93.597656 50.375 93.71875 50.316406 93.84375 50.257812 C 92.914062 50.796875 92.113281 51.558594 91.558594 52.488281 C 90.535156 54.328125 89.570312 56.316406 89.375 58.445312 C 89.296875 56.53125 89.667969 54.582031 90.664062 52.945312 Z M 88.175781 104.910156 C 87.078125 104.121094 86.125 103.152344 85.152344 102.214844 C 83.679688 100.773438 82.054688 99.339844 81.339844 97.335938 C 80.496094 94.972656 80.476562 92.375 80.890625 89.917969 C 81.296875 87.746094 82.117188 85.671875 83.117188 83.710938 C 83.707031 82.597656 84.476562 81.601562 85.261719 80.621094 C 84.1875 82.675781 83.253906 84.804688 82.5625 87.023438 C 79.648438 96.101562 85.445312 104.882812 93.925781 107.714844 C 93.609375 107.632812 93.300781 107.546875 92.992188 107.445312 C 91.277344 106.835938 89.644531 105.992188 88.175781 104.910156 Z M 111.90625 73.066406 C 113.183594 74.113281 114.328125 75.316406 115.324219 76.632812 C 113.890625 75.203125 112.246094 74.074219 110.089844 72.617188 C 108.949219 71.847656 107.746094 71.125 106.867188 70.039062 C 106.472656 69.5625 106.15625 69.027344 105.839844 68.496094 C 105.667969 68.226562 105.441406 67.664062 105.046875 67.898438 C 104.917969 67.992188 104.988281 68.191406 105.117188 68.222656 C 105.546875 69.214844 105.992188 70.226562 106.722656 71.035156 C 108.007812 72.515625 109.75 73.484375 111.277344 74.6875 C 112.507812 75.632812 113.757812 76.570312 114.816406 77.714844 C 115.652344 78.644531 116.371094 79.667969 117.019531 80.738281 C 118.070312 82.5 118.96875 84.375 119.535156 86.355469 C 119.761719 87.632812 119.878906 88.925781 119.875 90.21875 C 120.0625 96.828125 115.609375 103 109.683594 105.546875 C 104.605469 107.527344 98.625 107.355469 93.5625 105.375 C 87.941406 103.15625 83.644531 97.496094 84.03125 91.261719 C 84.394531 86.539062 86.882812 82.308594 89.203125 78.304688 C 90.765625 75.75 92.722656 72.847656 92.019531 69.699219 C 92 69.59375 91.976562 69.476562 91.953125 69.359375 C 92.078125 69.367188 92.207031 69.347656 92.324219 69.289062 C 93.382812 68.757812 94.4375 68.210938 95.539062 67.785156 C 95.59375 67.765625 95.644531 67.75 95.699219 67.730469 C 95.597656 67.863281 95.535156 68.035156 95.53125 68.226562 C 95.101562 67.933594 94.511719 68.394531 94.738281 68.90625 C 94.945312 69.433594 95.207031 69.9375 95.402344 70.46875 C 95.710938 71.335938 95.875 72.238281 96.011719 73.148438 C 96.511719 76.257812 97.308594 79.3125 97.777344 82.429688 C 97.898438 83.273438 98.097656 84.109375 98.175781 84.957031 C 96.597656 85.78125 95.011719 86.851562 94.261719 88.53125 C 93.519531 90.179688 93.8125 92.351562 94.996094 93.71875 C 96.292969 95.136719 99.105469 95.359375 99.859375 93.273438 C 100.347656 92.003906 100.199219 90.609375 100.214844 89.28125 C 100.195312 88.132812 100.152344 86.984375 100.082031 85.835938 C 100.945312 85.472656 101.8125 85.109375 102.726562 84.886719 C 103.644531 87.429688 105.464844 91.996094 108.765625 91.542969 C 109.089844 91.425781 109.367188 91.253906 109.609375 91.03125 C 110.460938 90.964844 110.636719 90.371094 110.75 89.433594 C 110.832031 87.710938 111.210938 85.671875 109.925781 84.296875 C 109.488281 83.828125 109.003906 83.390625 108.445312 83.082031 C 107.382812 82.601562 106.160156 82.34375 105.011719 82.628906 C 104.734375 82.695312 104.453125 82.765625 104.175781 82.84375 C 103.460938 79.492188 102.714844 76.140625 102.34375 72.730469 C 102.257812 71.574219 102.199219 70.414062 102.109375 69.253906 C 102 68.734375 102.085938 67.324219 101.773438 66.613281 C 102.339844 66.589844 102.910156 66.585938 103.476562 66.605469 C 103.953125 66.632812 104.4375 66.660156 104.898438 66.804688 C 104.761719 66.886719 104.667969 66.914062 104.503906 66.953125 C 104.339844 66.996094 104.25 67.179688 104.296875 67.339844 C 104.457031 67.765625 104.972656 67.445312 105.257812 67.339844 C 105.289062 67.328125 105.324219 67.316406 105.351562 67.300781 C 105.382812 67.359375 105.425781 67.410156 105.476562 67.453125 C 106.292969 70.511719 109.796875 71.144531 111.90625 73.066406 Z M 111.90625 73.066406 " fill-opacity="1" fill-rule="nonzero"/></g></g></g></g><g clip-path="url(#17511fa3a5)"><g clip-path="url(#ba9fd3fd7d)"><g clip-path="url(#cd891bdea5)"><g clip-path="url(#b9e44db700)"><path fill="#000000" d="M 92.371094 2.386719 C 93.671875 6.226562 94.980469 10.09375 95.570312 14.121094 C 95.851562 16.058594 96.125 18.207031 95.683594 20.140625 C 95.59375 20.53125 95.429688 20.964844 95.195312 21.371094 C 95.132812 21.246094 95.0625 21.121094 94.996094 20.996094 C 94.726562 20.496094 94.464844 19.910156 94.105469 19.472656 C 93.484375 18.714844 92.296875 18.671875 91.449219 19 C 89.53125 19.742188 88.96875 22.15625 90.363281 23.652344 C 91.464844 24.828125 93.070312 25.089844 94.46875 24.550781 C 94.484375 24.59375 94.5 24.632812 94.515625 24.675781 C 95.890625 28.277344 96.433594 32.175781 96.472656 36.027344 C 96.519531 40.929688 95.789062 45.808594 95.074219 50.648438 C 94.890625 51.902344 96.835938 52.125 97.023438 50.871094 C 98.359375 41.808594 99.683594 32.085938 96.128906 23.402344 C 97.675781 21.742188 97.890625 19.417969 97.820312 17.222656 C 97.648438 11.835938 95.890625 6.664062 94.183594 1.617188 C 93.777344 0.417969 91.96875 1.195312 92.371094 2.386719 Z M 92.621094 22.824219 C 92.109375 22.679688 91.496094 22.214844 91.511719 21.625 C 91.523438 21.21875 91.917969 20.855469 92.320312 20.773438 C 92.488281 20.742188 92.566406 20.765625 92.648438 20.839844 C 92.953125 21.105469 93.175781 21.738281 93.363281 22.097656 C 93.480469 22.324219 93.597656 22.554688 93.707031 22.789062 C 93.375 22.910156 93.007812 22.9375 92.621094 22.824219 Z M 92.621094 22.824219 " fill-opacity="1" fill-rule="nonzero"/></g></g></g></g></svg>