<svg xmlns="http://www.w3.org/2000/svg" xmlns:xlink="http://www.w3.org/1999/xlink" width="198" zoomAndPan="magnify" viewBox="0 0 148.5 86.999996" height="116" preserveAspectRatio="xMidYMid meet" version="1.0"><defs><clipPath id="ac666eba61"><path d="M 44.707031 1.386719 L 93.847656 1.386719 L 93.847656 86 L 44.707031 86 Z M 44.707031 1.386719 " clip-rule="nonzero"/></clipPath><clipPath id="80c47e0ee4"><path d="M 66 68.019531 L 84.308594 68.019531 L 84.308594 86.089844 L 66 86.089844 Z M 66 68.019531 " clip-rule="nonzero"/></clipPath><clipPath id="2d63c0ea52"><path d="M 106.277344 15 L 147.210938 15 L 147.210938 65.710938 L 106.277344 65.710938 Z M 106.277344 15 " clip-rule="nonzero"/></clipPath></defs><path fill="#627dc2" d="M 35.605469 74.125 C 35.976562 75.6875 35.734375 77.203125 34.878906 78.675781 C 34.019531 80.148438 32.71875 81.085938 30.972656 81.5 C 29.289062 81.898438 27.722656 81.648438 26.269531 80.757812 C 24.820312 79.863281 23.910156 78.636719 23.539062 77.078125 C 23.152344 75.453125 23.390625 73.925781 24.257812 72.484375 C 25.121094 71.042969 26.425781 70.113281 28.171875 69.703125 C 29.917969 69.289062 31.496094 69.519531 32.910156 70.390625 C 34.324219 71.257812 35.222656 72.503906 35.605469 74.125 Z M 30.335938 61.960938 L 21.855469 63.96875 L 20.828125 59.644531 C 20.457031 58.085938 20.269531 56.636719 20.273438 55.304688 C 20.273438 53.976562 20.441406 52.730469 20.769531 51.574219 C 21.097656 50.417969 21.558594 49.28125 22.148438 48.15625 C 22.742188 47.035156 23.433594 45.875 24.230469 44.667969 L 26.820312 40.726562 C 27.871094 39.277344 28.671875 37.769531 29.226562 36.210938 C 29.773438 34.65625 29.804688 32.828125 29.304688 30.722656 C 28.617188 27.84375 27.15625 25.761719 24.914062 24.488281 C 22.671875 23.210938 20.109375 22.914062 17.222656 23.59375 C 14.214844 24.304688 12.035156 25.835938 10.6875 28.183594 C 9.339844 30.53125 8.839844 33.125 9.195312 35.957031 L 0.296875 37.011719 C 0.046875 34.347656 0.246094 31.84375 0.898438 29.503906 C 1.546875 27.160156 2.5625 25.066406 3.933594 23.21875 C 5.304688 21.371094 7.015625 19.8125 9.0625 18.535156 C 11.109375 17.257812 13.398438 16.320312 15.925781 15.722656 C 18.449219 15.125 20.898438 14.925781 23.265625 15.128906 C 25.632812 15.328125 27.824219 15.9375 29.84375 16.949219 C 31.863281 17.960938 33.597656 19.390625 35.054688 21.234375 C 36.507812 23.074219 37.558594 25.347656 38.199219 28.050781 C 38.65625 29.972656 38.84375 31.703125 38.765625 33.242188 C 38.6875 34.785156 38.40625 36.226562 37.9375 37.574219 C 37.460938 38.925781 36.804688 40.238281 35.964844 41.511719 C 35.125 42.792969 34.199219 44.117188 33.191406 45.496094 C 32.230469 46.804688 31.429688 47.960938 30.777344 48.96875 C 30.125 49.980469 29.660156 50.960938 29.378906 51.917969 C 29.097656 52.871094 28.972656 53.882812 29.003906 54.953125 C 29.035156 56.023438 29.230469 57.3125 29.589844 58.808594 L 30.335938 61.960938 " fill-opacity="1" fill-rule="nonzero"/><path fill="#627dc2" d="M 119.636719 77.023438 C 119.316406 78.59375 118.453125 79.867188 117.054688 80.839844 C 115.65625 81.816406 114.078125 82.121094 112.324219 81.761719 C 110.628906 81.417969 109.308594 80.535156 108.371094 79.113281 C 107.429688 77.695312 107.121094 76.199219 107.441406 74.628906 C 107.777344 72.996094 108.640625 71.707031 110.035156 70.765625 C 111.425781 69.820312 113 69.527344 114.757812 69.886719 C 116.515625 70.246094 117.851562 71.117188 118.765625 72.5 C 119.679688 73.882812 119.972656 75.390625 119.636719 77.023438 Z M 119.984375 63.773438 L 111.445312 62.03125 L 112.339844 57.679688 C 112.660156 56.105469 113.101562 54.71875 113.667969 53.511719 C 114.230469 52.300781 114.902344 51.242188 115.691406 50.335938 C 116.476562 49.421875 117.375 48.585938 118.382812 47.8125 C 119.394531 47.042969 120.511719 46.28125 121.742188 45.523438 L 125.753906 43.035156 C 127.320312 42.160156 128.683594 41.128906 129.839844 39.949219 C 130.996094 38.769531 131.792969 37.121094 132.226562 35.003906 C 132.820312 32.105469 132.371094 29.601562 130.878906 27.503906 C 129.382812 25.402344 127.183594 24.058594 124.273438 23.464844 C 121.242188 22.84375 118.625 23.316406 116.410156 24.882812 C 114.199219 26.445312 112.652344 28.585938 111.78125 31.304688 L 103.261719 28.523438 C 104.160156 26 105.398438 23.8125 106.976562 21.960938 C 108.554688 20.113281 110.355469 18.636719 112.378906 17.539062 C 114.402344 16.441406 116.613281 15.742188 119.007812 15.445312 C 121.402344 15.148438 123.875 15.257812 126.417969 15.777344 C 128.960938 16.296875 131.265625 17.144531 133.328125 18.320312 C 135.386719 19.496094 137.121094 20.96875 138.527344 22.738281 C 139.933594 24.503906 140.90625 26.527344 141.449219 28.8125 C 141.988281 31.09375 141.980469 33.597656 141.421875 36.316406 C 141.027344 38.25 140.46875 39.898438 139.746094 41.261719 C 139.023438 42.628906 138.164062 43.820312 137.164062 44.847656 C 136.167969 45.871094 135.019531 46.785156 133.714844 47.589844 C 132.414062 48.394531 131.019531 49.210938 129.523438 50.039062 C 128.097656 50.820312 126.882812 51.53125 125.867188 52.175781 C 124.851562 52.816406 124.015625 53.515625 123.355469 54.261719 C 122.699219 55.007812 122.15625 55.875 121.738281 56.855469 C 121.3125 57.84375 120.945312 59.089844 120.636719 60.601562 L 119.984375 63.773438 " fill-opacity="1" fill-rule="nonzero"/><g clip-path="url(#ac666eba61)"><path fill="#627dc2" d="M 77.210938 78.328125 C 77.210938 80.34375 76.472656 82.121094 75 83.667969 C 73.527344 85.21875 71.667969 85.988281 69.421875 85.988281 C 67.246094 85.988281 65.410156 85.234375 63.898438 83.726562 C 62.382812 82.21875 61.628906 80.457031 61.628906 78.445312 C 61.628906 76.355469 62.363281 74.558594 63.839844 73.050781 C 65.308594 71.542969 67.171875 70.785156 69.421875 70.785156 C 71.667969 70.785156 73.527344 71.523438 75 72.992188 C 76.472656 74.460938 77.210938 76.238281 77.210938 78.328125 Z M 74.304688 61.964844 L 63.371094 61.964844 L 63.371094 56.394531 C 63.371094 54.382812 63.566406 52.566406 63.953125 50.941406 C 64.339844 49.316406 64.902344 47.847656 65.640625 46.53125 C 66.375 45.214844 67.269531 43.960938 68.316406 42.761719 C 69.363281 41.5625 70.542969 40.339844 71.863281 39.101562 L 76.164062 35.042969 C 77.871094 33.574219 79.285156 31.964844 80.410156 30.226562 C 81.53125 28.484375 82.09375 26.261719 82.09375 23.550781 C 82.09375 19.839844 80.914062 16.878906 78.550781 14.675781 C 76.183594 12.46875 73.140625 11.367188 69.421875 11.367188 C 65.542969 11.367188 62.441406 12.605469 60.117188 15.082031 C 57.792969 17.558594 56.433594 20.574219 56.046875 24.132812 L 44.882812 22.855469 C 45.347656 19.53125 46.316406 16.53125 47.789062 13.863281 C 49.261719 11.191406 51.105469 8.929688 53.3125 7.074219 C 55.523438 5.214844 58.0625 3.804688 60.929688 2.835938 C 63.796875 1.871094 66.863281 1.386719 70.117188 1.386719 C 73.375 1.386719 76.414062 1.851562 79.246094 2.777344 C 82.074219 3.707031 84.578125 5.082031 86.746094 6.898438 C 88.917969 8.71875 90.625 10.960938 91.863281 13.628906 C 93.101562 16.300781 93.722656 19.375 93.722656 22.855469 C 93.722656 25.332031 93.453125 27.5 92.910156 29.355469 C 92.367188 31.210938 91.613281 32.894531 90.644531 34.402344 C 89.671875 35.914062 88.492188 37.324219 87.097656 38.640625 C 85.699219 39.957031 84.1875 41.308594 82.5625 42.703125 C 81.007812 44.015625 79.691406 45.195312 78.605469 46.242188 C 77.519531 47.285156 76.667969 48.351562 76.050781 49.433594 C 75.425781 50.515625 74.980469 51.714844 74.710938 53.03125 C 74.4375 54.347656 74.304688 55.96875 74.304688 57.902344 L 74.304688 61.964844 " fill-opacity="1" fill-rule="nonzero"/></g><path fill="#373737" d="M 95.246094 15.925781 C 95.632812 16.773438 95.921875 17.660156 96.160156 18.5625 C 96.703125 20.582031 99.839844 19.722656 99.296875 17.699219 C 98.984375 16.523438 98.558594 15.394531 98.054688 14.289062 C 97.683594 13.484375 96.535156 13.292969 95.828125 13.707031 C 95.007812 14.1875 94.878906 15.121094 95.246094 15.925781 " fill-opacity="1" fill-rule="nonzero"/><path fill="#373737" d="M 96.804688 23.953125 C 96.769531 28.296875 95.6875 32.34375 92.933594 35.789062 C 90.230469 39.167969 86.539062 41.726562 83.382812 44.660156 C 80.292969 47.53125 78.679688 50.800781 78.289062 54.988281 C 78.089844 57.117188 78.191406 59.300781 78.191406 61.4375 C 78.734375 60.898438 79.273438 60.355469 79.816406 59.816406 C 76.324219 59.816406 72.832031 59.816406 69.339844 59.816406 C 69.882812 60.355469 70.421875 60.898438 70.964844 61.4375 C 70.964844 59.714844 70.964844 57.992188 70.964844 56.269531 C 70.964844 52.453125 71.796875 49 73.945312 45.816406 C 76.847656 41.515625 81.351562 38.523438 84.835938 34.746094 C 87.523438 31.828125 88.855469 28.585938 88.910156 24.617188 C 88.960938 20.984375 87.65625 17.5 85.035156 14.960938 C 79.839844 9.925781 70.515625 10.132812 65.363281 15.046875 C 62.5625 17.71875 61.152344 21.410156 60.691406 25.175781 C 61.234375 24.632812 61.773438 24.09375 62.316406 23.550781 C 58.75 23.144531 55.183594 22.738281 51.617188 22.328125 C 52.140625 23.011719 52.660156 23.699219 53.183594 24.382812 C 54.441406 15.917969 59.632812 8.867188 67.917969 6.167969 C 76.347656 3.421875 86.890625 5.164062 92.839844 12.042969 C 94.210938 13.632812 96.5 11.324219 95.136719 9.75 C 88.386719 1.9375 76.605469 0.136719 67.054688 3.039062 C 57.742188 5.867188 51.453125 14.070312 50.046875 23.519531 C 49.882812 24.640625 50.480469 25.441406 51.617188 25.574219 C 55.183594 25.980469 58.75 26.390625 62.316406 26.796875 C 63.273438 26.90625 63.847656 25.96875 63.941406 25.175781 C 64.382812 21.582031 66.179688 18.054688 69.28125 16.0625 C 72.285156 14.132812 76.722656 14.074219 79.957031 15.445312 C 83.375 16.898438 85.355469 20.035156 85.632812 23.664062 C 85.769531 25.488281 85.585938 27.449219 84.847656 29.140625 C 84.054688 30.945312 82.589844 32.480469 81.1875 33.824219 C 77.484375 37.359375 73.390625 40.644531 70.601562 44.992188 C 67.421875 49.953125 67.714844 55.734375 67.714844 61.359375 C 67.714844 61.386719 67.714844 61.410156 67.714844 61.4375 C 67.714844 62.320312 68.453125 63.058594 69.339844 63.058594 C 72.832031 63.058594 76.324219 63.058594 79.816406 63.058594 C 80.703125 63.058594 81.441406 62.320312 81.441406 61.4375 C 81.441406 59.289062 81.382812 57.128906 81.539062 54.988281 C 81.6875 52.992188 82.28125 51.140625 83.378906 49.46875 C 84.484375 47.785156 86.210938 46.4375 87.714844 45.121094 C 91.003906 42.242188 94.449219 39.523438 96.882812 35.839844 C 99.203125 32.316406 100.023438 28.101562 100.058594 23.953125 C 100.074219 21.859375 96.824219 21.859375 96.804688 23.953125 " fill-opacity="1" fill-rule="nonzero"/><g clip-path="url(#80c47e0ee4)"><path fill="#373737" d="M 80.976562 77.121094 C 80.886719 80.375 78.347656 82.761719 75.136719 82.839844 C 71.996094 82.917969 69.382812 80.316406 69.292969 77.234375 C 69.199219 73.933594 72.007812 71.589844 75.136719 71.515625 C 78.375 71.433594 80.890625 73.9375 80.976562 77.121094 C 81.035156 79.210938 84.289062 79.214844 84.230469 77.121094 C 84.089844 72.035156 80.167969 68.386719 75.136719 68.269531 C 70.078125 68.148438 66.175781 72.332031 66.042969 77.234375 C 65.90625 82.21875 70.410156 85.96875 75.136719 86.085938 C 80.144531 86.210938 84.09375 81.972656 84.230469 77.121094 C 84.289062 75.027344 81.039062 75.035156 80.976562 77.121094 " fill-opacity="1" fill-rule="nonzero"/></g><path fill="#373737" d="M 34.511719 60.625 C 31.757812 61.277344 29 61.929688 26.246094 62.582031 C 26.910156 62.957031 27.578125 63.335938 28.242188 63.714844 C 27.914062 62.316406 27.582031 60.921875 27.25 59.523438 C 26.332031 55.65625 26.902344 52.1875 28.820312 48.726562 C 29.894531 46.785156 31.183594 44.953125 32.402344 43.101562 C 33.933594 40.769531 35.597656 38.347656 35.855469 35.484375 C 36.476562 28.507812 31.347656 22.5 24.214844 22.847656 C 20.964844 23.007812 17.675781 24.371094 15.527344 26.839844 C 13.164062 29.554688 12.335938 33.332031 12.714844 36.839844 C 13.253906 36.296875 13.796875 35.757812 14.339844 35.21875 C 11.445312 35.5625 8.554688 35.90625 5.664062 36.25 C 6.207031 36.789062 6.75 37.328125 7.289062 37.871094 C 6.957031 33.8125 7.675781 29.941406 9.800781 26.433594 C 11.847656 23.050781 15.269531 20.699219 18.941406 19.375 C 26.234375 16.746094 35.175781 18.007812 39.351562 25.113281 C 41.15625 28.179688 41.933594 32.203125 41.375 35.710938 C 40.742188 39.710938 38.027344 42.964844 35.722656 46.148438 C 33.496094 49.226562 31.757812 52.25 32.074219 56.179688 C 32.25 58.355469 32.875 60.5 33.375 62.621094 C 33.859375 64.65625 36.996094 63.792969 36.511719 61.757812 C 35.972656 59.484375 35.28125 57.191406 35.269531 54.839844 C 35.25 50.90625 38.898438 47.375 40.988281 44.335938 C 43.285156 41 44.789062 37.460938 44.800781 33.355469 C 44.816406 29.558594 43.574219 25.511719 41.460938 22.363281 C 36.726562 15.304688 27.769531 13.746094 19.972656 15.671875 C 11.925781 17.664062 5.683594 23.90625 4.246094 32.113281 C 3.910156 34.015625 3.878906 35.945312 4.039062 37.871094 C 4.105469 38.667969 4.734375 39.605469 5.664062 39.492188 C 8.554688 39.148438 11.445312 38.808594 14.339844 38.460938 C 15.140625 38.367188 16.066406 37.792969 15.964844 36.839844 C 15.628906 33.71875 16.289062 30.542969 18.617188 28.300781 C 20.730469 26.269531 24.328125 25.660156 27.085938 26.339844 C 29.984375 27.046875 31.667969 29.425781 32.371094 32.171875 C 33.207031 35.453125 31.863281 38.011719 30.097656 40.691406 C 27.722656 44.304688 25.035156 47.882812 23.921875 52.121094 C 22.828125 56.296875 24.144531 60.519531 25.109375 64.578125 C 25.320312 65.460938 26.269531 65.910156 27.109375 65.710938 C 29.863281 65.058594 32.621094 64.40625 35.375 63.753906 C 37.417969 63.273438 36.550781 60.144531 34.511719 60.625 " fill-opacity="1" fill-rule="nonzero"/><path fill="#373737" d="M 38.515625 74.476562 C 39.609375 79.980469 31.347656 81.824219 29.886719 76.492188 C 29.273438 74.265625 30.777344 72.097656 32.851562 71.410156 C 35.378906 70.574219 37.832031 71.972656 38.515625 74.476562 C 39.0625 76.496094 42.199219 75.636719 41.652344 73.617188 C 40.511719 69.429688 36.570312 67.332031 32.402344 68.171875 C 28.171875 69.023438 25.949219 73.347656 26.75 77.355469 C 27.585938 81.527344 32.136719 83.570312 36 82.800781 C 40.191406 81.960938 42.4375 77.578125 41.652344 73.617188 C 41.242188 71.5625 38.109375 72.433594 38.515625 74.476562 " fill-opacity="1" fill-rule="nonzero"/><g clip-path="url(#2d63c0ea52)"><path fill="#373737" d="M 124.738281 62.390625 C 121.964844 61.824219 119.1875 61.257812 116.414062 60.691406 C 116.792969 61.359375 117.171875 62.023438 117.546875 62.6875 C 117.839844 61.273438 118.128906 59.859375 118.417969 58.445312 C 119.214844 54.554688 121.109375 51.585938 124.320312 49.238281 C 128.308594 46.324219 133.828125 44.386719 136.460938 40.023438 C 138.183594 37.160156 138.601562 33.21875 137.511719 30.078125 C 136.449219 27.015625 133.933594 24.910156 131.011719 23.707031 C 127.84375 22.402344 124.183594 22.496094 121.113281 23.96875 C 117.953125 25.488281 115.828125 28.660156 114.738281 31.875 C 115.40625 31.496094 116.074219 31.117188 116.738281 30.742188 C 113.972656 29.839844 111.207031 28.933594 108.4375 28.03125 C 108.816406 28.699219 109.195312 29.363281 109.574219 30.027344 C 110.855469 26.53125 113.019531 23.472656 116.074219 21.296875 C 119.390625 18.933594 123.414062 18.136719 127.425781 18.363281 C 135.019531 18.789062 142.945312 23.65625 143.90625 31.703125 C 144.347656 35.375 143.375 39.351562 141.414062 42.46875 C 139.246094 45.914062 135.320312 47.746094 131.886719 49.664062 C 128.535156 51.539062 125.789062 53.496094 124.289062 57.15625 C 123.472656 59.160156 123.171875 61.410156 122.738281 63.527344 C 122.320312 65.566406 125.453125 66.4375 125.875 64.386719 C 126.339844 62.109375 126.65625 59.6875 127.628906 57.5625 C 129.300781 53.917969 133.96875 52.289062 137.210938 50.371094 C 140.679688 48.320312 143.601562 45.785156 145.339844 42.082031 C 147.035156 38.464844 147.574219 34.273438 146.976562 30.347656 C 145.730469 22.144531 138.125 16.980469 130.476562 15.503906 C 122.183594 13.902344 114.050781 16.914062 109.128906 23.792969 C 107.960938 25.429688 107.125 27.285156 106.4375 29.164062 C 106.125 30.023438 106.785156 30.902344 107.574219 31.160156 C 110.339844 32.0625 113.109375 32.96875 115.875 33.871094 C 116.753906 34.15625 117.601562 33.542969 117.875 32.738281 C 118.808594 29.984375 120.734375 27.460938 123.542969 26.4375 C 126.269531 25.445312 129.550781 26.234375 131.894531 27.808594 C 134.4375 29.511719 135.199219 32.621094 134.667969 35.480469 C 134.046875 38.84375 131.871094 40.625 129.085938 42.351562 C 125.441406 44.613281 121.460938 46.710938 118.6875 50.046875 C 115.890625 53.40625 115.261719 57.691406 114.414062 61.824219 C 114.246094 62.644531 114.640625 63.636719 115.550781 63.820312 C 118.324219 64.386719 121.101562 64.953125 123.875 65.519531 C 125.921875 65.9375 126.792969 62.8125 124.738281 62.390625 " fill-opacity="1" fill-rule="nonzero"/></g><path fill="#373737" d="M 122.398438 76.441406 C 121.828125 78.800781 119.71875 80.347656 117.265625 79.929688 C 114.964844 79.535156 113.261719 77.300781 113.648438 74.96875 C 114.558594 69.460938 123.328125 70.898438 122.398438 76.441406 C 122.054688 78.484375 125.1875 79.363281 125.53125 77.300781 C 126.242188 73.085938 123.847656 69.328125 119.640625 68.351562 C 115.503906 67.382812 111.480469 70.046875 110.511719 74.105469 C 109.535156 78.183594 112.480469 82.136719 116.402344 83.058594 C 120.5 84.019531 124.566406 81.316406 125.53125 77.300781 C 126.023438 75.269531 122.886719 74.40625 122.398438 76.441406 " fill-opacity="1" fill-rule="nonzero"/></svg>