<svg xmlns="http://www.w3.org/2000/svg" xmlns:xlink="http://www.w3.org/1999/xlink" width="114" zoomAndPan="magnify" viewBox="0 0 85.5 651.749986" height="869" preserveAspectRatio="xMidYMid meet" version="1.0"><defs><clipPath id="0b496ec1b1"><path d="M 0 1.769531 L 84.746094 1.769531 L 84.746094 649.679688 L 0 649.679688 Z M 0 1.769531 " clip-rule="nonzero"/></clipPath><clipPath id="74e426f79a"><path d="M 84.746094 649.457031 L 84.746094 1.769531 L 42.371094 60.433594 L -0.0078125 1.769531 L -0.0078125 649.457031 L 42.371094 590.792969 Z M 84.746094 649.457031 " clip-rule="nonzero"/></clipPath><clipPath id="7bf0f1bff1"><path d="M 0 0.769531 L 84.746094 0.769531 L 84.746094 648.582031 L 0 648.582031 Z M 0 0.769531 " clip-rule="nonzero"/></clipPath><clipPath id="3a356a4c7c"><path d="M 84.746094 648.457031 L 84.746094 0.769531 L 42.371094 59.433594 L -0.0078125 0.769531 L -0.0078125 648.457031 L 42.371094 589.792969 Z M 84.746094 648.457031 " clip-rule="nonzero"/></clipPath><clipPath id="21a1debbf4"><rect x="0" width="85" y="0" height="649"/></clipPath><clipPath id="6f1f53f47a"><path d="M 14 257.777344 L 67.6875 257.777344 L 67.6875 325.632812 L 14 325.632812 Z M 14 257.777344 " clip-rule="nonzero"/></clipPath><clipPath id="9f94f87d73"><path d="M 14 444.773438 L 67.6875 444.773438 L 67.6875 512.625 L 14 512.625 Z M 14 444.773438 " clip-rule="nonzero"/></clipPath></defs><g clip-path="url(#0b496ec1b1)"><g clip-path="url(#74e426f79a)"><g transform="matrix(1, 0, 0, 1, 0, 1)"><g clip-path="url(#21a1debbf4)"><g clip-path="url(#7bf0f1bff1)"><g clip-path="url(#3a356a4c7c)"><path fill="#c6d8fb" d="M 84.746094 0.769531 L 84.746094 648.351562 L -0.0078125 648.351562 L -0.0078125 0.769531 Z M 84.746094 0.769531 " fill-opacity="1" fill-rule="nonzero"/></g></g></g></g></g></g><g clip-path="url(#6f1f53f47a)"><path fill="#8ab7e2" d="M 66.492188 289.140625 C 66.492188 289.140625 64.96875 288.582031 64.214844 288.3125 C 60.84375 287.039062 57.277344 284.859375 54.460938 282.605469 C 51.976562 280.621094 49.257812 277.785156 47.984375 274.800781 C 46.425781 271.15625 44.113281 263.601562 44.113281 259.785156 C 44.113281 259.207031 43.726562 258.703125 43.1875 258.550781 C 43.089844 258.394531 42.9375 258.242188 42.761719 258.144531 C 42.144531 257.777344 41.355469 257.992188 40.988281 258.609375 C 40.507812 259.4375 40.332031 260.476562 40.332031 261.59375 C 40.332031 262.90625 40.621094 264.351562 40.679688 265.410156 C 41.085938 271.117188 36.632812 276.339844 32.777344 280.023438 C 28.863281 283.761719 23.292969 287.269531 18.128906 288.871094 C 17.125 289.179688 16.085938 289.542969 15.199219 290.085938 C 15.082031 290.140625 14.851562 290.257812 14.851562 290.257812 C 14.351562 290.488281 14.042969 291.007812 14.101562 291.550781 C 14.15625 292.109375 14.542969 292.550781 15.082031 292.6875 C 15.082031 292.6875 17.203125 293.207031 18.261719 293.417969 C 22.542969 294.265625 26.398438 296.039062 29.191406 299.472656 C 33.316406 304.558594 34.957031 310.054688 36.789062 316.222656 C 37.421875 318.398438 37.65625 320.695312 37.945312 322.929688 L 37.945312 324.296875 C 37.945312 324.992188 38.503906 325.570312 39.195312 325.589844 C 39.890625 325.609375 40.488281 325.070312 40.527344 324.375 C 40.527344 324.375 40.585938 323.390625 40.527344 322.8125 C 40.527344 321.597656 40.566406 320.40625 40.640625 319.210938 C 41.046875 312.789062 43.898438 306.949219 48.042969 302.035156 C 52.015625 297.3125 57.816406 292.800781 64.0625 292.011719 C 64.8125 291.914062 66.296875 291.644531 66.296875 291.644531 C 66.875 291.53125 67.300781 291.066406 67.359375 290.46875 C 67.378906 289.890625 67.03125 289.332031 66.492188 289.140625 Z M 46.039062 300.359375 C 42.628906 304.40625 40.0625 309.011719 38.8125 314.023438 C 37.039062 308.105469 35.207031 302.785156 31.179688 297.832031 C 28.210938 294.171875 24.179688 292.128906 19.691406 291.085938 C 24.972656 289.292969 30.582031 285.707031 34.570312 281.890625 C 38.214844 278.421875 42.144531 273.640625 43.089844 268.398438 C 43.878906 271.234375 44.824219 273.96875 45.597656 275.800781 C 47.042969 279.15625 50.03125 282.375 52.84375 284.609375 C 55.3125 286.578125 58.316406 288.503906 61.324219 289.871094 C 55.367188 291.433594 49.894531 295.769531 46.039062 300.359375 Z M 46.039062 300.359375 " fill-opacity="1" fill-rule="nonzero"/></g><g clip-path="url(#9f94f87d73)"><path fill="#8ab7e2" d="M 66.492188 476.132812 C 66.492188 476.132812 64.96875 475.574219 64.214844 475.304688 C 60.84375 474.035156 57.277344 471.855469 54.460938 469.601562 C 51.976562 467.613281 49.257812 464.78125 47.984375 461.792969 C 46.425781 458.148438 44.113281 450.59375 44.113281 446.777344 C 44.113281 446.199219 43.726562 445.699219 43.1875 445.542969 C 43.089844 445.390625 42.9375 445.234375 42.761719 445.140625 C 42.144531 444.773438 41.355469 444.984375 40.988281 445.601562 C 40.507812 446.429688 40.332031 447.472656 40.332031 448.589844 C 40.332031 449.902344 40.621094 451.347656 40.679688 452.40625 C 41.085938 458.113281 36.632812 463.335938 32.777344 467.015625 C 28.863281 470.757812 23.292969 474.265625 18.128906 475.863281 C 17.125 476.171875 16.085938 476.539062 15.199219 477.078125 C 15.082031 477.136719 14.851562 477.253906 14.851562 477.253906 C 14.351562 477.484375 14.042969 478.003906 14.101562 478.542969 C 14.15625 479.101562 14.542969 479.546875 15.082031 479.679688 C 15.082031 479.679688 17.203125 480.203125 18.261719 480.414062 C 22.542969 481.261719 26.398438 483.035156 29.191406 486.464844 C 33.316406 491.554688 34.957031 497.046875 36.789062 503.214844 C 37.421875 505.394531 37.65625 507.6875 37.945312 509.925781 L 37.945312 511.292969 C 37.945312 511.988281 38.503906 512.566406 39.195312 512.582031 C 39.890625 512.601562 40.488281 512.0625 40.527344 511.371094 C 40.527344 511.371094 40.585938 510.386719 40.527344 509.808594 C 40.527344 508.59375 40.566406 507.398438 40.640625 506.203125 C 41.046875 499.785156 43.898438 493.945312 48.042969 489.03125 C 52.015625 484.308594 57.816406 479.796875 64.0625 479.007812 C 64.8125 478.910156 66.296875 478.640625 66.296875 478.640625 C 66.875 478.523438 67.300781 478.0625 67.359375 477.464844 C 67.378906 476.886719 67.03125 476.328125 66.492188 476.132812 Z M 46.039062 487.351562 C 42.628906 491.398438 40.0625 496.007812 38.8125 501.019531 C 37.039062 495.101562 35.207031 489.78125 31.179688 484.828125 C 28.210938 481.164062 24.179688 479.121094 19.691406 478.082031 C 24.972656 476.289062 30.582031 472.703125 34.570312 468.886719 C 38.214844 465.417969 42.144531 460.636719 43.089844 455.394531 C 43.878906 458.226562 44.824219 460.964844 45.597656 462.796875 C 47.042969 466.148438 50.03125 469.367188 52.84375 471.605469 C 55.3125 473.570312 58.316406 475.5 61.324219 476.867188 C 55.367188 478.429688 49.894531 482.765625 46.039062 487.351562 Z M 46.039062 487.351562 " fill-opacity="1" fill-rule="nonzero"/></g></svg>