<svg xmlns="http://www.w3.org/2000/svg" xmlns:xlink="http://www.w3.org/1999/xlink" width="442" zoomAndPan="magnify" viewBox="0 0 331.5 107.999999" height="144" preserveAspectRatio="xMidYMid meet" version="1.0"><defs><filter x="0%" y="0%" width="100%" height="100%" id="032ee7c94c"><feColorMatrix values="0 0 0 0 1 0 0 0 0 1 0 0 0 0 1 0 0 0 1 0" color-interpolation-filters="sRGB"/></filter><clipPath id="6fed9cb25c"><path d="M 0 0.0820312 L 331 0.0820312 L 331 107.917969 L 0 107.917969 Z M 0 0.0820312 " clip-rule="nonzero"/></clipPath><mask id="ba52d642ef"><g filter="url(#032ee7c94c)"><rect x="-33.15" width="397.8" fill="#000000" y="-10.8" height="129.599998" fill-opacity="0.41"/></g></mask><clipPath id="f3f1fc617c"><path d="M 0 0.0820312 L 330 0.0820312 L 330 107.917969 L 0 107.917969 Z M 0 0.0820312 " clip-rule="nonzero"/></clipPath><clipPath id="8579f8a578"><rect x="0" width="331" y="0" height="108"/></clipPath></defs><g clip-path="url(#6fed9cb25c)"><g mask="url(#ba52d642ef)"><g transform="matrix(1, 0, 0, 1, 0, -0.000000000000009451)"><g clip-path="url(#8579f8a578)"><g clip-path="url(#f3f1fc617c)"><path fill="#000000" d="M 124.265625 28.527344 L 83.421875 3.832031 L 42.582031 28.527344 L 0.832031 3.335938 L 2.480469 0.578125 L 42.523438 24.773438 L 83.398438 0.0820312 L 124.242188 24.773438 L 165.132812 0.0820312 L 205.976562 24.773438 L 246.875 0.0820312 L 287.71875 24.773438 L 327.761719 0.578125 L 329.417969 3.335938 L 287.75 28.527344 L 246.910156 3.832031 L 206.066406 28.527344 L 165.222656 3.832031 Z M 246.875 43.546875 L 287.71875 68.238281 L 329.425781 43.046875 L 327.800781 40.257812 L 287.757812 64.453125 L 246.917969 39.761719 L 206.074219 64.453125 L 165.230469 39.761719 L 124.386719 64.453125 L 83.542969 39.761719 L 42.699219 64.453125 L 2.480469 40.257812 L 0.832031 43.046875 L 42.523438 68.238281 L 83.367188 43.546875 L 124.210938 68.238281 L 165.054688 43.546875 L 205.898438 68.238281 Z M 246.875 83.257812 L 287.71875 107.949219 L 329.425781 82.757812 L 327.769531 80.003906 L 287.726562 104.199219 L 246.882812 79.503906 L 206.042969 104.199219 L 165.199219 79.503906 L 124.355469 104.199219 L 83.511719 79.503906 L 42.667969 104.199219 L 2.625 80.003906 L 0.832031 82.757812 L 42.523438 107.949219 L 83.367188 83.257812 L 124.210938 107.949219 L 165.054688 83.257812 L 205.898438 107.949219 Z M 246.875 83.257812 " fill-opacity="1" fill-rule="nonzero"/></g></g></g></g></g></svg>